<svg xmlns="http://www.w3.org/2000/svg" id="Слой_1" data-name="Слой 1" viewBox="0 0 49.9 44.01">
  <defs>
    <style>
      .cls-1 {
        fill: #cfdbe6;
      }

      .cls-2 {
        fill: #eff4f4;
      }

      .cls-3 {
        fill: #232575;
      }

      .cls-4 {
        fill: #365e94;
      }

      .cls-5 {
        fill: #a8bccc;
      }

      .cls-6 {
        fill: #bdcfdf;
      }

      .cls-7 {
        fill: #ffdb58;
      }

      .cls-8 {
        fill: #9eacba;
      }
    </style>
  </defs>
  <title>air</title>
  <g id="assets">
    <g id="_-Техника-для-дома" data-name="-Техника-для-дома">
      <g id="иконки_-Техника-для-дома_воздух" data-name="иконки/-Техника-для-дома/воздух">
        <g id="air-conditioner">
          <path id="Shape" class="cls-1" d="M48.17,18.21a6.49,6.49,0,0,0-4.27-2.07L25.43,14.7a6.54,6.54,0,0,0-1,0L6,16.14a6.5,6.5,0,0,0-6,6.48V40.5A3.52,3.52,0,0,0,3.51,44H46.39A3.52,3.52,0,0,0,49.9,40.5V22.63A6.49,6.49,0,0,0,48.17,18.21Z"/>
          <path id="Shape-2" data-name="Shape" class="cls-2" d="M25,14.68l-0.53,0L6,16.14a6.5,6.5,0,0,0-6,6.48V40.5A3.52,3.52,0,0,0,3.51,44H25V14.68Z"/>
          <path id="Shape-3" data-name="Shape" class="cls-3" d="M41.44,38.36H8.17a2.58,2.58,0,0,0-2.58,2.58V44H44V40.94A2.58,2.58,0,0,0,41.44,38.36Z"/>
          <path id="Shape-4" data-name="Shape" class="cls-4" d="M25,38.36H8.17a2.58,2.58,0,0,0-2.58,2.58V44H25V38.36Z"/>
          <path id="Shape-5" data-name="Shape" class="cls-5" d="M49.9,25.44V22.63a6.5,6.5,0,0,0-6-6.48L25.43,14.7a6.54,6.54,0,0,0-1,0L6,16.14a6.5,6.5,0,0,0-6,6.48v2.84C7.22,25.52,42.88,25.46,49.9,25.44Z"/>
          <path id="Shape-6" data-name="Shape" class="cls-6" d="M25,25.48V14.68l-0.53,0L6,16.14a6.5,6.5,0,0,0-6,6.48v2.84Z"/>
          <path id="Shape-7" data-name="Shape" class="cls-1" d="M44.73,20.3H43.36a1,1,0,1,0,0,1.95h1.37A1,1,0,1,0,44.73,20.3Z"/>
          <path id="Shape-8" data-name="Shape" class="cls-7" d="M40.29,20.3H38.92a1,1,0,1,0,0,1.95h1.37A1,1,0,1,0,40.29,20.3Z"/>
          <g id="Group">
            <path id="Shape-9" data-name="Shape" class="cls-1" d="M25,8.44A4.14,4.14,0,0,0,22,9.66a1.46,1.46,0,0,0,2.07,2.07,1.25,1.25,0,0,1,1.76,0A1.46,1.46,0,1,0,27.9,9.66,4.14,4.14,0,0,0,25,8.44Z"/>
            <path id="Shape-10" data-name="Shape" class="cls-1" d="M19.87,6.26a1.46,1.46,0,1,0,2.07,2.07,4.26,4.26,0,0,1,6,0A1.46,1.46,0,0,0,30,6.26,7.19,7.19,0,0,0,19.87,6.26Z"/>
            <path id="Shape-11" data-name="Shape" class="cls-1" d="M32.41,3.08a10.56,10.56,0,0,0-14.91,0,1.46,1.46,0,1,0,2.07,2.07,7.63,7.63,0,0,1,10.78,0A1.46,1.46,0,0,0,32.41,3.08Z"/>
          </g>
          <path id="Shape-12" data-name="Shape" class="cls-8" d="M39.32,38.36H11.25l-0.54,1.57a1,1,0,0,0,.92,1.29H38.93a1,1,0,0,0,.92-1.29Z"/>
          <path id="Shape-13" data-name="Shape" class="cls-6" d="M25,38.36H11.25l-0.54,1.57a1,1,0,0,0,.92,1.29H25V38.36Z"/>
        </g>
      </g>
    </g>
  </g>
</svg>