<?xml version="1.0" encoding="UTF-8"?><svg xmlns="http://www.w3.org/2000/svg" xmlns:xlink="http://www.w3.org/1999/xlink" width="60px" height="60px" viewBox="0 0 60 60" version="1.1">
    <title>food&amp;drinks/bakaleya</title>
    <defs>
        <linearGradient x1="36.3209385%" y1="62.6589612%" x2="88.0573622%" y2="62.6589612%" id="linearGradient-1">
            <stop stop-color="#DD9D6D" offset="0%"/>
            <stop stop-color="#ECB790" offset="100%"/>
            <stop stop-color="#EEBA94" offset="100%"/>
        </linearGradient>
        <linearGradient x1="36.3209385%" y1="62.6589612%" x2="88.0573622%" y2="62.6589612%" id="linearGradient-2">
            <stop stop-color="#DD9D6D" offset="0%"/>
            <stop stop-color="#ECB790" offset="100%"/>
            <stop stop-color="#EEBA94" offset="100%"/>
        </linearGradient>
        <linearGradient x1="36.3209385%" y1="62.6589612%" x2="88.0573622%" y2="62.6589612%" id="linearGradient-3">
            <stop stop-color="#DD9D6D" offset="0%"/>
            <stop stop-color="#ECB790" offset="100%"/>
            <stop stop-color="#EEBA94" offset="100%"/>
        </linearGradient>
        <linearGradient x1="36.3209385%" y1="62.6589612%" x2="88.0573622%" y2="62.6589612%" id="linearGradient-4">
            <stop stop-color="#DD9D6D" offset="0%"/>
            <stop stop-color="#ECB790" offset="100%"/>
            <stop stop-color="#EEBA94" offset="100%"/>
        </linearGradient>
        <linearGradient x1="36.3209385%" y1="62.6589612%" x2="88.0573622%" y2="62.6589612%" id="linearGradient-5">
            <stop stop-color="#DD9D6D" offset="0%"/>
            <stop stop-color="#ECB790" offset="100%"/>
            <stop stop-color="#EEBA94" offset="100%"/>
        </linearGradient>
        <linearGradient x1="36.3209385%" y1="62.6589612%" x2="88.0573622%" y2="62.6589612%" id="linearGradient-6">
            <stop stop-color="#DD9D6D" offset="0%"/>
            <stop stop-color="#ECB790" offset="100%"/>
            <stop stop-color="#EEBA94" offset="100%"/>
        </linearGradient>
    </defs>
    <g id="food&amp;drinks/bakaleya" stroke="none" stroke-width="1" fill="none" fill-rule="evenodd">
        <g id="bakaleya" transform="translate(7.000000, 8.000000)">
            <g id="butylka" transform="translate(13.999195, 0.894603)">
                <path d="M7.77444976,10.5434605 C7.03669856,9.84477632 6.93909091,9.60951316 6.92688995,8.73398684 C6.92038278,8.29346053 6.78617225,2.39451316 6.78617225,2.39451316 L4.72339713,2.40082895 L2.73138756,2.24846053 C2.73138756,2.24846053 2.51421053,8.34477632 2.51095694,8.80109211 C2.50444976,9.85503947 2.44507177,9.81082895 1.6723445,10.5434605 C0.564497608,11.5934605 1.53412636e-14,12.3237237 1.53412636e-14,15.5297763 C1.53412636e-14,20.68425 0.0488038278,25.8466184 0.0805263158,26.4821447 C0.08215311,26.5145132 0.0894736842,26.5397763 0.094354067,26.5689868 C0.15861244,27.2131974 0.496172249,27.8471447 1.37464115,28.3397763 C3.27229665,29.4031974 6.34856459,29.4031974 8.2462201,28.3397763 C9.19870813,27.8060921 9.4345933,27.1058289 9.43052632,26.4055658 C9.44110048,25.7834605 9.44598086,20.3068816 9.44598086,15.1705658 C9.44598086,11.9139868 8.88148325,11.5934605 7.77444976,10.5434605" id="Fill-1" fill="#77BD40"/>
                <path d="M8.51960287,15.9864868 C6.50807177,17.1138553 3.19103828,17.2741184 1.18032057,16.14675 C0.669507177,15.8609605 0.268502392,15.5822763 0.00170813397,15.2672763 C0.000894736842,15.3533289 8.13397129e-05,15.4401711 8.13397129e-05,15.5293816 C8.13397129e-05,18.6478026 0.0187894737,21.7662237 0.0391244019,23.88675 C0.288837321,24.2293816 0.65730622,24.5514868 1.15429187,24.8293816 C3.16582297,25.95675 6.42754545,25.95675 8.43907656,24.8293816 C8.86448325,24.5909605 9.19472249,24.3201711 9.43955502,24.0320132 C9.44362201,21.8356974 9.4460622,18.4599079 9.4460622,15.2128026 C9.20366986,15.4970132 8.89051196,15.7788553 8.51960287,15.9864868" id="Fill-4" fill="#F3EDCA"/>
                <path d="M2.58587081,2.93822368 C2.58587081,3.24927632 2.79898086,3.56032895 3.22113397,3.79796053 C4.07032057,4.27243421 5.44496172,4.27243421 6.29252153,3.79796053 C6.71548804,3.56032895 6.92859809,3.24927632 6.92859809,2.93822368 L6.92859809,1.21085526 L2.58587081,1.21085526 L2.58587081,2.93822368 Z" id="Fill-7" fill="#12782E"/>
                <path d="M6.29463636,0.357039474 C5.44544976,-0.119013158 4.07080861,-0.119013158 3.22243541,0.357039474 C2.3740622,0.831513158 2.3740622,1.60203947 3.22243541,2.07730263 C4.07080861,2.55256579 5.44544976,2.55256579 6.29463636,2.07730263 C7.14219617,1.60203947 7.14219617,0.831513158 6.29463636,0.357039474" id="Fill-9" fill="#338B4B"/>
            </g>
            <g id="yaica" transform="translate(0.000000, 20.000000)">
                <path d="M17.2711977,5.59233103 L1.40398837,13.6968828 C1.40398837,13.6968828 1.54317442,17.3059862 3.65863953,18.2858483 C5.73096512,19.2458483 5.99712791,18.2130207 7.72922093,19.1755034 C9.4605,20.1371586 11.4693372,23.904331 14.3710814,23.904331 C17.2728256,23.904331 18.2438721,21.3710897 20.1900349,20.0750897 C20.4268953,19.9178483 20.9901512,21.3272276 22.9558488,20.2646069 C24.9223605,19.2011586 25.8567791,16.4941241 26.6511977,16.1076414 C27.4464302,15.7211586 28.151314,16.6712276 30.0250349,15.6657103 C31.9003837,14.6610207 33.3093372,10.4361931 33.3093372,10.4361931 L22.8402674,5.59233103 C21.3027093,4.68943448 18.8087558,4.68943448 17.2711977,5.59233103" id="Fill-4" fill="#C5BF9A"/>
                <path d="M33.4624419,7.96915862 L23.3222093,2.01715862 C21.6495349,1.03481379 18.9366279,1.03481379 17.2639535,2.01715862 L1.25511628,11.4144 C-0.418372093,12.3967448 -0.418372093,13.9881931 1.25511628,14.9705379 L11.3953488,20.9225379 C13.0680233,21.9057103 15.7809302,21.9057103 17.4544186,20.9225379 L33.4624419,11.5261241 C35.1351163,10.5437793 35.1351163,8.95150345 33.4624419,7.96915862" id="Fill-7" fill="#E6E3D3"/>
                <path d="M23.6934535,11.8089103 C22.1038023,10.8762207 19.5260116,10.8762207 17.9363605,11.8089103 C16.3467093,12.7424276 16.3467093,14.2552552 17.9363605,15.1887724 C19.5260116,16.1222897 22.1038023,16.1222897 23.6934535,15.1887724 C25.2831047,14.2552552 25.2831047,12.7424276 23.6934535,11.8089103" id="Fill-10" fill="#BAB69C"/>
                <path d="M30.583407,7.76474483 C28.9937558,6.83122759 26.4159651,6.83122759 24.826314,7.76474483 C23.2366628,8.69826207 23.2366628,10.2110897 24.826314,11.1446069 C26.4159651,12.0772966 28.9937558,12.0772966 30.583407,11.1446069 C32.1730581,10.2110897 32.1730581,8.69826207 30.583407,7.76474483" id="Fill-12" fill="#BAB69C"/>
                <path d="M16.8038256,15.8539034 C15.2141744,14.9203862 12.6363837,14.9203862 11.0467326,15.8539034 C9.4570814,16.7865931 9.4570814,18.3002483 11.0467326,19.2329379 C12.6363837,20.1664552 15.2141744,20.1664552 16.8038256,19.2329379 C18.3934767,18.3002483 18.3934767,16.7865931 16.8038256,15.8539034" id="Fill-14" fill="#BAB69C"/>
                <path d="M16.4238721,7.54162759 C14.8342209,6.60811034 12.2564302,6.60811034 10.6667791,7.54162759 C9.07712791,8.47514483 9.07712791,9.98797241 10.6667791,10.9214897 C12.2564302,11.8541793 14.8342209,11.8541793 16.4238721,10.9214897 C18.0135233,9.98797241 18.0135233,8.47514483 16.4238721,7.54162759" id="Fill-16" fill="#BAB69C"/>
                <path d="M23.3135,3.49746207 C21.7238488,2.56394483 19.1460581,2.56394483 17.556407,3.49746207 C15.9667558,4.43015172 15.9667558,5.9438069 17.556407,6.87649655 C19.1460581,7.81001379 21.7238488,7.81001379 23.3135,6.87649655 C24.9031512,5.9438069 24.9031512,4.43015172 23.3135,3.49746207" id="Fill-18" fill="#BAB69C"/>
                <path d="M9.53383721,11.5857931 C7.94418605,10.6531034 5.36639535,10.6531034 3.77674419,11.5857931 C2.18709302,12.5193103 2.18709302,14.0321379 3.77674419,14.9656552 C5.36639535,15.8991724 7.94418605,15.8991724 9.53383721,14.9656552 C11.1234884,14.0321379 11.1234884,12.5193103 9.53383721,11.5857931" id="Fill-20" fill="#BAB69C"/>
                <path d="M9.71290698,9.33103448 C9.67953488,9.93434483 10.0555814,10.5426207 10.8377907,11.0011034 L10.8377907,11.0011034 C12.3403488,11.8841379 14.7773256,11.8841379 16.2798837,11.0011034 L16.2798837,11.0011034 C17.062907,10.5426207 17.4373256,9.93434483 17.4047674,9.33103448 L17.4047674,9.33103448 C17.4047674,8.43724138 17.1117442,4.0857931 13.5588372,4.0857931 L13.5588372,4.0857931 C10.0067442,4.0857931 9.74383721,8.7782069 9.71290698,9.33103448" id="Fill-23" fill="url(#linearGradient-1)"/>
                <path d="M3.96151163,15.0595862 C5.46488372,15.9417931 7.90023256,15.9417931 9.4027907,15.0595862 C10.185814,14.6002759 10.5610465,13.992 10.5284884,13.3903448 C10.5284884,12.4957241 10.2354651,8.14344828 6.68255814,8.14344828 C3.13046512,8.14344828 2.86674419,12.8358621 2.83744186,13.3903448 C2.80406977,13.992 3.17930233,14.6002759 3.96151163,15.0595862 Z" id="fill" fill="url(#linearGradient-2)"/>
                <path d="M20.4351163,0 C16.8822093,0 16.6201163,4.69241379 16.589186,5.24606897 L16.589186,5.24606897 C16.5566279,5.84855172 16.9310465,6.45682759 17.7148837,6.91613793 L17.7148837,6.91613793 C19.2166279,7.79834483 21.6527907,7.79834483 23.1561628,6.91613793 L23.1561628,6.91613793 C23.9383721,6.45682759 24.3144186,5.84855172 24.2802326,5.24606897 L24.2802326,5.24606897 C24.2802326,4.35227586 23.9872093,0 20.4351163,0 Z" id="Fill-29" fill="url(#linearGradient-3)"/>
                <path d="M17.0865116,13.574069 C17.0531395,14.1757241 17.4283721,14.784 18.2113953,15.2449655 L18.2113953,15.2449655 C19.7139535,16.1263448 22.1493023,16.1263448 23.6526744,15.2449655 L23.6526744,15.2449655 C24.4356977,14.784 24.8109302,14.1757241 24.7775581,13.574069 L24.7775581,13.574069 C24.7775581,12.6802759 24.4845349,8.328 20.9316279,8.328 L20.9316279,8.328 C17.3787209,8.328 17.1166279,13.0204138 17.0865116,13.574069" id="Fill-32" fill="url(#linearGradient-4)"/>
                <path d="M10.2102326,17.6317241 C10.1768605,18.2333793 10.552093,18.8433103 11.3351163,19.3026207 L11.3351163,19.3026207 C12.8376744,20.184 15.2738372,20.184 16.7763953,19.3026207 L16.7763953,19.3026207 C17.5594186,18.8433103 17.9346512,18.2333793 17.9012791,17.6317241 L17.9012791,17.6317241 C17.9012791,16.737931 17.6082558,12.3864828 14.0553488,12.3864828 L14.0553488,12.3864828 C10.5032558,12.3864828 10.2403488,17.078069 10.2102326,17.6317241" id="Fill-35" fill="url(#linearGradient-5)"/>
                <path d="M23.9627907,9.48827586 C23.9294186,10.0907586 24.3046512,10.6990345 25.0876744,11.1591724 L25.0876744,11.1591724 C26.5902326,12.0413793 29.0263953,12.0413793 30.5289535,11.1591724 L30.5289535,11.1591724 C31.3119767,10.6990345 31.6863953,10.0907586 31.6538372,9.48827586 L31.6538372,9.48827586 C31.6538372,8.59448276 31.360814,4.24303448 27.807907,4.24303448 L27.807907,4.24303448 C24.255814,4.24303448 23.9937209,8.93544828 23.9627907,9.48827586" id="Fill-38" fill="url(#linearGradient-6)"/>
            </g>
            <g id="syr" transform="translate(23.000000, 13.000000)">
                <polygon id="Fill-1" fill="#F9C238" points="2.11222143 11.8041617 2.11222143 25.3132585 22.4557214 18.5582907 22.4557214 5.16241977"/>
                <polygon id="Fill-2" fill="#F8B611" points="8.21428571e-05 14.9261746 2.111975 25.313594 2.111975 11.8044972 8.21428571e-05 1.52946493"/>
                <path d="M-4.37745078e-15,1.11967138 L-4.37745078e-15,1.52896171 L2.11189286,11.803994 L22.4553929,5.16225203 L22.4553929,4.75296171 C22.4553929,4.75296171 18.19875,1.77386493 12.2836429,0.79509074 C6.48928571,-0.165231841 -4.37745078e-15,1.11967138 -4.37745078e-15,1.11967138" id="Fill-3" fill="#ECA01F"/>
                <path d="M12.283725,0.385381062 C5.14140357,-0.797199583 8.21428571e-05,1.11925203 8.21428571e-05,1.11925203 L2.111975,11.3942843 L22.455475,4.75254235 C22.455475,4.75254235 19.4260464,1.56796171 12.283725,0.385381062" id="Fill-6" fill="#E99300"/>
                <path d="M18.9358179,7.466523 C17.5788179,7.76342622 16.478925,9.12716816 16.478925,10.5135553 C16.478925,11.8991036 17.5788179,12.7814262 18.9358179,12.484523 C20.2928179,12.1876198 21.3935321,10.8238778 21.3935321,9.43832945 C21.3935321,8.05278106 20.2928179,7.16961977 18.9358179,7.466523" id="Fill-9" fill="#ECA01F"/>
                <path d="M18.1071607,15.3359682 C17.2052321,15.5330649 16.4741607,16.4397101 16.4741607,17.3606133 C16.4741607,18.2815165 17.2052321,18.8677746 18.1071607,18.6706778 C19.0090893,18.4735811 19.7401607,17.5669359 19.7401607,16.6460327 C19.7401607,15.7251294 19.0090893,15.1388714 18.1071607,15.3359682" id="Fill-11" fill="#ECA01F"/>
                <path d="M11.4241821,14.9264262 C10.5222536,15.123523 9.79118214,16.0301682 9.79118214,16.9510714 C9.79118214,17.8719746 10.5222536,18.4582327 11.4241821,18.2611359 C12.3261107,18.0640391 13.0571821,17.157394 13.0571821,16.2364907 C13.0571821,15.3155875 12.3261107,14.7293294 11.4241821,14.9264262" id="Fill-13" fill="#ECA01F"/>
                <path d="M5.77406786,20.0385294 C5.06435357,20.1936907 4.48935357,20.906594 4.48935357,21.6312391 C4.48935357,22.3558843 5.06435357,22.8171746 5.77406786,22.6620133 C6.48378214,22.506852 7.05878214,21.7939488 7.05878214,21.0693036 C7.05878214,20.3446585 6.48378214,19.8833682 5.77406786,20.0385294" id="Fill-15" fill="#ECA01F"/>
                <path d="M3.89858214,14.1205101 C3.29401071,14.2530262 2.80443929,14.860252 2.80443929,15.4767036 C2.80443929,16.093994 3.29401071,16.4873488 3.89858214,16.3548327 C4.50315357,16.2223165 4.992725,15.6150907 4.992725,14.9986391 C4.992725,14.3813488 4.50315357,13.9888327 3.89858214,14.1205101" id="Fill-17" fill="#ECA01F"/>
                <path d="M0.257928571,9.11198751 C0.257928571,10.3448907 0.455892857,11.6625036 0.700678571,12.0533424 C0.945464286,12.4450198 1.14342857,11.7631488 1.14342857,10.5294069 C1.14342857,9.29650364 0.945464286,7.97889074 0.700678571,7.58805203 C0.455892857,7.19637461 0.257928571,7.87824558 0.257928571,9.11198751" id="Fill-19" fill="#ECA01F"/>
                <path d="M1.00312857,16.5927746 C1.00312857,17.4574843 1.14195,18.3817424 1.31362857,18.6560004 C1.48530714,18.9310972 1.62412857,18.452194 1.62412857,17.5874843 C1.62412857,16.7219359 1.48530714,15.7985165 1.31362857,15.5234198 C1.14195,15.2491617 1.00312857,15.7272262 1.00312857,16.5927746" id="Fill-21" fill="#ECA01F"/>
            </g>
        </g>
    </g>
</svg>