<?xml version="1.0" encoding="UTF-8"?><svg xmlns="http://www.w3.org/2000/svg" xmlns:xlink="http://www.w3.org/1999/xlink" width="30px" height="50px" viewBox="0 0 30 50" version="1.1">
    <!-- Generator: sketchtool 48.2 (47327) - http://www.bohemiancoding.com/sketch -->
    <title>496F6C98-4BDF-42EA-9D09-C3795631CDD5</title>
    <desc>Created with sketchtool.</desc>
    <defs/>
    <g id="assets" stroke="none" stroke-width="1" fill="none" fill-rule="evenodd" transform="translate(-612.000000, -834.000000)">
        <g id="Мебель" transform="translate(597.000000, 637.000000)">
            <g id="иконки/мебель/кабинет" transform="translate(0.000000, 192.000000)">
                <g id="swivel-chair" transform="translate(15.000000, 5.000000)">
                    <path d="M28.1713867,12.4708008 L27.4335938,12.0419922 L26.6910156,12.4707031 L26.7101563,19.2448242 C26.7152344,21.0326172 25.4535156,23.2186523 23.8977539,24.1169922 L21.8185547,25.3173828 L21.8209961,26.1705078 L22.5587891,26.5993164 L24.6379883,25.3989258 C26.6035156,24.2641602 28.196875,21.5035156 28.1905273,19.2449219 L28.1713867,12.4708008 Z" id="Shape" fill="#ACABB1" fill-rule="nonzero"/>
                    <path d="M24.6356445,24.5457031 L23.8978516,24.1168945 C25.4536133,23.2186523 26.715332,21.0325195 26.7102539,19.2447266 L27.4480469,19.6735352 C27.4532227,21.4613281 26.1916016,23.6474609 24.6356445,24.5457031 Z" id="Shape" fill="#D8D8DA" fill-rule="nonzero"/>
                    <polygon id="Shape" fill="#E0E0E2" fill-rule="nonzero" points="22.556543 25.7460938 21.81875 25.3172852 23.8979492 24.1168945 24.6356445 24.5457031"/>
                    <g id="Group" transform="translate(21.777344, 12.402344)" fill="#C6C5CB" fill-rule="nonzero">
                        <polygon id="Shape" points="0.781640625 14.1969727 0.0438476563 13.7681641 0.04140625 12.9149414 0.779199219 13.34375"/>
                        <polygon id="Shape" points="5.67070312 7.27128906 4.93300781 6.84248047 4.91376953 0.068359375 5.6515625 0.497167969"/>
                    </g>
                    <g id="Group" transform="translate(14.160156, 8.398438)" fill="#ACABB1" fill-rule="nonzero">
                        <path d="M14.0112305,4.07236328 L14.0303711,10.8464844 C14.0368164,13.1049805 12.4433594,15.8657227 10.477832,17.0004883 L8.39863281,18.2008789 L8.39619141,17.3477539 L10.4753906,16.1473633 C12.0311523,15.2491211 13.2928711,13.0629883 13.287793,11.2751953 L13.2686523,4.50107422 L14.0112305,4.07236328 Z" id="Shape"/>
                        <path d="M6.37304687,0.443554688 L5.63525391,0.0147460937 L4.89267578,0.443457031 L4.91181641,7.21757813 C4.91689453,9.00537109 3.65517578,11.1914063 2.09941406,12.0897461 L0.0202148438,13.2901367 L0.02265625,14.1432617 L0.760351563,14.5720703 L2.83955078,13.3716797 C4.80507813,12.2369141 6.3984375,9.47626953 6.39208984,7.21767578 L6.37304687,0.443554688 Z" id="Shape"/>
                    </g>
                    <path d="M16.9973633,20.9169922 L16.2595703,20.4881836 C17.815332,19.5899414 19.0770508,17.4038086 19.0719727,15.6161133 L19.8097656,16.0449219 C19.8149414,17.8326172 18.5532227,20.0186523 16.9973633,20.9169922 Z" id="Shape" fill="#D8D8DA" fill-rule="nonzero"/>
                    <polygon id="Shape" fill="#E0E0E2" fill-rule="nonzero" points="14.9182617 22.1173828 14.1804687 21.6885742 16.259668 20.4881836 16.9973633 20.9169922"/>
                    <g id="Group" transform="translate(14.160156, 8.789062)" fill="#C6C5CB" fill-rule="nonzero">
                        <polygon id="Shape" points="0.760546875 14.1814453 0.0227539063 13.7527344 0.0203125 12.8995117 0.758105469 13.3283203"/>
                        <polygon id="Shape" points="5.64970703 7.25576172 4.91191406 6.82705078 4.89277344 0.0529296875 5.63046875 0.481640625"/>
                    </g>
                    <path d="M20.5332031,8.84199219 L20.5523438,15.6161133 C20.5587891,17.8746094 18.965332,20.6353516 16.9998047,21.7701172 L14.9206055,22.9705078 L14.9181641,22.1173828 L16.9973633,20.9169922 C18.553125,20.01875 19.8148438,17.8326172 19.8097656,16.0449219 L19.790625,9.27080078 L20.5332031,8.84199219 Z" id="Shape" fill="#ACABB1" fill-rule="nonzero"/>
                    <g id="Group" transform="translate(0.195312, 34.375000)" fill="#898890" fill-rule="nonzero">
                        <path d="M2.92324219,2.14511719 C2.92324219,2.75126953 2.49775391,2.996875 1.97285156,2.69375 C1.44794922,2.39072266 1.02246094,1.65380859 1.02246094,1.04765625 C1.02246094,0.441503906 1.44794922,0.195898438 1.97285156,0.499023438 C2.49775391,0.802050781 2.92324219,1.5390625 2.92324219,2.14511719 Z" id="Shape"/>
                        <path d="M25.931543,14.7354492 C25.931543,15.3416016 25.5060547,15.587207 24.9811523,15.284082 C24.45625,14.9810547 24.0307617,14.2441406 24.0307617,13.6379883 C24.0307617,13.0318359 24.45625,12.7862305 24.9811523,13.0893555 C25.5060547,13.3923828 25.931543,14.1293945 25.931543,14.7354492 Z" id="Shape"/>
                        <path d="M1.95351562,13.8491211 C1.95351562,14.4552734 1.52802734,15.1921875 1.003125,15.4952148 C0.478222656,15.7982422 0.052734375,15.5525391 0.052734375,14.946582 C0.052734375,14.3404297 0.478222656,13.6035156 1.003125,13.3004883 C1.52802734,12.9973633 1.95351562,13.2430664 1.95351562,13.8491211 Z" id="Shape"/>
                        <path d="M25.2819336,0.710742188 C25.2819336,1.31689453 24.8564453,2.05380859 24.331543,2.35683594 C23.8066406,2.65986328 23.3811523,2.41416016 23.3811523,1.80820313 C23.3811523,1.20205078 23.8066406,0.465136719 24.331543,0.162109375 C24.8564453,-0.141113281 25.2819336,0.104589844 25.2819336,0.710742188 Z" id="Shape"/>
                    </g>
                    <path d="M13.4485352,38.4935547 L2.50634766,32.1757812 C2.17587891,31.9849609 1.63994141,31.9849609 1.30947266,32.1757812 L1.22021484,32.2273438 C1.04736328,32.3271484 0.965820312,32.459375 0.973828125,32.5902344 C0.973144531,32.6017578 0.973144531,34.3086914 0.973828125,34.3202148 C0.965820313,34.4509766 1.04736328,34.5833008 1.22021484,34.6831055 L12.1625,41.0007813 L13.4486328,40.2582031 L13.4486328,38.4935547 L13.4485352,38.4935547 Z" id="Shape" fill="#C6C5CB" fill-rule="nonzero"/>
                    <path d="M25.3800781,32.5901367 C25.3880859,32.459375 25.306543,32.3271484 25.1336914,32.2272461 L25.0444336,32.1756836 C24.7139648,31.9848633 24.1780273,31.9848633 23.8474609,32.1756836 L12.9051758,38.4933594 L12.9051758,40.2579102 L14.1913086,41.0004883 L25.1335937,34.6828125 C25.3064453,34.5830078 25.3879883,34.4507813 25.3799805,34.3199219 C25.3807617,34.3085938 25.3807617,32.6016602 25.3800781,32.5901367 Z" id="Shape" fill="#ACABB1" fill-rule="nonzero"/>
                    <g id="Group" transform="translate(0.878906, 32.031250)" fill="#E0E0E2" fill-rule="nonzero">
                        <path d="M12.5696289,6.46230469 L11.2834961,7.20488281 L0.341210938,0.887207031 C0.0107421875,0.696386719 0.0107421875,0.387011719 0.341210938,0.196191406 L0.43046875,0.144628906 C0.7609375,-0.0461914063 1.296875,-0.0461914063 1.62734375,0.144628906 L12.5696289,6.46230469 Z" id="Shape"/>
                        <path d="M13.3124023,7.20478516 L12.0262695,6.46220703 L22.9685547,0.14453125 C23.2990234,-0.0462890625 23.8349609,-0.0462890625 24.1654297,0.14453125 L24.2546875,0.19609375 C24.5851563,0.386914063 24.5851563,0.696289063 24.2546875,0.887109375 L13.3124023,7.20478516 Z" id="Shape"/>
                    </g>
                    <path d="M15.5983398,38.9791992 C15.6060547,38.5753906 15.3436523,38.1702148 14.8100586,37.8621094 C13.7580078,37.2546875 12.0523437,37.2546875 11.000293,37.8621094 C10.4666016,38.1703125 10.2042969,38.5754883 10.2119141,38.9791992 C10.2117187,38.9907227 10.2117187,39.0022461 10.2119141,39.0137695 C10.2117187,39.025293 10.2117187,39.0368164 10.2119141,39.0483398 C10.2117187,39.0598633 10.2117187,39.0713867 10.2119141,39.0829102 C10.2117187,39.0944336 10.2117187,39.105957 10.2119141,39.1174805 C10.2117187,39.1290039 10.2117187,39.1405273 10.2119141,39.1520508 C10.2117187,39.1635742 10.2117187,39.1750977 10.2119141,39.1866211 C10.2117187,39.1981445 10.2117187,39.209668 10.2119141,39.2211914 C10.2117187,39.2327148 10.2117187,39.2442383 10.2119141,39.2557617 C10.2117187,39.2672852 10.2117187,39.2788086 10.2119141,39.290332 C10.2117187,39.3018555 10.2117187,39.3133789 10.2119141,39.3249023 C10.2117187,39.3364258 10.2117187,39.3479492 10.2119141,39.3594727 C10.2117187,39.3709961 10.2117187,39.3825195 10.2119141,39.394043 C10.2117187,39.4055664 10.2117187,39.4170898 10.2119141,39.4286133 C10.2117187,39.4401367 10.2117187,39.4516602 10.2119141,39.4631836 C10.2117187,39.474707 10.2117187,39.4862305 10.2119141,39.4977539 C10.2117187,39.5092773 10.2117187,39.5208008 10.2119141,39.5323242 C10.2117187,39.5438477 10.2117187,39.5553711 10.2119141,39.5668945 C10.2117187,39.578418 10.2117187,39.5899414 10.2119141,39.6014648 C10.2117187,39.6129883 10.2117187,39.6245117 10.2119141,39.6360352 C10.2117187,39.6475586 10.2117187,39.659082 10.2119141,39.6706055 C10.2117187,39.6821289 10.2117187,39.6936523 10.2119141,39.7051758 C10.2117187,39.7166992 10.2117187,39.7282227 10.2119141,39.7397461 C10.2117187,39.7512695 10.2117187,39.762793 10.2119141,39.7743164 C10.2117187,39.7858398 10.2117187,39.7973633 10.2119141,39.8088867 C10.2117187,39.8204102 10.2117187,39.8319336 10.2119141,39.843457 C10.2117187,39.8549805 10.2117187,39.8665039 10.2119141,39.8780273 C10.2117187,39.8895508 10.2117187,39.9010742 10.2119141,39.9125977 C10.2117187,39.9241211 10.2117187,39.9356445 10.2119141,39.947168 C10.2117187,39.9586914 10.2117187,39.9702148 10.2119141,39.9817383 C10.2117187,39.9932617 10.2117187,40.0047852 10.2119141,40.0163086 C10.2117187,40.027832 10.2117187,40.0393555 10.2119141,40.0508789 C10.2117187,40.0624023 10.2117187,40.0739258 10.2119141,40.0854492 C10.2117187,40.0969727 10.2117187,40.1084961 10.2119141,40.1200195 C10.2117187,40.131543 10.2117187,40.1430664 10.2119141,40.1545898 C10.2117187,40.1661133 10.2117187,40.1776367 10.2119141,40.1891602 C10.2117187,40.2006836 10.2117187,40.212207 10.2119141,40.2237305 C10.2117187,40.2352539 10.2117187,40.2467773 10.2119141,40.2583008 C10.2117187,40.2698242 10.2117187,40.2813477 10.2119141,40.2928711 C10.2117187,40.3043945 10.2117187,40.315918 10.2119141,40.3274414 C10.2117187,40.3389648 10.2117187,40.3504883 10.2119141,40.3620117 C10.2117187,40.3735352 10.2117187,40.3850586 10.2119141,40.396582 C10.2117187,40.4081055 10.2117187,40.4196289 10.2119141,40.4311523 C10.2117187,40.4426758 10.2117187,40.4541992 10.2119141,40.4657227 C10.2117187,40.4772461 10.2117187,40.4887695 10.2119141,40.500293 C10.2117187,40.5118164 10.2117187,40.5233398 10.2119141,40.5348633 C10.2117187,40.5463867 10.2117187,40.5579102 10.2119141,40.5694336 C10.2117187,40.580957 10.2117187,40.5924805 10.2119141,40.6040039 C10.2117187,40.6155273 10.2117187,40.6270508 10.2119141,40.6385742 C10.2117187,40.6500977 10.2117187,40.6616211 10.2119141,40.6731445 C10.2117187,40.684668 10.2117187,40.6961914 10.2119141,40.7077148 C10.2041992,41.1115234 10.4666016,41.5166992 11.000293,41.8248047 C12.0523437,42.4322266 13.7580078,42.4322266 14.8100586,41.8248047 C15.34375,41.5166992 15.6060547,41.1115234 15.5983398,40.7077148 C15.5985352,40.6961914 15.5985352,40.684668 15.5983398,40.6731445 C15.5985352,40.6616211 15.5985352,40.6500977 15.5983398,40.6385742 C15.5985352,40.6270508 15.5985352,40.6155273 15.5983398,40.6040039 C15.5985352,40.5924805 15.5985352,40.580957 15.5983398,40.5694336 C15.5985352,40.5579102 15.5985352,40.5463867 15.5983398,40.5348633 C15.5985352,40.5233398 15.5985352,40.5118164 15.5983398,40.500293 C15.5985352,40.4887695 15.5985352,40.4772461 15.5983398,40.4657227 C15.5985352,40.4541992 15.5985352,40.4426758 15.5983398,40.4311523 C15.5985352,40.4196289 15.5985352,40.4081055 15.5983398,40.396582 C15.5985352,40.3850586 15.5985352,40.3735352 15.5983398,40.3620117 C15.5985352,40.3504883 15.5985352,40.3389648 15.5983398,40.3274414 C15.5985352,40.315918 15.5985352,40.3043945 15.5983398,40.2928711 C15.5985352,40.2813477 15.5985352,40.2698242 15.5983398,40.2583008 C15.5985352,40.2467773 15.5985352,40.2352539 15.5983398,40.2237305 C15.5985352,40.212207 15.5985352,40.2006836 15.5983398,40.1891602 C15.5985352,40.1776367 15.5985352,40.1661133 15.5983398,40.1545898 C15.5985352,40.1430664 15.5985352,40.131543 15.5983398,40.1200195 C15.5985352,40.1084961 15.5985352,40.0969727 15.5983398,40.0854492 C15.5985352,40.0739258 15.5985352,40.0624023 15.5983398,40.0508789 C15.5985352,40.0393555 15.5985352,40.027832 15.5983398,40.0163086 C15.5985352,40.0047852 15.5985352,39.9932617 15.5983398,39.9817383 C15.5985352,39.9702148 15.5985352,39.9586914 15.5983398,39.947168 C15.5985352,39.9356445 15.5985352,39.9241211 15.5983398,39.9125977 C15.5985352,39.9010742 15.5985352,39.8895508 15.5983398,39.8780273 C15.5985352,39.8665039 15.5985352,39.8549805 15.5983398,39.843457 C15.5985352,39.8319336 15.5985352,39.8204102 15.5983398,39.8088867 C15.5985352,39.7973633 15.5985352,39.7858398 15.5983398,39.7743164 C15.5985352,39.762793 15.5985352,39.7512695 15.5983398,39.7397461 C15.5985352,39.7282227 15.5985352,39.7166992 15.5983398,39.7051758 C15.5985352,39.6936523 15.5985352,39.6821289 15.5983398,39.6706055 C15.5985352,39.659082 15.5985352,39.6475586 15.5983398,39.6360352 C15.5985352,39.6245117 15.5985352,39.6129883 15.5983398,39.6014648 C15.5985352,39.5899414 15.5985352,39.578418 15.5983398,39.5668945 C15.5985352,39.5553711 15.5985352,39.5438477 15.5983398,39.5323242 C15.5985352,39.5208008 15.5985352,39.5092773 15.5983398,39.4977539 C15.5985352,39.4862305 15.5985352,39.474707 15.5983398,39.4631836 C15.5985352,39.4516602 15.5985352,39.4401367 15.5983398,39.4286133 C15.5985352,39.4170898 15.5985352,39.4055664 15.5983398,39.394043 C15.5985352,39.3825195 15.5985352,39.3709961 15.5983398,39.3594727 C15.5985352,39.3479492 15.5985352,39.3364258 15.5983398,39.3249023 C15.5985352,39.3133789 15.5985352,39.3018555 15.5983398,39.290332 C15.5985352,39.2788086 15.5985352,39.2672852 15.5983398,39.2557617 C15.5985352,39.2442383 15.5985352,39.2327148 15.5983398,39.2211914 C15.5985352,39.209668 15.5985352,39.1981445 15.5983398,39.1866211 C15.5985352,39.1750977 15.5985352,39.1635742 15.5983398,39.1520508 C15.5985352,39.1405273 15.5985352,39.1290039 15.5983398,39.1174805 C15.5985352,39.105957 15.5985352,39.0944336 15.5983398,39.0829102 C15.5985352,39.0713867 15.5985352,39.0598633 15.5983398,39.0483398 C15.5985352,39.0368164 15.5985352,39.025293 15.5983398,39.0137695 C15.5985352,39.0023438 15.5985352,38.9908203 15.5983398,38.9791992 Z" id="Shape" fill="#3E3D43" fill-rule="nonzero"/>
                    <path d="M12.4790039,40.1936523 L11.1928711,39.4510742 L0.250585938,45.76875 C0.077734375,45.8685547 -0.00390625,46.0007813 0.00419921875,46.1316406 C0.003515625,46.1431641 0.003515625,47.8500977 0.00419921875,47.8616211 C-0.00380859375,47.9923828 0.077734375,48.124707 0.250585938,48.2245117 L0.33984375,48.2760742 C0.6703125,48.4668945 1.20625,48.4668945 1.53671875,48.2760742 L12.4790039,41.9583984 L12.4790039,40.19375 L12.4790039,40.1936523 Z" id="Shape" fill="#ACABB1" fill-rule="nonzero"/>
                    <path d="M0.33984375,46.5112305 L0.250585938,46.459668 C-0.0798828125,46.2688477 -0.0798828125,45.9594727 0.250585938,45.7686523 L11.1928711,39.4509766 L12.4790039,40.1935547 L1.53671875,46.5112305 C1.20625,46.7020508 0.670410156,46.7020508 0.33984375,46.5112305 Z" id="Shape" fill="#E0E0E2" fill-rule="nonzero"/>
                    <path d="M13.6101562,41.9582031 L24.5524414,48.2758789 C24.8829102,48.4666992 25.4188477,48.4666992 25.7494141,48.2758789 L25.8386719,48.2243164 C26.0115234,48.1245117 26.0931641,47.9922852 26.0850586,47.8614258 L26.0850586,46.1314453 C26.0929688,46.0006836 26.0115234,45.868457 25.8386719,45.7685547 L14.8963867,39.4508789 L13.6102539,40.193457 L13.6102539,41.9581055 L13.6101562,41.9581055 L13.6101562,41.9582031 Z" id="Shape" fill="#C6C5CB" fill-rule="nonzero"/>
                    <path d="M25.8383789,46.4597656 L25.7491211,46.5113281 C25.4186523,46.7021484 24.8827148,46.7021484 24.5521484,46.5113281 L13.6098633,40.1936523 L14.8959961,39.4510742 L25.8382812,45.76875 C26.169043,45.9595703 26.169043,46.2689453 25.8383789,46.4597656 Z" id="Shape" fill="#E0E0E2" fill-rule="nonzero"/>
                    <path d="M14.8099609,37.4901367 C13.7579102,36.8827148 12.0522461,36.8827148 11.0001953,37.4901367 C10.4665039,37.7983398 10.2041992,38.2035156 10.2118164,38.6072266 C10.2117187,38.6119141 10.2118164,38.6166992 10.2118164,38.6213867 C10.2118164,38.6282227 10.2117187,38.6349609 10.2118164,38.6417969 C10.2117187,38.6464844 10.2118164,38.6512695 10.2118164,38.655957 C10.2118164,38.662793 10.2117187,38.6695313 10.2118164,38.6763672 C10.2117187,38.6810547 10.2118164,38.6858398 10.2118164,38.6905273 C10.2118164,38.6973633 10.2117187,38.7041016 10.2118164,38.7109375 C10.2117187,38.715625 10.2118164,38.7204102 10.2118164,38.7250977 C10.2118164,38.7319336 10.2117187,38.7386719 10.2118164,38.7455078 C10.2117187,38.7501953 10.2118164,38.7549805 10.2118164,38.759668 C10.2118164,38.7665039 10.2117187,38.7732422 10.2118164,38.7800781 C10.2117187,38.7847656 10.2118164,38.7895508 10.2118164,38.7942383 C10.2118164,38.8010742 10.2117187,38.8078125 10.2118164,38.8146484 C10.2117187,38.8193359 10.2118164,38.8241211 10.2118164,38.8288086 C10.2118164,38.8356445 10.2117187,38.8423828 10.2118164,38.8492187 C10.2117187,38.8539062 10.2118164,38.8586914 10.2118164,38.8633789 C10.2118164,38.8702148 10.2117187,38.8769531 10.2118164,38.8837891 C10.2117187,38.8884766 10.2118164,38.8932617 10.2118164,38.8979492 C10.2118164,38.9047852 10.2117187,38.9115234 10.2118164,38.9183594 C10.2117187,38.9230469 10.2118164,38.927832 10.2118164,38.9325195 C10.2118164,38.9393555 10.2117187,38.9460937 10.2118164,38.9529297 C10.2117187,38.9576172 10.2118164,38.9624023 10.2118164,38.9670898 C10.2118164,38.9739258 10.2117187,38.9806641 10.2118164,38.9875 C10.2117187,38.9921875 10.2118164,38.9969727 10.2118164,39.0016602 C10.2118164,39.0084961 10.2117187,39.0152344 10.2118164,39.0220703 C10.2117187,39.0267578 10.2118164,39.031543 10.2118164,39.0362305 C10.2118164,39.0430664 10.2117187,39.0498047 10.2118164,39.0566406 C10.2117187,39.0613281 10.2118164,39.0661133 10.2118164,39.0708008 C10.2118164,39.0776367 10.2117187,39.084375 10.2118164,39.0912109 C10.2117187,39.0958984 10.2118164,39.1006836 10.2118164,39.1053711 C10.2118164,39.112207 10.2117187,39.1189453 10.2118164,39.1257812 C10.2117187,39.1304687 10.2118164,39.1352539 10.2118164,39.1399414 C10.2118164,39.1467773 10.2117187,39.1535156 10.2118164,39.1603516 C10.2117187,39.1650391 10.2118164,39.1698242 10.2118164,39.1745117 C10.2041016,39.5783203 10.4665039,39.9834961 11.0001953,40.2916016 C12.0522461,40.8990234 13.7579102,40.8990234 14.8099609,40.2916016 C15.3436523,39.9834961 15.605957,39.5783203 15.5982422,39.1745117 C15.5982422,39.1698242 15.5983398,39.1650391 15.5982422,39.1603516 C15.5983398,39.1535156 15.5982422,39.1467773 15.5982422,39.1399414 C15.5982422,39.1352539 15.5983398,39.1304687 15.5982422,39.1257812 C15.5983398,39.1189453 15.5982422,39.112207 15.5982422,39.1053711 C15.5982422,39.1006836 15.5983398,39.0958984 15.5982422,39.0912109 C15.5983398,39.084375 15.5982422,39.0776367 15.5982422,39.0708008 C15.5982422,39.0661133 15.5983398,39.0613281 15.5982422,39.0566406 C15.5983398,39.0498047 15.5982422,39.0430664 15.5982422,39.0362305 C15.5982422,39.031543 15.5983398,39.0267578 15.5982422,39.0220703 C15.5983398,39.0152344 15.5982422,39.0084961 15.5982422,39.0016602 C15.5982422,38.9969727 15.5983398,38.9921875 15.5982422,38.9875 C15.5983398,38.9806641 15.5982422,38.9739258 15.5982422,38.9670898 C15.5982422,38.9624023 15.5983398,38.9576172 15.5982422,38.9529297 C15.5983398,38.9460937 15.5982422,38.9393555 15.5982422,38.9325195 C15.5982422,38.927832 15.5983398,38.9230469 15.5982422,38.9183594 C15.5983398,38.9115234 15.5982422,38.9047852 15.5982422,38.8979492 C15.5982422,38.8932617 15.5983398,38.8884766 15.5982422,38.8837891 C15.5983398,38.8769531 15.5982422,38.8702148 15.5982422,38.8633789 C15.5982422,38.8586914 15.5983398,38.8539062 15.5982422,38.8492187 C15.5983398,38.8423828 15.5982422,38.8356445 15.5982422,38.8288086 C15.5982422,38.8241211 15.5983398,38.8193359 15.5982422,38.8146484 C15.5983398,38.8078125 15.5982422,38.8010742 15.5982422,38.7942383 C15.5982422,38.7895508 15.5983398,38.7847656 15.5982422,38.7800781 C15.5983398,38.7732422 15.5982422,38.7665039 15.5982422,38.759668 C15.5982422,38.7549805 15.5983398,38.7501953 15.5982422,38.7455078 C15.5983398,38.7386719 15.5982422,38.7319336 15.5982422,38.7250977 C15.5982422,38.7204102 15.5983398,38.715625 15.5982422,38.7109375 C15.5983398,38.7041016 15.5982422,38.6973633 15.5982422,38.6905273 C15.5982422,38.6858398 15.5983398,38.6810547 15.5982422,38.6763672 C15.5983398,38.6695313 15.5982422,38.662793 15.5982422,38.655957 C15.5982422,38.6512695 15.5983398,38.6464844 15.5982422,38.6417969 C15.5983398,38.6349609 15.5982422,38.6282227 15.5982422,38.6213867 C15.5982422,38.6166992 15.5983398,38.6119141 15.5982422,38.6072266 C15.605957,38.2035156 15.3436523,37.7982422 14.8099609,37.4901367 Z" id="Shape" fill="#3E3D43" fill-rule="nonzero"/>
                    <path d="M14.8099609,37.4901367 C15.8620117,38.0975586 15.8620117,39.0823242 14.8099609,39.6896484 C13.7579102,40.2970703 12.0522461,40.2970703 11.0001953,39.6896484 C9.94814453,39.0822266 9.94814453,38.0974609 11.0001953,37.4901367 C12.0523437,36.8827148 13.7580078,36.8827148 14.8099609,37.4901367 Z" id="Shape" fill="#57565C" fill-rule="nonzero"/>
                    <path d="M14.505957,37.0030273 C14.5105469,36.7629883 14.3545898,36.5222656 14.0374023,36.3390625 C13.4121094,35.9780273 12.3983398,35.9780273 11.7730469,36.3390625 C11.455957,36.5222656 11.2999023,36.7629883 11.3044922,37.0030273 C11.3043945,37.0098633 11.3043945,37.0166992 11.3044922,37.0236328 C11.3043945,37.0304687 11.3043945,37.0373047 11.3044922,37.0441406 C11.3043945,37.0509766 11.3043945,37.0578125 11.3044922,37.0647461 C11.3043945,37.071582 11.3043945,37.078418 11.3044922,37.0852539 C11.3043945,37.0920898 11.3043945,37.0989258 11.3044922,37.1058594 C11.3043945,37.1126953 11.3043945,37.1195313 11.3044922,37.1264648 C11.3043945,37.1333008 11.3043945,37.1401367 11.3044922,37.1470703 C11.3043945,37.1539062 11.3043945,37.1607422 11.3044922,37.1675781 C11.3043945,37.1744141 11.3043945,37.18125 11.3044922,37.1881836 C11.3043945,37.1950195 11.3043945,37.2018555 11.3044922,37.2086914 C11.3043945,37.2155273 11.3043945,37.2223633 11.3044922,37.2292969 C11.3043945,37.2361328 11.3043945,37.2429688 11.3044922,37.2499023 C11.3043945,37.2567383 11.3043945,37.2635742 11.3044922,37.2704102 C11.3043945,37.2772461 11.3043945,37.284082 11.3044922,37.2910156 C11.3043945,37.2978516 11.3043945,37.3046875 11.3044922,37.3116211 C11.3043945,37.318457 11.3043945,37.325293 11.3044922,37.3322266 C11.3043945,37.3390625 11.3043945,37.3458984 11.3044922,37.3527344 C11.3043945,37.3595703 11.3043945,37.3664062 11.3044922,37.3733398 C11.3043945,37.3801758 11.3043945,37.3870117 11.3044922,37.3939453 C11.3043945,37.4007813 11.3043945,37.4076172 11.3044922,37.4144531 C11.3043945,37.4212891 11.3043945,37.428125 11.3044922,37.4350586 C11.3043945,37.4418945 11.3043945,37.4487305 11.3044922,37.4556641 C11.3043945,37.4625 11.3043945,37.4693359 11.3044922,37.4761719 C11.3043945,37.4830078 11.3043945,37.4898437 11.3044922,37.4967773 C11.3043945,37.5036133 11.3043945,37.5104492 11.3044922,37.5172852 C11.3043945,37.5241211 11.3043945,37.530957 11.3044922,37.5378906 C11.3043945,37.5447266 11.3043945,37.5515625 11.3044922,37.5584961 C11.3043945,37.565332 11.3043945,37.572168 11.3044922,37.5790039 C11.3043945,37.5858398 11.3043945,37.5926758 11.3044922,37.5996094 C11.3043945,37.6064453 11.3043945,37.6132812 11.3044922,37.6202148 C11.3043945,37.6270508 11.3043945,37.6338867 11.3044922,37.6407227 C11.3043945,37.6475586 11.3043945,37.6543945 11.3044922,37.6613281 C11.3043945,37.6681641 11.3043945,37.675 11.3044922,37.6819336 C11.3043945,37.6887695 11.3043945,37.6956055 11.3044922,37.7024414 C11.3043945,37.7092773 11.3043945,37.7161133 11.3044922,37.7230469 C11.3043945,37.7298828 11.3043945,37.7367188 11.3044922,37.7435547 C11.3043945,37.7503906 11.3043945,37.7572266 11.3044922,37.7641602 C11.3043945,37.7709961 11.3043945,37.777832 11.3044922,37.7847656 C11.3043945,37.7916016 11.3043945,37.7984375 11.3044922,37.8053711 C11.3043945,37.812207 11.3043945,37.819043 11.3044922,37.8259766 C11.3043945,37.8328125 11.3043945,37.8396484 11.3044922,37.8464844 C11.3043945,37.8533203 11.3043945,37.8601563 11.3044922,37.8670898 C11.3043945,37.8739258 11.3043945,37.8807617 11.3044922,37.8875977 C11.3043945,37.8944336 11.3043945,37.9012695 11.3044922,37.9082031 C11.3043945,37.9150391 11.3043945,37.921875 11.3044922,37.9288086 C11.3043945,37.9356445 11.3043945,37.9424805 11.3044922,37.9493164 C11.3043945,37.9561523 11.3043945,37.9629883 11.3044922,37.9699219 C11.3043945,37.9767578 11.3043945,37.9835938 11.3044922,37.9905273 C11.3043945,37.9973633 11.3043945,38.0041992 11.3044922,38.0110352 C11.3043945,38.0178711 11.3043945,38.024707 11.3044922,38.0316406 C11.2999023,38.2716797 11.4558594,38.5124023 11.7730469,38.6956055 C12.3983398,39.0566406 13.4121094,39.0566406 14.0374023,38.6956055 C14.3544922,38.5124023 14.5105469,38.2716797 14.505957,38.0316406 C14.5060547,38.0248047 14.5060547,38.0179688 14.505957,38.0110352 C14.5060547,38.0041992 14.5060547,37.9973633 14.505957,37.9905273 C14.5060547,37.9836914 14.5060547,37.9768555 14.505957,37.9699219 C14.5060547,37.9630859 14.5060547,37.95625 14.505957,37.9493164 C14.5060547,37.9424805 14.5060547,37.9356445 14.505957,37.9288086 C14.5060547,37.9219727 14.5060547,37.9151367 14.505957,37.9082031 C14.5060547,37.9013672 14.5060547,37.8945313 14.505957,37.8875977 C14.5060547,37.8807617 14.5060547,37.8739258 14.505957,37.8670898 C14.5060547,37.8602539 14.5060547,37.853418 14.505957,37.8464844 C14.5060547,37.8396484 14.5060547,37.8328125 14.505957,37.8259766 C14.5060547,37.8191406 14.5060547,37.8123047 14.505957,37.8053711 C14.5060547,37.7985352 14.5060547,37.7916992 14.505957,37.7847656 C14.5060547,37.7779297 14.5060547,37.7710938 14.505957,37.7641602 C14.5060547,37.7573242 14.5060547,37.7504883 14.505957,37.7435547 C14.5060547,37.7367188 14.5060547,37.7298828 14.505957,37.7230469 C14.5060547,37.7162109 14.5060547,37.709375 14.505957,37.7024414 C14.5060547,37.6956055 14.5060547,37.6887695 14.505957,37.6819336 C14.5060547,37.6750977 14.5060547,37.6682617 14.505957,37.6613281 C14.5060547,37.6544922 14.5060547,37.6476563 14.505957,37.6407227 C14.5060547,37.6338867 14.5060547,37.6270508 14.505957,37.6202148 C14.5060547,37.6133789 14.5060547,37.606543 14.505957,37.5996094 C14.5060547,37.5927734 14.5060547,37.5859375 14.505957,37.5790039 C14.5060547,37.572168 14.5060547,37.565332 14.505957,37.5584961 C14.5060547,37.5516602 14.5060547,37.5448242 14.505957,37.5378906 C14.5060547,37.5310547 14.5060547,37.5242188 14.505957,37.5172852 C14.5060547,37.5104492 14.5060547,37.5036133 14.505957,37.4967773 C14.5060547,37.4899414 14.5060547,37.4831055 14.505957,37.4761719 C14.5060547,37.4693359 14.5060547,37.4625 14.505957,37.4556641 C14.5060547,37.4488281 14.5060547,37.4419922 14.505957,37.4350586 C14.5060547,37.4282227 14.5060547,37.4213867 14.505957,37.4144531 C14.5060547,37.4076172 14.5060547,37.4007813 14.505957,37.3939453 C14.5060547,37.3871094 14.5060547,37.3802734 14.505957,37.3733398 C14.5060547,37.3665039 14.5060547,37.359668 14.505957,37.3527344 C14.5060547,37.3458984 14.5060547,37.3390625 14.505957,37.3322266 C14.5060547,37.3253906 14.5060547,37.3185547 14.505957,37.3116211 C14.5060547,37.3047852 14.5060547,37.2979492 14.505957,37.2910156 C14.5060547,37.2841797 14.5060547,37.2773438 14.505957,37.2704102 C14.5060547,37.2635742 14.5060547,37.2567383 14.505957,37.2499023 C14.5060547,37.2430664 14.5060547,37.2362305 14.505957,37.2292969 C14.5060547,37.2224609 14.5060547,37.215625 14.505957,37.2086914 C14.5060547,37.2018555 14.5060547,37.1950195 14.505957,37.1881836 C14.5060547,37.1813477 14.5060547,37.1745117 14.505957,37.1675781 C14.5060547,37.1607422 14.5060547,37.1539062 14.505957,37.1470703 C14.5060547,37.1402344 14.5060547,37.1333984 14.505957,37.1264648 C14.5060547,37.1196289 14.5060547,37.112793 14.505957,37.1058594 C14.5060547,37.0990234 14.5060547,37.0921875 14.505957,37.0852539 C14.5060547,37.078418 14.5060547,37.071582 14.505957,37.0647461 C14.5060547,37.0579102 14.5060547,37.0510742 14.505957,37.0441406 C14.5060547,37.0373047 14.5060547,37.0304687 14.505957,37.0236328 C14.5060547,37.0167969 14.5060547,37.0098633 14.505957,37.0030273 Z" id="Shape" fill="#3E3D43" fill-rule="nonzero"/>
                    <path d="M14.0373047,36.2469727 C14.6625977,36.6080078 14.6625977,37.1932617 14.0373047,37.5543945 C13.4120117,37.9154297 12.3982422,37.9154297 11.7729492,37.5543945 C11.1476563,37.1933594 11.1476563,36.6081055 11.7729492,36.2469727 C12.3982422,35.8859375 13.4120117,35.8859375 14.0373047,36.2469727 Z" id="Shape" fill="#57565C" fill-rule="nonzero"/>
                    <path d="M14.1803711,33.5901367 C14.184082,33.3989258 14.0597656,33.2071289 13.8071289,33.0611328 C13.3089844,32.7734375 12.5013672,32.7734375 12.0032227,33.0611328 C11.7505859,33.2070313 11.6262695,33.3989258 11.6299805,33.5901367 C11.6298828,33.5956055 11.6298828,33.6010742 11.6299805,33.606543 C11.6298828,33.6120117 11.6298828,33.6174805 11.6299805,33.6229492 C11.6298828,33.628418 11.6298828,33.6338867 11.6299805,33.6393555 C11.6298828,33.6448242 11.6298828,33.650293 11.6299805,33.6557617 C11.6298828,33.6612305 11.6298828,33.6666992 11.6299805,33.672168 C11.6298828,33.6776367 11.6298828,33.6831055 11.6299805,33.6885742 C11.6298828,33.694043 11.6298828,33.6995117 11.6299805,33.7049805 C11.6298828,33.7104492 11.6298828,33.715918 11.6299805,33.7213867 C11.6298828,33.7268555 11.6298828,33.7323242 11.6299805,33.737793 C11.6298828,33.7432617 11.6298828,33.7487305 11.6299805,33.7541992 C11.6298828,33.759668 11.6298828,33.7651367 11.6299805,33.7706055 C11.6298828,33.7760742 11.6298828,33.781543 11.6299805,33.7870117 C11.6298828,33.7924805 11.6298828,33.7979492 11.6299805,33.803418 C11.6298828,33.8088867 11.6298828,33.8143555 11.6299805,33.8198242 C11.6298828,33.825293 11.6298828,33.8307617 11.6299805,33.8362305 C11.6298828,33.8416992 11.6298828,33.847168 11.6299805,33.8526367 C11.6298828,33.8581055 11.6298828,33.8635742 11.6299805,33.869043 C11.6298828,33.8745117 11.6298828,33.8799805 11.6299805,33.8854492 C11.6298828,33.890918 11.6298828,33.8963867 11.6299805,33.9018555 C11.6298828,33.9073242 11.6298828,33.912793 11.6299805,33.9182617 C11.6298828,33.9237305 11.6298828,33.9291992 11.6299805,33.934668 C11.6298828,33.9401367 11.6298828,33.9456055 11.6299805,33.9510742 C11.6298828,33.9564453 11.6298828,33.9620117 11.6299805,33.9673828 C11.6298828,33.9728516 11.6298828,33.9783203 11.6299805,33.9837891 C11.6298828,33.9892578 11.6298828,36.2473633 11.6299805,36.252832 C11.6298828,36.2583008 11.6298828,36.2637695 11.6299805,36.2692383 C11.6298828,36.274707 11.6298828,36.2801758 11.6299805,36.2856445 C11.6298828,36.2910156 11.6298828,36.296582 11.6299805,36.3020508 C11.6298828,36.3075195 11.6298828,36.3129883 11.6299805,36.318457 C11.6298828,36.3239258 11.6298828,36.3293945 11.6299805,36.3348633 C11.6298828,36.340332 11.6298828,36.3458008 11.6299805,36.3512695 C11.6298828,36.3567383 11.6298828,36.362207 11.6299805,36.3676758 C11.6298828,36.3730469 11.6298828,36.3786133 11.6299805,36.384082 C11.6298828,36.3895508 11.6298828,36.3950195 11.6299805,36.4004883 C11.6298828,36.405957 11.6298828,36.4114258 11.6299805,36.4168945 C11.6298828,36.4222656 11.6298828,36.427832 11.6299805,36.4332031 C11.6298828,36.4386719 11.6298828,36.4441406 11.6299805,36.4496094 C11.6298828,36.4549805 11.6298828,36.4605469 11.6299805,36.4660156 C11.6298828,36.4714844 11.6298828,36.4769531 11.6299805,36.4824219 C11.6298828,36.4878906 11.6298828,36.4933594 11.6299805,36.4988281 C11.6298828,36.5041992 11.6298828,36.5097656 11.6299805,36.5151367 C11.6298828,36.5206055 11.6298828,36.5260742 11.6299805,36.531543 C11.6298828,36.5370117 11.6298828,36.5424805 11.6299805,36.5479492 C11.6298828,36.553418 11.6298828,36.5588867 11.6299805,36.5643555 C11.6298828,36.5698242 11.6298828,36.575293 11.6299805,36.5807617 C11.6298828,36.5861328 11.6298828,36.5916992 11.6299805,36.597168 C11.6298828,36.6026367 11.6298828,36.6081055 11.6299805,36.6135742 C11.6298828,36.619043 11.6298828,36.6245117 11.6299805,36.6299805 C11.6298828,36.6354492 11.6298828,36.640918 11.6299805,36.6463867 C11.6298828,36.6518555 11.6298828,36.6573242 11.6299805,36.662793 C11.6262695,36.8540039 11.7505859,37.0458008 12.0032227,37.1917969 C12.5013672,37.4794922 13.3089844,37.4794922 13.8071289,37.1917969 C14.0597656,37.0458984 14.184082,36.8540039 14.1803711,36.662793 C14.1804687,36.6574219 14.1804687,36.6518555 14.1803711,36.6463867 C14.1804687,36.640918 14.1804687,36.6354492 14.1803711,36.6299805 C14.1804687,36.6245117 14.1804687,36.619043 14.1803711,36.6135742 C14.1804687,36.6081055 14.1804687,36.6026367 14.1803711,36.597168 C14.1804687,36.5916992 14.1804687,36.5862305 14.1803711,36.5807617 C14.1804687,36.575293 14.1804687,36.5698242 14.1803711,36.5643555 C14.1804687,36.5588867 14.1804687,36.553418 14.1803711,36.5479492 C14.1804687,36.5424805 14.1804687,36.5370117 14.1803711,36.531543 C14.1804687,36.5260742 14.1804687,36.5206055 14.1803711,36.5151367 C14.1804687,36.5097656 14.1804687,36.5041992 14.1803711,36.4988281 C14.1804687,36.4933594 14.1804687,36.4878906 14.1803711,36.4824219 C14.1804687,36.4769531 14.1804687,36.4714844 14.1803711,36.4660156 C14.1804687,36.4605469 14.1804687,36.4550781 14.1803711,36.4496094 C14.1804687,36.4441406 14.1804687,36.4386719 14.1803711,36.4332031 C14.1804687,36.427832 14.1804687,36.4222656 14.1803711,36.4168945 C14.1804687,36.4114258 14.1804687,36.405957 14.1803711,36.4004883 C14.1804687,36.3950195 14.1804687,36.3895508 14.1803711,36.384082 C14.1804687,36.3786133 14.1804687,36.3731445 14.1803711,36.3676758 C14.1804687,36.362207 14.1804687,36.3567383 14.1803711,36.3512695 C14.1804687,36.3458984 14.1804687,36.340332 14.1803711,36.3348633 C14.1804687,36.3293945 14.1804687,36.3239258 14.1803711,36.318457 C14.1804687,36.3130859 14.1804687,36.3075195 14.1803711,36.3020508 C14.1804687,36.296582 14.1804687,36.2911133 14.1803711,36.2856445 C14.1804687,36.2801758 14.1804687,36.274707 14.1803711,36.2692383 C14.1804687,36.2638672 14.1804687,36.2583008 14.1803711,36.252832 C14.1804687,36.2473633 14.1804687,36.2418945 14.1803711,36.2364258 C14.1804687,36.2310547 14.1804687,36.2254883 14.1803711,36.2200195 C14.1804687,36.2145508 14.1804687,36.209082 14.1803711,36.2036133 C14.1804687,36.1981445 14.1804687,36.1926758 14.1803711,36.187207 C14.1804687,36.1818359 14.1804687,36.1762695 14.1803711,36.1708008 C14.1804687,36.165332 14.1804687,36.1598633 14.1803711,36.1543945 C14.1804687,36.1489258 14.1804687,36.143457 14.1803711,36.1379883 C14.1804687,36.1325195 14.1804687,36.1270508 14.1803711,36.121582 C14.1804687,36.1161133 14.1804687,36.1106445 14.1803711,36.1051758 C14.1804687,36.099707 14.1804687,33.8416016 14.1803711,33.8361328 C14.1804687,33.8306641 14.1804687,33.8251953 14.1803711,33.8197266 C14.1804687,33.8142578 14.1804687,33.8087891 14.1803711,33.8033203 C14.1804687,33.7978516 14.1804687,33.7923828 14.1803711,33.7869141 C14.1804687,33.7814453 14.1804687,33.7759766 14.1803711,33.7705078 C14.1804687,33.7650391 14.1804687,33.7595703 14.1803711,33.7541016 C14.1804687,33.7486328 14.1804687,33.7431641 14.1803711,33.7376953 C14.1804687,33.7322266 14.1804687,33.7267578 14.1803711,33.7212891 C14.1804687,33.7158203 14.1804687,33.7103516 14.1803711,33.7048828 C14.1804687,33.6994141 14.1804687,33.6939453 14.1803711,33.6884766 C14.1804687,33.6830078 14.1804687,33.6775391 14.1803711,33.6720703 C14.1804687,33.6666016 14.1804687,33.6611328 14.1803711,33.6556641 C14.1804687,33.6501953 14.1804687,33.6447266 14.1803711,33.6392578 C14.1804687,33.6337891 14.1804687,33.6283203 14.1803711,33.6228516 C14.1804687,33.6174805 14.1804687,33.6119141 14.1803711,33.6064453 C14.1804687,33.6010742 14.1804687,33.5956055 14.1803711,33.5901367 Z" id="Shape" fill="#3E3D43" fill-rule="nonzero"/>
                    <path d="M25.2427734,26.1279297 C25.2540039,25.7405273 25.0042969,25.3510742 24.4922852,25.0554688 L14.7069336,19.4057617 C13.7048828,18.8273438 12.0804687,18.8273438 11.078418,19.4057617 L1.29316406,25.0554688 C0.781152344,25.3510742 0.531445312,25.7405273 0.542675781,26.1279297 C0.5421875,26.1445313 0.5421875,28.6081055 0.542675781,28.624707 C0.531445312,29.0121094 0.781152344,29.4015625 1.29316406,29.697168 L11.078418,35.346875 C12.0804687,35.925293 13.7048828,35.925293 14.7069336,35.346875 L24.4922852,29.697168 C25.0042969,29.4015625 25.2540039,29.0121094 25.2427734,28.624707 C25.2432617,28.6080078 25.2432617,26.1445313 25.2427734,26.1279297 Z" id="Shape" fill="#AD2201" fill-rule="nonzero"/>
                    <path d="M24.4923828,27.1503906 L14.7070313,32.8001953 C13.7049805,33.3786133 12.0805664,33.3786133 11.0785156,32.8001953 L1.29316406,27.1503906 C0.291113281,26.571875 0.291113281,25.6338867 1.29316406,25.0554687 L11.0785156,19.4057617 C12.0805664,18.8273437 13.7049805,18.8273437 14.7070313,19.4057617 L24.4923828,25.0554687 C25.4943359,25.6338867 25.4943359,26.571875 24.4923828,27.1503906 Z" id="Shape" fill="#CD2A01" fill-rule="nonzero"/>
                    <g id="Group" transform="translate(0.488281, 0.000000)" fill="#AD2201" fill-rule="nonzero">
                        <path d="M14.21875,35.346875 L24.0040039,29.697168 C24.5160156,29.4015625 24.7657227,29.0121094 24.7544922,28.624707 C24.7549805,28.6081055 24.7549805,26.1446289 24.7544922,26.1279297 C24.7545898,26.1243164 24.7542969,26.1207031 24.7543945,26.1170898 C24.7482422,26.4915039 24.4988281,26.8647461 24.0041016,27.1504883 L14.2188477,32.8001953 L14.21875,35.346875 Z" id="Shape"/>
                        <path d="M14.21875,35.346875 C13.2166992,35.925293 11.5922852,35.925293 10.5902344,35.346875 L10.5902344,32.8001953 C11.5922852,33.3787109 13.2166992,33.3787109 14.21875,32.8001953 L14.21875,35.346875 Z" id="Shape"/>
                        <path d="M10.5902344,32.8 L0.804882812,27.150293 C0.31015625,26.8646484 0.0607421875,26.4913086 0.0545898437,26.1169922 C0.0546875,26.1206055 0.0543945313,26.1241211 0.0544921875,26.1277344 C0.0540039062,26.1443359 0.0540039062,28.6079102 0.0544921875,28.6245117 C0.0432617187,29.0119141 0.29296875,29.4013672 0.804980469,29.6969727 L10.590332,35.3466797 L10.590332,32.8 L10.5902344,32.8 Z" id="Shape"/>
                        <polygon id="Shape" points="26.940625 12.8995117 26.202832 12.4707031 26.9454102 12.0420898 27.6831055 12.4708008"/>
                        <path d="M28.7987305,14.675 C28.7988281,14.6769531 28.7983398,14.6791992 28.7983398,14.68125 C28.7983398,14.6791992 28.7989258,14.6769531 28.7987305,14.675 C28.7334961,13.7365234 28.6683594,12.7983398 28.6032227,11.8598633 C28.559375,11.2330078 28.459375,10.7416992 28.4583008,10.7370117 C28.4228516,10.5694336 28.3831055,10.3442383 28.3388672,10.1788086 C28.294043,10.0111328 28.2384766,9.78652344 28.1895508,9.62011719 C28.1397461,9.45048828 28.0671875,9.22626953 28.0102539,9.05898437 C27.8223633,8.50742187 27.5737305,7.95791016 27.571582,7.95332031 C27.4944336,7.790625 27.3982422,7.57041016 27.3142578,7.41103516 C27.2299805,7.25126953 27.1208984,7.03632812 27.0332031,6.87841797 C26.9454102,6.72021484 26.8241211,6.51191406 26.7297852,6.35751953 C26.2030273,5.49599609 25.5608398,4.66083984 24.9214844,4.00576172 C24.7988281,3.88017578 24.6355469,3.71191406 24.5044922,3.59521484 C24.2539062,3.37226562 23.9124023,3.08339844 23.65,2.87451172 C23.5176758,2.76923828 23.3308594,2.6421875 23.1900391,2.54863281 C23.0577148,2.46054687 22.8748047,2.35322266 22.7398438,2.26943359 C21.9164063,1.79404297 21.0929688,1.31865234 20.2694336,0.843164062 C20.2694336,0.843066406 20.2694336,0.843164062 20.2694336,0.843066406 C20.0953125,0.745410156 19.8620117,0.616210937 19.6793945,0.535644531 C19.4366211,0.428515625 19.1072266,0.296777344 18.8538086,0.218261719 C18.6960937,0.169433594 18.1358398,0.009375 17.5496094,0.0009765625 C17.3381836,-0.00205078125 17.1533203,0.0013671875 16.9381836,0.0278320312 C16.830957,0.041015625 16.5462891,0.0759765625 16.2374023,0.162207031 C16.0296875,0.2203125 15.8311523,0.279589844 15.5037109,0.418261719 C15.2112305,0.542089844 15.0097656,0.655371094 14.8148438,0.76484375 L14.5327148,0.928808594 C13.7265625,1.39804687 13.0999023,1.98125 12.6700195,2.66191406 C12.35625,3.15878906 12.2137695,3.61699219 12.1602539,3.78945312 C12.0852539,4.03066406 12.0229492,4.36298828 11.9769531,4.61142578 C11.9524414,4.74355469 11.9412109,4.92285156 11.9259766,5.05644531 C11.9202148,5.14257812 11.9120117,5.22851562 11.9049805,5.31455078 C11.8804688,5.615625 11.855957,5.91679687 11.8314453,6.21777344 C11.7929688,6.69091797 11.7543945,7.1640625 11.715918,7.63720703 C11.6908203,7.96054687 11.7142578,8.20488281 11.7142578,8.20488281 C11.7224609,8.28818359 11.7292969,8.39980469 11.7429688,8.48232422 C11.8016602,8.83447266 11.8016602,8.83447266 11.8547852,9.04912109 C11.9056641,9.25458984 12.0620117,9.80234375 12.4125,10.4475586 C12.6560547,10.8960938 12.9776367,11.349707 13.2944336,11.6920898 C13.3564453,11.7589844 13.4386719,11.8490234 13.5055664,11.9111328 C13.6335938,12.0300781 13.8085938,12.1841797 13.9436523,12.2951172 C14.0125977,12.3517578 14.1105469,12.4197266 14.1845703,12.4696289 C14.2537109,12.5164062 14.349707,12.5728516 14.4205078,12.6170898 L15.3415039,13.1488281 L16.2625,13.6805664 L17.1834961,14.2123047 L18.1044922,14.744043 L19.0254883,15.2757812 L19.9464844,15.8075195 L20.8674805,16.3392578 L21.7884766,16.8709961 L22.7094727,17.4027344 L23.6304687,17.9344727 C23.7791016,18.0177734 24.0280273,18.1570312 24.3829102,18.2546875 C24.7213867,18.3477539 25.0053711,18.346875 25.1118164,18.3420898 C25.3734375,18.3304687 25.5998047,18.2996094 25.9829102,18.1764648 C25.9847656,18.1758789 26.1791992,18.1121094 26.3831055,18.0188477 C26.5765625,17.9303711 26.6584961,17.8842773 26.8217773,17.7924805 L27.1039062,17.6285156 C27.5349609,17.3777344 28.1202148,16.9539062 28.4611328,16.3597656 C28.6483398,16.0335937 28.7165039,15.7408203 28.7330078,15.6587891 C28.7609375,15.5192383 28.7908203,15.3311523 28.8004883,15.1889648 C28.8105469,15.0351562 28.8044922,14.8291016 28.7987305,14.675 Z" id="Shape"/>
                    </g>
                    <path d="M24.0714844,17.8493164 C25.6115234,18.7383789 26.8250977,17.9222656 26.6977539,16.0826172 L26.5022461,13.2674805 C26.2540039,9.67001953 23.7477539,5.56835937 20.7359375,3.83007812 C20.7179688,3.81972656 20.7,3.809375 20.6820313,3.79892578 C20.6756836,3.79521484 20.6692383,3.79160156 20.6629883,3.78789062 C20.6456055,3.77792969 20.6283203,3.76787109 20.6109375,3.7578125 C20.5342773,3.71357422 20.4577148,3.66933594 20.380957,3.62509766 C20.2743164,3.56357422 20.1677734,3.50205078 20.0611328,3.44042969 C20.0589844,3.43916016 20.0568359,3.43798828 20.0546875,3.43671875 C19.7990234,3.2890625 19.5432617,3.14140625 19.2875977,2.99375 C19.278125,2.98837891 19.26875,2.9828125 19.2592773,2.97744141 C19.0605469,2.86269531 18.8616211,2.74785156 18.6628906,2.63310547 C18.6487305,2.62490234 18.634668,2.61679687 18.6204102,2.60859375 C18.5064453,2.54277344 18.3925781,2.47705078 18.2787109,2.41123047 C18.2743164,2.40869141 18.2699219,2.40615234 18.2655273,2.40371094 C15.2536133,0.664257812 12.7323242,1.86328125 12.4638672,5.16240234 C12.4451172,5.14970703 12.4318359,5.134375 12.4235352,5.11660156 C12.415332,5.09882812 12.4123047,5.07861328 12.4140625,5.05644531 C12.4083008,5.14257812 12.4000977,5.22851562 12.3930664,5.31455078 C12.3685547,5.615625 12.344043,5.91669922 12.3195312,6.21777344 C12.2810547,6.69091797 12.2424805,7.1640625 12.2040039,7.63720703 C12.1789062,7.96044922 12.2023437,8.20488281 12.2023437,8.20488281 C12.2105469,8.28818359 12.2173828,8.39980469 12.2310547,8.48232422 C12.2897461,8.83447266 12.2897461,8.83447266 12.3428711,9.04912109 C12.39375,9.25458984 12.5500977,9.80234375 12.9005859,10.4475586 C13.1441406,10.8960937 13.4657227,11.349707 13.7825195,11.6920898 C13.8445312,11.7589844 13.9266602,11.8490234 13.9936523,11.9111328 C14.1216797,12.0300781 14.2966797,12.1841797 14.4317383,12.2951172 C14.5006836,12.3517578 14.5986328,12.4197266 14.6726562,12.4696289 C14.7417969,12.5164062 14.8378906,12.5727539 14.9085937,12.6170898 L15.8295898,13.1488281 L16.7505859,13.6805664 L17.671582,14.2123047 L18.5925781,14.744043 L19.5135742,15.2757812 L20.4345703,15.8075195 L21.3555664,16.3392578 L22.2765625,16.8709961 L23.1975586,17.4027344 L24.1185547,17.9344727 C24.087793,17.9166992 24.0713867,17.8885742 24.0714844,17.8493164 Z" id="Shape" fill="#CD2A01" fill-rule="nonzero"/>
                    <g id="Group" transform="translate(12.402344, 0.000000)" fill="#AD2201" fill-rule="nonzero">
                        <path d="M16.884668,14.675 C16.8847656,14.6769531 16.8842773,14.6791992 16.8842773,14.68125 C16.8842773,14.6791992 16.8848633,14.6769531 16.884668,14.675 C16.8194336,13.7365234 16.7542969,12.7983398 16.6891602,11.8598633 C16.6893555,11.8630859 16.6885742,11.8667969 16.6884766,11.8702148 C16.6882812,11.8763672 16.6884766,11.8823242 16.6871094,11.8889648 C16.6866211,11.8916016 16.6852539,11.8945312 16.6845703,11.8973633 C16.6692383,11.9582031 16.6123047,12.0375 16.5193359,12.128418 C16.5142578,12.1333984 16.5083008,12.1387695 16.5029297,12.14375 C16.4408203,12.202832 16.3650391,12.2662109 16.2761719,12.3322266 C16.2736328,12.3341797 16.2708008,12.3361328 16.2680664,12.3380859 C16.1491211,12.4260742 16.0083984,12.5182617 15.8500977,12.6102539 L15.5680664,12.7741211 C14.9448242,13.1362305 14.2875,13.3573242 14.0999023,13.2675781 L14.2954102,16.0827148 C14.4227539,17.9224609 13.2091797,18.7384766 11.6691406,17.8494141 C11.669043,17.8885742 11.6854492,17.9167969 11.7162109,17.9344727 C11.8648438,18.0177734 12.1137695,18.1570312 12.4686523,18.2546875 C12.8071289,18.3478516 13.0911133,18.346875 13.1975586,18.3420898 C13.4591797,18.3304688 13.6855469,18.2996094 14.0686523,18.1764648 C14.0705078,18.1758789 14.2649414,18.1121094 14.4688477,18.0188477 C14.6623047,17.9303711 14.7442383,17.8842773 14.9075195,17.7924805 L15.1896484,17.6285156 C15.6207031,17.3777344 16.205957,16.9539063 16.546875,16.3597656 C16.734082,16.0335938 16.8022461,15.7408203 16.81875,15.6587891 C16.8466797,15.5192383 16.8765625,15.3311523 16.8862305,15.1889648 C16.8964844,15.0351563 16.890332,14.8291016 16.884668,14.675 Z M16.7049805,14.9528594 C16.7081805,14.9497594 16.7118805,14.9464594 16.7150805,14.9433594 C16.7119805,14.9464594 16.7082805,14.9497594 16.7049805,14.9528594 Z" id="Shape"/>
                        <path d="M0.0614257813,5.16240234 C0.329980469,1.86328125 2.85117187,0.664160156 5.86308594,2.40371094 C5.86308594,2.40371094 5.86845703,2.40673828 5.87626953,2.41123047 C5.99023437,2.47695313 6.10410156,2.54277344 6.21796875,2.60859375 C6.23193359,2.61669922 6.24570313,2.62460938 6.26044922,2.63310547 C6.45917969,2.74785156 6.65810547,2.86269531 6.85683594,2.97744141 C6.86621094,2.9828125 6.87568359,2.98837891 6.88515625,2.99375 C7.14082031,3.14140625 7.39658203,3.2890625 7.65224609,3.43671875 C7.65439453,3.43798828 7.65664063,3.43916016 7.65869141,3.44042969 C7.76533203,3.50195313 7.871875,3.56347656 7.97851563,3.62509766 C8.07080078,3.67832031 8.14902344,3.72353516 8.20849609,3.7578125 C8.22587891,3.76777344 8.24316406,3.77792969 8.26054688,3.78789063 C8.26728516,3.79179688 8.27373047,3.79550781 8.27958984,3.79892578 C8.29755859,3.80927734 8.31552734,3.81962891 8.33349609,3.83007813 C8.33408203,3.61386719 8.83994141,3.14492188 9.46318359,2.78261719 L9.7453125,2.61865234 C9.79443359,2.59013672 9.84248047,2.56367188 9.88984375,2.53828125 C9.95097656,2.50546875 10.0104492,2.47529297 10.0681641,2.44765625 C10.0951172,2.43476563 10.1214844,2.42255859 10.1475586,2.41083984 C10.174707,2.39863281 10.2014648,2.38710938 10.2275391,2.37617188 C10.2638672,2.36103516 10.2990234,2.34707031 10.3331055,2.33457031 C10.3515625,2.32773438 10.3694336,2.32148438 10.387207,2.31552734 C10.5214844,2.26982422 10.6350586,2.24570313 10.7181641,2.24648438 C10.7200195,2.24648438 10.7214844,2.24677734 10.7233398,2.24677734 C10.7660156,2.24765625 10.8006836,2.25498047 10.8256836,2.26943359 C10.0022461,1.79404297 9.17880859,1.31865234 8.35527344,0.843164063 C8.18115234,0.745507813 7.94785156,0.616308594 7.76523438,0.535742188 C7.52246094,0.428613281 7.19306641,0.296875 6.93964844,0.218359375 C6.78193359,0.16953125 6.22167969,0.00947265625 5.63544922,0.00107421875 C5.42402344,-0.001953125 5.2390625,0.00146484375 5.02402344,0.0279296875 C4.91689453,0.0411132813 4.63212891,0.0760742188 4.32324219,0.162304688 C4.115625,0.220410156 3.91699219,0.2796875 3.58955078,0.418359375 C3.29707031,0.5421875 3.09560547,0.65546875 2.90068359,0.764941406 L2.61855469,0.92890625 C1.81240234,1.39824219 1.18574219,1.98134766 0.755859375,2.66201172 C0.442089844,3.15888672 0.299609375,3.61708984 0.24609375,3.78955078 C0.17109375,4.03076172 0.108789063,4.36298828 0.0627929688,4.61152344 C0.03828125,4.74365234 0.0270507813,4.92304688 0.0118164063,5.05654297 C0.0099609375,5.07880859 0.0130859375,5.09902344 0.0212890625,5.11669922 C0.0293945313,5.13427734 0.0427734375,5.14970703 0.0614257813,5.16240234 Z M8.25045625,0.820219531 C8.24945625,0.820219531 8.24855625,0.820019531 8.24765625,0.820019531 C8.24875625,0.820019531 8.24955625,0.820219531 8.25045625,0.820219531 Z" id="Shape"/>
                        <path d="M10.7180664,2.24628906 C10.6349609,2.24560547 10.5214844,2.26962891 10.3871094,2.31533203 C10.3693359,2.32138672 10.3514648,2.32763672 10.3330078,2.334375 C10.2990234,2.34697266 10.2637695,2.3609375 10.2274414,2.37597656 C10.2012695,2.38691406 10.174707,2.3984375 10.1474609,2.41064453 C10.1214844,2.42226562 10.0950195,2.43466797 10.0680664,2.44746094 C10.0104492,2.475 9.95087891,2.50517578 9.88974609,2.53808594 C9.84238281,2.56347656 9.79433594,2.59003906 9.74521484,2.61845703 L9.46308594,2.78242187 C8.83994141,3.14453125 8.33398437,3.61367188 8.33339844,3.82988281 C11.3453125,5.56835938 13.8514648,9.66982422 14.099707,13.2672852 C14.2873047,13.3569336 14.9447266,13.1360352 15.5678711,12.7738281 L15.8499023,12.6099609 C16.0083008,12.5179688 16.1489258,12.4256836 16.2678711,12.337793 C16.2705078,12.3358398 16.2733398,12.3338867 16.2759766,12.3319336 C16.3648437,12.265918 16.440625,12.2025391 16.5027344,12.143457 C16.5080078,12.1383789 16.5139648,12.1331055 16.5191406,12.128125 C16.6121094,12.037207 16.6691406,11.9579102 16.684375,11.8970703 C16.6850586,11.8944336 16.6864258,11.8913086 16.6869141,11.8886719 C16.6882813,11.8820313 16.6879883,11.8759766 16.6882813,11.8699219 C16.6883789,11.8666016 16.6891602,11.862793 16.6889648,11.8595703 C16.6451172,11.2327148 16.5451172,10.7414063 16.5441406,10.7367188 C16.5085938,10.5691406 16.4689453,10.3439453 16.424707,10.1785156 C16.3799805,10.0108398 16.3243164,9.78623047 16.2753906,9.61982422 C16.2255859,9.45019531 16.1530273,9.22597656 16.0960937,9.05869141 C15.9082031,8.50703125 15.6595703,7.95761719 15.6574219,7.95302734 C15.5802734,7.79033203 15.484082,7.57011719 15.4000977,7.41074219 C15.3158203,7.25097656 15.2067383,7.03613281 15.119043,6.878125 C15.03125,6.71992188 14.9099609,6.51162109 14.815625,6.35722656 C14.2888672,5.49570313 13.6466797,4.66054688 13.0073242,4.00527344 C12.884668,3.8796875 12.7213867,3.71142578 12.5901367,3.59472656 C12.3395508,3.37177734 11.9980469,3.08291016 11.7356445,2.87402344 C11.6033203,2.76875 11.4165039,2.64169922 11.2756836,2.54814453 C11.1433594,2.46015625 10.9604492,2.35273438 10.8254883,2.26894531 C10.8004883,2.25458984 10.7658203,2.24716797 10.7231445,2.24628906 C10.7214844,2.24658203 10.7200195,2.24628906 10.7180664,2.24628906 Z" id="Shape"/>
                    </g>
                </g>
            </g>
        </g>
    </g>
</svg>