<svg xmlns="http://www.w3.org/2000/svg" width="102" height="49" viewBox="0 0 102 49" fill="none">
    <path d="M46 4C38.8 5.2 35.6667 12.1667 35 15.5H26V15C27.6 7.8 36.3333 2.66667 40.5 1C46.1667 0.833333 53.9 0 55.5 0C57.1 0 63.5894 2.16667 64.5 3L70.5 8.5L65.5 10L46 4Z" fill="#C8D0D9"/>
    <path d="M26 19H74L71 40H31L26 19Z" fill="#1A1A1A"/>
    <path d="M37 13.0519L38.0909 15H64.8961V13.8312L66.2208 13.5974L64.8961 11.6494L63.8052 11.5714L63.1818 10.3247L64.3506 9.85714L63.1039 8.53247L61.4675 8.2987L60.6883 7.36364L62.013 7.05195L60.1429 5.80519L58.8182 6.11688L57.8052 5.57143L58.4286 4.55844L56.4805 4.09091L55.4675 4.55844L54.2987 4.32468L54.6883 3.15584L52.8961 3.38961L51.8831 4.09091H50.4026L50.4805 3L48.6104 3.38961L47.987 4.55844L46.7403 4.87013V3.54545L44.7922 4.71429L44.5584 6.11688L43.3896 6.50649L43 5.33766L41.5974 6.74026V8.2987L40.5844 8.92208L39.8831 8.06493L39.026 9.62338L39.3377 11.1039L38.6364 12.039L37.7013 11.1039L37 13.0519Z" fill="url(#paint0_linear)"/>
    <rect y="15" width="102" height="4" fill="#B8CEE7"/>
    <path fill-rule="evenodd" clip-rule="evenodd" d="M63.2 19.6H59V16.8L60.4 14H71.6L73 16.8V19.6H68.8V21H63.2V19.6Z" fill="#C22A29"/>
    <path d="M37 19H62L60.0889 35.5626C59.4683 40.9411 54.9142 45 49.5 45C44.0858 45 39.5317 40.9411 38.9111 35.5626L37 19Z" fill="#292F2E"/>
    <path d="M43.1758 27.151C43.0833 26.5456 43.5519 26 44.1643 26H55.8357C56.4481 26 56.9167 26.5456 56.8242 27.151L55.4497 36.151C55.3751 36.6393 54.9551 37 54.4611 37H45.5389C45.0449 37 44.6249 36.6393 44.5503 36.151L43.1758 27.151Z" fill="#B8CEE6"/>
    <path fill-rule="evenodd" clip-rule="evenodd" d="M91.6716 22.87L85.6667 19L85 20.0345L91.0049 23.9045L89.8265 25.7329L91.7927 27L94.9026 22.1746L92.9364 20.9074L91.6716 22.87Z" fill="#090909"/>
    <path fill-rule="evenodd" clip-rule="evenodd" d="M29.5 19H5C5 19.6667 5.4 21.1 7 21.5C8.6 21.9 18.3333 25.3333 23 27L29 34V46H35V41V39V38.437C35.8626 38.215 36.5 37.4319 36.5 36.5C36.5 35.5681 35.8626 34.785 35 34.563V31.5L29.1117 27.2941C28.5613 26.9009 28.5518 26.0861 29.0929 25.6803L30 25L29.5 19Z" fill="#0935A2"/>
    <path fill-rule="evenodd" clip-rule="evenodd" d="M71.5 19H96C96 19.6667 95.6 21.1 94 21.5C92.4 21.9 82.6667 25.3333 78 27L72 34V46H66V41V39V38.437C65.1374 38.215 64.5 37.4319 64.5 36.5C64.5 35.5681 65.1374 34.785 66 34.563V31.5L71.8883 27.2941C72.4387 26.9009 72.4482 26.0861 71.9071 25.6803L71 25L71.5 19Z" fill="#0935A2"/>
    <rect x="12" y="46" width="74" height="3" fill="#0935A2"/>
    <rect x="69" y="11" width="3" height="2" fill="#292F2E"/>
    <rect x="70" y="11" width="1" height="3" fill="#292F2E"/>
    <rect x="72" y="38" width="17" height="7" fill="#292F2E"/>
    <rect x="72" y="38" width="17" height="7" fill="#292F2E"/>
    <rect width="10" height="1" transform="matrix(1 0 0 -1 75 46)" fill="#292F2E"/>
    <rect width="10" height="1" transform="matrix(1 0 0 -1 75 46)" fill="#1A1A1A"/>
    <path d="M65.5 10L46 4L40 2L40.5 1C46.1667 0.833333 53.9 0 55.5 0C57.1 0 63.5894 2.16667 64.5 3L70.5 8.5L65.5 10Z" fill="#9BC6F8" fill-opacity="0.3"/>
    <circle cx="40" cy="2" r="1" fill="#292F2E"/>
    <defs>
        <linearGradient id="paint0_linear" x1="68.4345" y1="11.4706" x2="37.8855" y2="11.4706" gradientUnits="userSpaceOnUse">
            <stop stop-color="#A5A5A5"/>
            <stop offset="0.699174" stop-color="#FEFEFE"/>
            <stop offset="1" stop-color="#B8B8B8"/>
        </linearGradient>
    </defs>
</svg>