<?xml version="1.0" encoding="UTF-8"?><svg xmlns="http://www.w3.org/2000/svg" xmlns:xlink="http://www.w3.org/1999/xlink" width="50px" height="46px" viewBox="0 0 50 46" version="1.1">
    <!-- Generator: sketchtool 48.2 (47327) - http://www.bohemiancoding.com/sketch -->
    <title>7D7D4515-161F-4813-9F45-B2397B87477A</title>
    <desc>Created with sketchtool.</desc>
    <defs/>
    <g id="assets" stroke="none" stroke-width="1" fill="none" fill-rule="evenodd" transform="translate(-762.000000, -544.000000)">
        <g id="спорт" transform="translate(597.000000, 345.000000)">
            <g id="иконки/спорт/рыбалка" transform="translate(160.000000, 192.000000)">
                <g id="fishing-hook" transform="translate(5.000000, 7.000000)">
                    <path d="M11.0931683,37.8365347 L11.8153465,37.8365347 C11.7678218,38.3271287 11.3552475,38.7123762 10.8529703,38.7123762 C10.319505,38.7123762 9.88594059,38.2780198 9.88594059,37.7453465 L9.88594059,34.1352475 C9.88594059,33.9308911 9.88752475,33.7164356 9.91168317,33.5518812 C9.68009901,33.6564356 9.42584158,33.7172277 9.15445545,33.7218812 C9.14980198,33.8568317 9.14821782,33.9956436 9.14821782,34.1368317 L9.14821782,37.7454455 C9.14821782,38.6844554 9.91247525,39.449505 10.8530693,39.449505 C11.7608911,39.449505 12.5072277,38.7343564 12.5547525,37.8374257 L12.5563366,37.8374257 L12.5563366,36.4023762 L11.0931683,37.8365347 Z" id="Shape" fill="#A1B7AA" fill-rule="nonzero"/>
                    <path d="M29.6577228,31.419604 C25.3894059,26.3728713 21.1825743,21.2786139 16.9844554,16.1750495 C14.8732673,13.6325743 12.8034653,11.0589109 10.7133663,8.49930693 L4.45782178,0.811881188 L4.97415842,0.85009901 C4.41188119,1.39524752 3.88079208,2.03554455 3.4050495,2.68673267 C2.92693069,3.34415842 2.49574257,4.03673267 2.12445545,4.75811881 C1.38108911,6.19861386 0.866435644,7.76237624 0.704950495,9.37049505 C0.610594059,10.1714851 0.63009901,10.9832673 0.714356436,11.7850495 C0.787623762,12.5906931 1.00059406,13.3752475 1.23217822,14.1489109 C1.50514851,14.9116832 1.81712871,15.6618812 2.21950495,16.3707921 C2.41445545,16.7280198 2.6109901,17.0836634 2.84415842,17.419703 C3.06178218,17.7644554 3.29336634,18.1005941 3.54762376,18.4210891 C3.78861386,18.7517822 4.04287129,19.0730693 4.31663366,19.3780198 C4.5849505,19.6876238 4.85009901,20.0019802 5.14405941,20.2889109 L6.88089109,22.0709901 C7.16871287,22.369703 7.46425743,22.6605941 7.74425743,22.9671287 L8.55613861,23.9287129 C9.12,24.5510891 9.59029703,25.2451485 10.0675248,25.9330693 C10.3233663,26.2660396 10.4988119,26.6528713 10.7039604,27.0179208 C10.9083168,27.3852475 11.1118812,27.750198 11.2412871,28.1557426 C11.3847525,28.5518812 11.5641584,28.9356436 11.6172277,29.359901 L11.7389109,29.9814851 C11.7568317,30.1920792 11.7435644,30.4057426 11.7467327,30.6163366 C11.7342574,31.4547525 11.4706931,32.320396 10.9028713,32.9520792 C10.3546535,33.5939604 9.61762376,34.0454455 8.82831683,34.2989109 C9.6050495,34.0134653 10.3147525,33.5314851 10.8194059,32.8849505 C11.349703,32.2516832 11.5735644,31.4180198 11.5579208,30.6146535 C11.5485149,30.4110891 11.5547525,30.2083168 11.5321782,30.0079208 L11.3933663,29.4112871 C11.3309901,29.0073267 11.1422772,28.6376238 10.9909901,28.2586139 C10.8552475,27.8717822 10.6423762,27.520099 10.4317822,27.1675248 C10.2189109,26.8173267 10.0387129,26.4484158 9.77514851,26.1287129 C9.28930693,25.4642574 8.81663366,24.7911881 8.2519802,24.1922772 L7.43851485,23.2657426 C7.15544554,22.9670297 6.85207921,22.6807921 6.5580198,22.3868317 L4.78534653,20.6383168 C4.47881188,20.3512871 4.2019802,20.0362376 3.9219802,19.7219802 C3.63415842,19.4154455 3.3690099,19.0910891 3.11326733,18.7564356 C2.84346535,18.4311881 2.59851485,18.0888119 2.36693069,17.7355446 C2.11891089,17.3931683 1.90524752,17.0282178 1.6970297,16.6593069 C1.2719802,15.9277228 0.938217822,15.1439604 0.648811881,14.3445545 C0.396930693,13.5342574 0.17,12.7075248 0.0857425743,11.8575248 C-0.0101980198,11.0120792 -0.0343564356,10.1526733 0.0584158416,9.30574257 C0.218316832,7.60475248 0.75019802,5.95762376 1.51762376,4.4470297 C1.90128713,3.69128713 2.3450495,2.96752475 2.83950495,2.27891089 C3.33782178,1.58950495 3.86277228,0.93980198 4.49049505,0.329207921 L4.7650495,0.0616831683 L5.00841584,0.365841584 L11.2155446,8.09376238 C13.2806931,10.6728713 15.3629703,13.2379208 17.4071287,15.8334653 C21.5180198,21.0080198 25.6186139,26.1889109 29.6577228,31.419604 Z" id="Shape" fill="#938D76" fill-rule="nonzero"/>
                    <g id="Group" transform="translate(12.970297, 11.386139)" fill="#112D3F" fill-rule="nonzero">
                        <path d="M2.16039604,0.199207921 C2.32336634,0.361386139 2.32336634,0.625049505 2.16039604,0.787227723 L0.734752475,2.21366337 C0.571782178,2.37514851 0.308118812,2.37514851 0.146732673,2.21366337 C-0.0162376238,2.05069307 -0.0147524752,1.78782178 0.146732673,1.62564356 L1.57237624,0.199207921 C1.73534653,0.0362376238 1.99732673,0.0362376238 2.16039604,0.199207921 Z" id="Shape"/>
                        <path d="M8.89782178,8.03247525 C9.05930693,8.19465347 9.05930693,8.45831683 8.89782178,8.61970297 L7.47059406,10.0461386 C7.30910891,10.2083168 7.04554455,10.2083168 6.88257426,10.0461386 C6.72108911,9.8839604 6.72108911,9.62108911 6.88257426,9.45891089 L8.30980198,8.03247525 C8.47128713,7.87029703 8.73485149,7.86950495 8.89782178,8.03247525 Z" id="Shape"/>
                    </g>
                    <path d="M48.9468317,40.0585149 C50.2352475,41.3477228 50.2352475,43.4386139 48.9468317,44.7254455 C47.6569307,46.0146535 45.5683168,46.0146535 44.279901,44.7254455 C42.9907921,43.4385149 3.07742574,1.4350495 4.36653465,0.145940594 C5.6549505,-1.14326733 47.6561386,38.770099 48.9468317,40.0585149 Z" id="Shape" fill="#809BAD" fill-rule="nonzero"/>
                    <path d="M4.36653465,0.145940594 C3.07742574,1.4350495 42.9907921,43.4385149 44.2792079,44.7261386 C45.5676238,46.0153465 47.6561386,46.0153465 48.9460396,44.7261386" id="Shape" fill="#668596" fill-rule="nonzero"/>
                    <circle id="Oval" fill="#0E405B" fill-rule="nonzero" cx="31.5575248" cy="33.9566337" r="4.05"/>
                    <path d="M34.4212871,36.8219802 C36.0036634,35.239604 36.0036634,32.6760396 34.4212871,31.0936634 C32.840396,29.5120792 30.2769307,29.5120792 28.6937624,31.0936634" id="Shape" fill="#112D3F" fill-rule="nonzero"/>
                    <path d="M32.0917822,39.2247525 C32.0917822,39.519505 31.8523762,39.7590099 31.5583168,39.7590099 C31.2627723,39.7590099 31.0232673,39.519604 31.0232673,39.2247525 L31.0232673,34.120396 C31.0232673,33.8256436 31.2626733,33.5861386 31.5583168,33.5861386 C31.8523762,33.5861386 32.0917822,33.8255446 32.0917822,34.120396 L32.0917822,39.2247525 Z" id="Shape" fill="#809BAD" fill-rule="nonzero"/>
                    <g id="Group" transform="translate(29.603960, 27.425743)" fill="#112D3F" fill-rule="nonzero">
                        <path d="M3.82376238,12.7482178 C3.82376238,13.4368317 3.26455446,13.9952475 2.57752475,13.9952475 L1.33128713,13.9952475 C0.641089109,13.9952475 0.0834653465,13.4368317 0.0834653465,12.7482178 C0.0834653465,12.059604 0.641089109,11.5019802 1.33128713,11.5019802 L2.57752475,11.5019802 C3.26534653,11.5018812 3.82376238,12.059505 3.82376238,12.7482178 Z" id="Shape"/>
                        <path d="M8.12881188,1.44435644 C8.41039604,1.72663366 8.41039604,2.18445545 8.12881188,2.46762376 L4.84782178,5.74861386 C4.56623762,6.03089109 4.10772277,6.03089109 3.82455446,5.74861386 L2.60485149,4.52732673 C2.32178218,4.2450495 2.32178218,3.78643564 2.60485149,3.50405941 L5.88584158,0.222277228 C6.16742574,-0.0593069307 6.62594059,-0.0593069307 6.90831683,0.222277228 L8.12881188,1.44435644 Z" id="Shape"/>
                    </g>
                    <path d="M10.2625743,34.5009901 C9.88039604,34.8831683 9.26039604,34.8831683 8.87673267,34.5009901 C8.49455446,34.1180198 8.49455446,33.4980198 8.87831683,33.1159406 C9.26049505,32.7329703 9.88049505,32.7329703 10.2626733,33.1159406 C10.6446535,33.4980198 10.6446535,34.1180198 10.2625743,34.5009901 Z" id="Shape" fill="#CE0909" fill-rule="nonzero"/>
                    <g id="Group" transform="translate(7.821782, 31.980198)" fill="#890C0C" fill-rule="nonzero">
                        <path d="M0.71950495,3.44257426 C0.556534653,3.60475248 0.292871287,3.60475248 0.131485149,3.44336634 C-0.03,3.28188119 -0.03,3.01831683 0.131485149,2.85613861 L2.77613861,0.211485149 C2.93910891,0.0493069307 3.20277228,0.0493069307 3.36415842,0.211485149 C3.52564356,0.372970297 3.52564356,0.636534653 3.36257426,0.798712871 L0.71950495,3.44257426 Z" id="Shape"/>
                        <path d="M0.131485149,0.79960396 C-0.03,0.637425743 -0.03,0.374554455 0.131485149,0.211584158 C0.292970297,0.0500990099 0.556534653,0.0500990099 0.71950495,0.213168317 L3.36257426,2.85782178 C3.52554455,3.01851485 3.52554455,3.28287129 3.36415842,3.44356436 C3.20118812,3.60574257 2.93910891,3.60574257 2.77613861,3.44435644 L0.131485149,0.79960396 Z" id="Shape"/>
                    </g>
                </g>
            </g>
        </g>
    </g>
</svg>