<?xml version="1.0" encoding="UTF-8"?><svg xmlns="http://www.w3.org/2000/svg" xmlns:xlink="http://www.w3.org/1999/xlink" width="60px" height="60px" viewBox="0 0 60 60" version="1.1">
    <!-- Generator: Sketch 61 (89581) - https://sketch.com -->
    <title>иконки/животные/Товары для грызунов </title>
    <desc>Created with Sketch.</desc>
    <g id="иконки/животные/Товары-для-грызунов-" stroke="none" stroke-width="1" fill="none" fill-rule="evenodd">
        <g id="rat" transform="translate(5.000000, 17.000000)" fill-rule="nonzero">
            <g id="Group" transform="translate(19.042969, 17.382812)" fill="#FF8087">
                <path d="M22.6586914,0.0521484375 L20.3817383,2.83515625 C21.7141602,3.00380859 27.8199219,4.834375 27.8199219,7.36435547 C27.8199219,9.47929687 21.1407227,13.5623047 1.40683594,10.7287109 C-0.410839844,10.4676758 0.192480469,11.6821289 0.192480469,11.6821289 C24.0754883,16.8432617 30.9570312,10.2652344 30.9570312,7.02695313 C30.9570312,2.02548828 22.6586914,0.0521484375 22.6586914,0.0521484375 Z" id="Path"/>
                <path d="M13.5849609,4.15068359 L11.1941406,4.71171875 C10.6902344,4.82998047 10.2854492,5.18300781 10.1211914,5.64755859 L9.82958984,6.47246094 C9.73320313,6.74521484 9.9484375,7.02685547 10.2533203,7.02685547 L15.7337891,7.02685547 C16.1172852,7.02685547 16.4393555,6.75498047 16.4818359,6.39550781 L16.7131836,4.17285156 L13.5849609,4.15068359 Z" id="Path"/>
            </g>
            <path d="M35.5003906,2.42363281 C27.5900391,-0.576855469 19.4433594,4.17773438 15.496582,3.16572266 C12.2085937,2.32265625 6.48984375,0.1296875 0.13203125,9.50957031 C-0.110449219,9.86728516 -0.00185546875,10.3635742 0.317773437,10.6543945 C0.863574219,11.1509766 1.85751953,11.8543945 3.35849609,12.1871094 C5.51425781,14.6347656 8.48730469,14.8277344 10.6889648,14.0561523 C16.3418945,21.7646484 26.127832,21.3306641 29.5631836,19.9648438 C29.5631836,19.9648438 30.7775391,21.9808594 35.0222656,21.9808594 C39.9514648,21.9808594 42.8132812,18.9251953 42.8139653,13.9610352 C42.8148437,9.33095703 41.5683594,4.72519531 35.5003906,2.42363281 Z" id="Path" fill="#9C969E"/>
            <path d="M15.4548828,1.05166016 C14.4120117,-0.577246094 11.1519531,-0.298535156 9.79541016,2.95136719 C9.51982422,3.61142578 9.70908203,4.35341797 10.309375,4.8203125 C10.8632813,5.25117188 11.6536133,5.37226563 12.3324219,5.11201172 C13.8925781,4.51367188 16.6574219,2.92988281 15.4548828,1.05166016 Z" id="Path" fill="#867E88"/>
            <circle id="Oval" fill="#4B3F4E" cx="8.30566406" cy="7.8125" r="1.21435547"/>
            <path d="M10.2775391,5.02910156 C10.7839844,5.42011719 11.506543,5.53007812 12.1271484,5.29384766 C12.8076172,5.03486328 13.7367187,4.57177734 14.4042969,3.97363281 C14.7794922,3.63740234 14.9671875,3.15908203 14.8591797,2.70039063 C14.8353516,2.59902344 14.7999023,2.50341797 14.7480469,2.42207031 C13.8838867,1.06708984 11.0136719,1.20195313 9.96835937,4.18681641 C9.85136719,4.52080078 10.1039062,4.89501953 10.2775391,5.02910156 Z" id="Path" fill="#FF8087"/>
            <g id="Group" transform="translate(3.222656, 11.914062)" fill="#867E88">
                <path d="M3.35322266,0.0627929688 C2.17285156,0.355273438 1.06103516,0.4125 0.0421875,0.246289062 C0.0752929688,0.254101563 0.10234375,0.265722656 0.1359375,0.273144531 C0.7796875,1.00410156 1.49707031,1.53017578 2.24433594,1.89335938 C2.73603516,1.83994141 3.234375,1.76064453 3.74375,1.63378906 C4.17783203,1.52587891 4.44189453,1.08671875 4.334375,0.653027344 C4.22607422,0.218554687 3.78496094,-0.0470703125 3.35322266,0.0627929688 Z" id="Path"/>
                <path d="M26.3407227,8.05087891 C25.2977539,6.94736328 25.1600586,5.575 25.1600586,4.19619141 C25.1600586,3.53417969 25.2879883,2.87050781 25.4700195,2.27558594 C25.8568359,1.01054687 23.8751953,0.190332031 23.1794922,1.31552734 C23,1.60576172 22.8363281,1.96533203 22.6975586,2.40898438 C22.2823242,3.73779297 17.8009766,9.80556641 11.0931641,2.959375 C10.2851562,2.13476563 9.10039062,1.79326172 7.97138672,2.03427734 L7.46640625,2.1421875 C12.9824219,9.75439453 22.7927734,9.46523437 26.3407227,8.05087891 Z" id="Path"/>
            </g>
            <path d="M17.6499023,15.5041992 C17.6499023,17.706543 18.7419922,20.0493164 19.4408203,21.3228516 C19.7046875,21.8037109 19.4203125,22.3982422 18.8816406,22.5017578 L18.693457,22.5379883 C17.930957,22.6845703 17.3800781,23.3516602 17.3800781,24.1280273 C17.3800781,24.2835937 17.5061523,24.4097656 17.6617187,24.4097656 L21.0817383,24.4098633 C21.4486328,24.4098633 21.7671875,24.1661133 21.8632812,23.8121094 C22.2748047,22.2941406 22.9125,19.2459961 23.2158203,16.6680664 L17.6499023,15.5041992 Z" id="Path" fill="#9C969E"/>
            <g id="Group" transform="translate(0.000000, 8.691406)" fill="#FF8087">
                <path d="M17.6617188,15.7183594 L21.0817383,15.718457 C21.4486328,15.718457 21.7671875,15.474707 21.8632812,15.1207031 C21.9806641,14.6875977 22.1170898,14.1211914 22.2582031,13.4855469 L19.5357422,13.0520508 C19.5195312,13.4084961 19.2681641,13.7361328 18.8817383,13.8104492 L18.6935547,13.8466797 C17.9310547,13.9932617 17.3801757,14.6603516 17.3801757,15.4367187 C17.3800781,15.5921875 17.5061523,15.7183594 17.6617188,15.7183594 Z" id="Path"/>
                <path d="M0.317871094,1.96308594 C0.523242188,2.14990234 0.792285156,2.36601563 1.12763672,2.58066406 C1.58525391,2.35996094 1.90478516,1.89794922 1.90478516,1.35595703 C1.90478516,0.657324219 1.37822266,0.0889648438 0.701464844,0.00751953125 C0.512304688,0.268066406 0.322460938,0.537304688 0.13203125,0.818164063 C-0.110449219,1.17597656 -0.00185546875,1.67226562 0.317871094,1.96308594 Z" id="Path"/>
            </g>
        </g>
    </g>
</svg>