<?xml version="1.0" encoding="UTF-8"?><svg xmlns="http://www.w3.org/2000/svg" xmlns:xlink="http://www.w3.org/1999/xlink" width="60px" height="60px" viewBox="0 0 60 60" version="1.1">
    <!-- Generator: Sketch 61 (89581) - https://sketch.com -->
    <title>иконки/животные/Товары для рыб и рептилий</title>
    <desc>Created with Sketch.</desc>
    <g id="иконки/животные/Товары-для-рыб-и-рептилий" stroke="none" stroke-width="1" fill="none" fill-rule="evenodd">
        <g id="fish" transform="translate(5.000000, 10.000000)" fill-rule="nonzero">
            <g id="XMLID_208_" transform="translate(37.745725, 12.137801)" fill="#FDA92F">
                <path d="M8.94171054,10.8808862 L8.94171054,12.4417471 C8.94171054,13.6324553 8.31362168,14.7348886 7.28794452,15.3457911 C7.25976104,15.3618411 7.23057102,15.3778911 7.20238754,15.3939411 C6.84707445,15.1963256 6.5229645,14.932504 6.25018873,14.6054856 L3.87573101,11.7606259 L0.0105688029,10.0573213 L0.0105688029,6.4420624 L3.87573101,3.72961507 L6.25018873,0.884755378 C6.5229645,0.55773695 6.84707445,0.293915335 7.20238754,0.0962999051 C7.23057102,0.112349889 7.25976104,0.128399873 7.28794452,0.144449858 C8.31362168,0.75535238 8.94171054,1.85778567 8.94171054,3.04849387 L8.94171054,7.74512049 L8.94171054,10.8808862 Z" id="Path"/>
            </g>
            <path d="M26.9059578,34.8602647 C27.8417498,36.2656414 27.27496,38.1723796 25.7220505,38.842968 L24.4099085,39.4096327 C21.8237728,40.5264107 18.8068325,39.7449771 17.0937805,37.5145308 L15.0333672,34.8318763 L12.9115542,26.775988 L26.1360457,26.775988 L26.9059578,34.8602647 Z" id="Path" fill="#FCB64D"/>
            <path d="M26.4868293,37.3398869 C23.9006935,38.4566649 20.8837532,37.6752313 19.1706006,35.4447851 L17.1101873,32.7621305 L15.5335232,26.7760883 L12.9114536,26.7760883 L15.0332666,34.8319766 L17.0936799,37.5146311 C18.8068325,39.7450774 21.8237728,40.526511 24.4098078,39.409733 L25.7219499,38.8430683 C26.5441021,38.4880627 27.089553,37.7864778 27.2823078,36.996317 L26.4868293,37.3398869 Z" id="Path" fill="#FDA92F"/>
            <path d="M32.169121,5.53563954 C32.169121,2.52506376 29.7201784,0.0844630417 26.6993125,0.0844630417 L26.4618668,0.0844630417 C25.665281,0.0844630417 24.8782575,0.257903183 24.1559553,0.592545353 L21.9882435,1.59697343 C21.6120947,1.77131638 21.179881,1.78094637 20.7961832,1.62375684 L20.0271769,1.30867559 C19.367281,1.03823335 18.660681,0.899100051 17.9471359,0.899100051 L15.1527444,0.899100051 C12.1318785,0.899100051 9.68293591,3.33970077 9.68293591,6.35027655 L9.68293591,6.88393853 L9.68293591,11.8032587 L31.9501958,11.8032587 L32.169121,5.53563954 Z" id="Path" fill="#FCB64D"/>
            <path d="M15.1527444,3.12864348 L17.9471359,3.12864348 C18.660681,3.12864348 19.367281,3.26777678 20.0271769,3.53821901 L20.7961832,3.85330026 C21.179881,4.0104898 21.6119941,4.00085981 21.9882435,3.82651685 L24.1560559,2.82208878 C24.8784588,2.48744661 25.6653816,2.31400647 26.4619674,2.31400647 L26.6994132,2.31400647 C29.4672317,2.31400647 31.7534147,4.36328851 32.1172835,7.02216902 L32.1692216,5.53563954 C32.1692216,2.52506376 29.720279,0.0844630417 26.6994132,0.0844630417 L26.4619674,0.0844630417 C25.6653816,0.0844630417 24.8783581,0.257903183 24.1560559,0.592545353 L21.9882435,1.59697343 C21.6119941,1.77131638 21.179881,1.78094637 20.7961832,1.62375684 L20.0271769,1.30867559 C19.367281,1.03823335 18.660681,0.899100051 17.9471359,0.899100051 L15.1527444,0.899100051 C12.1318785,0.899100051 9.68293591,3.33970077 9.68293591,6.35027655 L9.68293591,6.88393853 L9.68293591,8.57971967 C9.68293591,5.5692442 12.1318785,3.12864348 15.1527444,3.12864348 L15.1527444,3.12864348 Z" id="Path" fill="#FDA92F"/>
            <g id="XMLID_203_" transform="translate(0.000000, 4.814995)">
                <path d="M3.32897161,12.015921 L3.99732257,14.2910062 C5.05722252,17.9012495 7.46992924,20.9677996 10.7341795,22.8546759 L10.9234114,22.9640164 C13.1660107,24.2600527 15.7115824,24.9431801 18.3034555,24.9431801 L28.1465339,24.9431801 C29.5848977,24.9431801 31.00615,24.7335272 32.3700289,24.3262588 C33.7329012,23.9189905 35.0363869,23.3151098 36.2372042,22.5266544 C38.4938953,21.0450402 40.2976376,18.9735891 41.4501404,16.538004 L42.6696796,13.9618812 C42.5902626,13.6170072 42.4743077,13.2804591 42.3220163,12.958356 L40.2092623,8.49545725 C39.6335142,7.2776647 38.893698,6.15115644 38.0169906,5.14301681 C37.1392767,4.1358803 36.1246716,3.24711242 34.9963261,2.5068069 C32.5946914,0.930899082 29.7813768,0.090281161 26.9056558,0.090281161 L17.0625774,0.090281161 C14.4707043,0.090281161 11.9251326,0.773408613 9.68253329,2.06944484 L9.49330139,2.17878535 C6.22905112,4.06566162 3.8163444,7.13221172 2.75644445,10.742455 L2.56650797,11.3890688 L3.32897161,12.015921 Z" id="Path" fill="#FCB64D"/>
                <path d="M41.4500398,16.538004 C40.297537,18.9735891 38.4937946,21.0450402 36.2371035,22.5266544 C35.0362862,23.3151098 33.7328005,23.9189905 32.3699282,24.3262588 C31.0060494,24.7335272 29.584797,24.9431801 28.1464333,24.9431801 L18.3033548,24.9431801 C15.7114817,24.9431801 13.1659101,24.2600527 10.9233108,22.9640164 L10.7340789,22.8546759 C7.46982858,20.9677996 5.05712186,17.9012495 3.99722191,14.2910062 L3.32887095,12.015921 L2.56640731,11.3889685 L2.08799283,13.01744 L0.258080101,14.522126 C-0.0861609075,14.805007 -0.0861609075,15.330644 0.258080101,15.6135249 L2.08799283,17.1182109 L2.7563438,19.3932962 C3.81624375,23.0035395 6.22895047,26.0700896 9.49320074,27.9569659 L9.68243264,28.0663064 C11.925032,29.3623426 14.4706036,30.0454701 17.0624767,30.0454701 L26.9055552,30.0454701 C28.3439189,30.0454701 29.7651713,29.8358172 31.1290501,29.4285488 C32.4919224,29.0212805 33.7954081,28.4173998 34.9962254,27.6289443 C37.2529165,26.1473302 39.0566588,24.0758791 40.2091616,21.640294 L42.3219157,17.1773953 C42.4779313,16.8473675 42.5967045,16.5022928 42.6762222,16.14819 C42.7557399,15.7950904 42.796002,15.4329626 42.796002,15.0678255 C42.796002,14.6944627 42.7529215,14.3236078 42.669579,13.9617809 L41.4500398,16.538004 Z" id="Path" fill="#FDA92F"/>
            </g>
            <path d="M41.4500398,21.3529993 C40.297537,23.7885844 38.4937946,25.8600354 36.2371035,27.3416496 C35.0362862,28.1301051 33.7328005,28.7339857 32.3699282,29.1412541 C31.0060494,29.5485224 29.584797,29.7581754 28.1464333,29.7581754 L18.3033548,29.7581754 C15.7114817,29.7581754 13.1659101,29.0750479 10.9233108,27.7790117 L10.7340789,27.6696712 C7.46982858,25.7827949 5.05712186,22.7162448 3.99722191,19.1060015 L3.32887095,16.8309162 L2.56640731,16.2039637 L2.08799283,17.8324352 L0.258080101,19.3371213 C-0.0861609075,19.6200022 -0.0861609075,20.1456392 0.258080101,20.4285202 L2.08799283,21.9332062 L2.7563438,24.2082915 C3.81624375,27.8185348 6.22895047,30.8850849 9.49320074,32.7719611 L9.68243264,32.8813017 C11.925032,34.1773379 14.4706036,34.8604653 17.0624767,34.8604653 L26.9055552,34.8604653 C28.3439189,34.8604653 29.7651713,34.6508124 31.1290501,34.2435441 C32.4919224,33.8362757 33.7954081,33.2323951 34.9962254,32.4439396 C37.2529165,30.9623254 39.0566588,28.8908743 40.2091616,26.4552892 L42.3219157,21.9923905 C42.4779313,21.6623627 42.5967045,21.3172881 42.6762222,20.9631853 C42.7557399,20.6100856 42.796002,20.2479579 42.796002,19.8828207 C42.796002,19.509458 42.7529215,19.138603 42.669579,18.7767762 L41.4500398,21.3529993 Z" id="Path" fill="#FDA92F"/>
            <ellipse id="Oval" fill="#9B8E99" cx="9.93769439" cy="15.2508956" rx="1.19195966" ry="1.18789945"/>
            <g id="XMLID_207_" transform="translate(12.380598, 4.814995)">
                <g id="Group">
                    <path d="M9.42686892,11.2690951 L9.35037091,18.9580407 C8.72630827,23.9566076 7.01013599,28.036313 4.76351045,30.0174829 L4.68197969,30.0455704 C3.09162649,30.0455704 1.51838468,29.7887706 0.0216408821,29.2892149 L0.102165095,29.0464589 C3.08458062,26.8546329 5.20337396,21.2953196 5.20337396,14.7830386 C5.20337396,8.58774466 3.28589115,3.25413429 0.529949974,0.86268665 L0.481635447,0.701183684 C1.83846843,0.297927831 3.25368147,0.090281161 4.68197969,0.090281161 L5.45702523,0.090281161 L5.45702523,0.245765383 C7.45402571,2.50781003 8.93164501,6.50626234 9.42686892,11.2690951 L9.42686892,11.2690951 Z" id="Path" fill="#F9F7F8"/>
                    <path d="M19.7138371,1.03321773 C21.8396763,3.99845231 23.239791,9.05018483 23.239791,14.7830386 C23.239791,21.0605886 21.5618678,26.5215957 19.0897744,29.3213148 L19.0897744,29.322318 C18.9770405,29.3594336 18.8633001,29.3945429 18.7485531,29.4286491 C17.3846742,29.8359175 15.9634219,30.0455704 14.5250581,30.0455704 L11.1078119,30.0455704 C15.4873225,30.0455704 19.0374337,23.2122896 19.0374337,14.7830386 C19.0374337,7.79026107 16.5945304,1.89590438 13.260828,0.090281161 L14.5250581,0.090281161 C16.3056498,0.090281161 18.0630907,0.412283969 19.7138371,1.03321773 Z" id="Path" fill="#F9F7F8"/>
                    <path d="M19.0913849,29.3194089 C20.2954232,27.9550599 21.3100283,25.9582413 22.0349475,23.5445243 C21.3725352,23.855593 20.6889853,24.1173081 19.9894312,24.3263591 C19.0338101,24.6117479 18.0496029,24.7977271 17.0515053,24.8849989 C15.5986472,28.0494539 13.4745191,30.0456707 11.1079125,30.0456707 L14.5251588,30.0456707 C14.7049291,30.0456707 14.8844981,30.0423604 15.0636645,30.0358401 C16.1387633,29.9966179 17.201381,29.8404315 18.2346073,29.5721962 C18.4068285,29.5274568 18.5781437,29.4797081 18.7486537,29.4287494 C18.8635014,29.394242 18.9773425,29.3565245 19.0913849,29.3194089 L19.0913849,29.3194089 Z" id="Path" fill="#E5E1E5"/>
                </g>
            </g>
            <path d="M50,23.0186867 L50,24.5795476 C50,25.1754033 49.8429778,25.7481871 49.5581234,26.248746 C49.2722624,26.750308 48.8595758,27.1776388 48.3472405,27.4835917 C47.2782816,28.1195723 45.9818418,28.1085379 44.9481122,27.5317416 C44.9762957,27.5156916 45.0054857,27.4996416 45.0336692,27.4835917 C46.0593463,26.8726891 46.6874352,25.7702558 46.6874352,24.5795476 L46.6874352,23.0186867 L46.6874352,19.882921 L46.6874352,15.1862944 C46.6874352,13.9955862 46.0593463,12.8931529 45.0336692,12.2822504 C45.0054857,12.2662004 44.9762957,12.2501504 44.9481122,12.2341004 C45.4574279,11.9502163 46.0301563,11.8027571 46.6079175,11.8027571 C47.2037967,11.8027571 47.8047087,11.9592445 48.3472405,12.2822504 C49.3719111,12.8931529 50,13.9955862 50,15.1862944 L50,19.882921 L50,23.0186867 Z" id="Path" fill="#9B8E99"/>
            <g id="XMLID_206_" transform="translate(17.715327, 14.745923)">
                <g id="Group">
                    <path d="M9.90397488,3.16385313 L9.90397488,7.3278209 C9.90397488,7.99289212 9.69159227,8.64091023 9.29702362,9.17758158 C8.67598063,10.0212089 7.72176871,10.4575678 6.76151748,10.4575678 C6.11933688,10.4575678 5.47413663,10.2629618 4.92355233,9.86472153 L4.92455888,9.8637184 C5.18324291,9.67814046 5.41776968,9.44942819 5.61807366,9.17758158 C5.81535798,8.90874434 5.96734743,8.61282276 6.06900925,8.30085119 C6.17167762,7.98887963 6.22502491,7.66085807 6.22502491,7.3278209 L6.22502491,3.16385313 C6.22502491,2.49878191 6.0126423,1.8507638 5.61807366,1.31409245 C5.41776968,1.04224585 5.18324291,0.813533573 4.92455888,0.627955631 L4.92355233,0.626952507 C6.29649015,-0.36513714 8.26128094,-0.0942936571 9.29702362,1.31409245 C9.49430794,1.58192657 9.6462974,1.87885127 9.74896577,2.19082284 C9.85062759,2.50279441 9.90397488,2.83181908 9.90397488,3.16385313 L9.90397488,3.16385313 Z" id="Path" fill="#9B8E99"/>
                    <path d="M6.22502491,3.16385313 L6.22502491,7.3278209 C6.22502491,7.66085807 6.17167762,7.98887963 6.06900925,8.30085119 C5.96734743,8.61282276 5.81535798,8.90874434 5.61807366,9.17758158 C5.41776968,9.44942819 5.18324291,9.67814046 4.92455888,9.8637184 L4.92355233,9.86472153 C4.79974635,9.77544349 4.68097314,9.67513109 4.56723268,9.56478745 L0.210872782,5.31756038 C0.0266736454,5.13800119 0.0357326194,4.84007335 0.231003835,4.67154852 L4.56723268,0.926886586 C4.68097314,0.816542945 4.79974635,0.716230544 4.92355233,0.626952507 L4.92455888,0.627955631 C5.18324291,0.813533573 5.41776968,1.04224585 5.61807366,1.31409245 C6.0126423,1.8507638 6.22502491,2.49878191 6.22502491,3.16385313 L6.22502491,3.16385313 Z" id="Path" fill="#FDA92F"/>
                </g>
            </g>
            <path d="M18.3034555,29.7581754 C17.419501,29.7581754 16.5412838,29.676822 15.6782655,29.5206356 C14.8250108,31.4381071 13.7298815,32.9448997 12.4828634,33.8614541 L12.2395797,34.0527499 L12.4023392,34.1042101 C13.899083,34.6037659 15.4723248,34.8605656 17.062678,34.8605656 L17.1442088,34.8324782 C18.3981721,33.7266343 19.4866581,31.9664526 20.3124339,29.7581754 L18.3034555,29.7581754 Z" id="Path" fill="#E5E1E5"/>
        </g>
    </g>
</svg>