<?xml version="1.0" encoding="UTF-8" standalone="no"?><!-- Created with Inkscape (http://www.inkscape.org/) --><svg xmlns:dc="http://purl.org/dc/elements/1.1/" xmlns:cc="http://creativecommons.org/ns#" xmlns:rdf="http://www.w3.org/1999/02/22-rdf-syntax-ns#" xmlns:svg="http://www.w3.org/2000/svg" xmlns="http://www.w3.org/2000/svg" xmlns:sodipodi="http://sodipodi.sourceforge.net/DTD/sodipodi-0.dtd" xmlns:inkscape="http://www.inkscape.org/namespaces/inkscape" width="8.8047752mm" height="11.860134mm" viewBox="0 0 8.8047751 11.860134" version="1.1" id="svg1852" sodipodi:docname="for_cats.svg" inkscape:version="0.92.5 (2060ec1f9f, 2020-04-08)">
  <defs id="defs1846"/>
  <sodipodi:namedview id="base" pagecolor="#ffffff" bordercolor="#666666" borderopacity="1.0" inkscape:pageopacity="0.0" inkscape:pageshadow="2" inkscape:zoom="14.303814" inkscape:cx="55.06816" inkscape:cy="17.116513" inkscape:document-units="mm" inkscape:current-layer="layer1" showgrid="false" fit-margin-top="0" fit-margin-left="0" fit-margin-right="0" fit-margin-bottom="0" inkscape:window-width="1920" inkscape:window-height="1023" inkscape:window-x="0" inkscape:window-y="0" inkscape:window-maximized="1"/>
  <metadata id="metadata1849">
    <rdf:RDF>
      <cc:Work rdf:about="">
        <dc:format>image/svg+xml</dc:format>
        <dc:type rdf:resource="http://purl.org/dc/dcmitype/StillImage"/>
        <dc:title/>
      </cc:Work>
    </rdf:RDF>
  </metadata>
  <g inkscape:label="Layer 1" inkscape:groupmode="layer" id="layer1" transform="translate(-3.1037115,-4.9430117)">
    <g transform="matrix(0.21920323,0,0,0.24074223,0.7071252,3.2636015)" style="fill:none;fill-rule:evenodd;stroke:none;stroke-width:1" id="иконки/животные/Товары-для-кошек-">
      <g style="fill-rule:nonzero" id="cat" transform="translate(11,9)">
        <path style="fill:#a66dc2" inkscape:connector-curvature="0" d="m 23.164319,41.167145 c -1.012035,0 -1.832262,-0.823632 -1.832262,-1.839867 0,-1.015892 0.820227,-1.839523 1.832262,-1.839523 5.241042,0 5.769967,-2.217179 6.729691,-6.241608 0.871171,-3.651581 1.955005,-8.195801 7.451791,-10.922813 0.906729,-0.449753 2.005608,-0.07656 2.453843,0.834617 0.448236,0.910836 0.07625,2.014275 -0.830826,2.464371 -3.956509,1.962776 -4.711775,5.128899 -5.511488,8.481102 -0.513197,2.151604 -1.043832,4.376678 -2.49111,6.111145 -1.657891,1.986809 -4.209861,2.952576 -7.801901,2.952576 z" id="Path"/>
        <path style="fill:#905fa8" inkscape:connector-curvature="0" d="m 29.129855,34.045944 c -0.80279,2.239838 -2.106811,3.441811 -5.965536,3.441811 -1.012035,0 -1.832262,0.823631 -1.832262,1.839523 0,1.016235 0.820227,1.839867 1.832262,1.839867 2.440509,0 4.400301,-0.44632 5.926559,-1.355439 0.620213,-2.167739 0.482084,-4.08657 0.03898,-5.765762 z" id="path4182"/>
        <path style="fill:#a66dc2" inkscape:connector-curvature="0" d="M 23.570159,25.889282 H 9.5069749 C 10.190099,31.230354 1.9833835,35.119514 9.3613239,43.904114 9.9483725,44.603119 10.817834,45 11.728665,45 h 9.619803 c 0.910832,0 1.780293,-0.396881 2.367342,-1.095886 7.37794,-8.7846 -0.828775,-12.67376 -0.145651,-18.014832 z" id="path4184"/>
        <path style="fill:#905fa8" inkscape:connector-curvature="0" d="m 23.570159,2.5567246 c 0,0 2.698646,-3.01437381 7.622059,-2.4969864 0.737828,0.0775909 1.348469,0.61454769 1.506086,1.3427352 0.441398,2.0410539 0.911857,6.4699173 -1.88047,10.6694416 z" id="path4186"/>
        <path style="fill:#fd9ac8" inkscape:connector-curvature="0" d="m 28.532207,10.539322 c 1.903378,-2.8622819 1.906797,-5.8711625 1.621308,-7.7783205 -0.02257,0 -0.04547,-3.433e-4 -0.06804,-3.433e-4 -2.863786,0 -4.455347,1.6228867 -4.471417,1.6410828 z" id="path4188"/>
        <path style="fill:#905fa8" inkscape:connector-curvature="0" d="m 9.5069749,2.5567246 c 0,0 -2.6986462,-3.01437381 -7.6217178,-2.4969864 C 1.147087,0.1373291 0.53644691,0.67428589 0.3791712,1.4024734 -0.06222652,3.4435273 -0.53302792,7.8723907 2.2592998,12.071915 Z" id="path4190"/>
        <path style="fill:#fd9ac8" inkscape:connector-curvature="0" d="M 4.5449261,10.539322 C 2.6415482,7.6770401 2.6381291,4.6681595 2.9236187,2.7610015 c 0.022908,0 0.045473,-3.433e-4 0.068381,-3.433e-4 2.8634436,0 4.4553474,1.6228867 4.4714168,1.6410828 z" id="path4192"/>
        <path style="fill:#905fa8" inkscape:connector-curvature="0" d="m 9.5069749,25.889625 c 0.1583013,1.237336 -0.1606948,2.396737 -0.6526943,3.557511 2.1379244,0.509491 4.6621994,0.753937 7.6842864,0.753937 3.022429,0 5.546362,-0.244446 7.684286,-0.75428 -0.491658,-1.160431 -0.810996,-2.319832 -0.652694,-3.557168 z" id="path4194"/>
        <path style="fill:#a66dc2" inkscape:connector-curvature="0" d="m 16.538567,27.484703 c 7.718476,0 14.90119,-1.617737 14.90119,-10.249557 0,-11.198502 -7.749932,-16.44996684 -14.90119,-16.44996684 -7.1512585,0 -14.9011901,5.25146484 -14.9011901,16.44996684 0,8.63182 7.1827133,10.249557 14.9011901,10.249557 z" id="path4196"/>
        <path style="fill:#3a484a" inkscape:connector-curvature="0" d="m 23.33151,16.469879 c -0.373359,0 -0.676286,-0.304184 -0.676286,-0.679092 v -1.326256 c 0,-0.375252 0.302927,-0.679092 0.676286,-0.679092 0.373701,0 0.676285,0.30384 0.676285,0.679092 v 1.326256 c 0,0.374908 -0.302584,0.679092 -0.676285,0.679092 z" id="path4198"/>
        <path style="fill:#fd9ac8" inkscape:connector-curvature="0" d="m 24.231059,18.419266 h -1.798756 c -0.373701,0 -0.676286,-0.304184 -0.676286,-0.679093 0,-0.374908 0.302585,-0.679092 0.676286,-0.679092 h 1.798756 c 0.3737,0 0.676285,0.304184 0.676285,0.679092 0,0.374909 -0.302585,0.679093 -0.676285,0.679093 z" id="path4200"/>
        <path style="fill:#3a484a" inkscape:connector-curvature="0" d="m 9.7456236,16.469879 c -0.3737007,0 -0.6762855,-0.304184 -0.6762855,-0.679092 v -1.326256 c 0,-0.375252 0.3025848,-0.679092 0.6762855,-0.679092 0.3733594,0 0.6762854,0.30384 0.6762854,0.679092 v 1.326256 c 0,0.374908 -0.302926,0.679092 -0.6762854,0.679092 z" id="path4202"/>
        <path style="fill:#fd9ac8" inkscape:connector-curvature="0" d="M 10.645172,18.419266 H 8.8460749 c -0.3733588,0 -0.6762855,-0.304184 -0.6762855,-0.679093 0,-0.374908 0.3029267,-0.679092 0.6762855,-0.679092 h 1.7990971 c 0.373359,0 0.676286,0.304184 0.676286,0.679092 0,0.374909 -0.302927,0.679093 -0.676286,0.679093 z" id="path4204"/>
        <path style="fill:#3a484a" inkscape:connector-curvature="0" d="m 16.538567,18.344421 c -0.668764,0 -1.297183,-0.281181 -1.724221,-0.772133 -0.245828,-0.282211 -0.217108,-0.711364 0.06428,-0.958213 0.281045,-0.246849 0.708425,-0.21801 0.954254,0.06454 0.169926,0.195351 0.427379,0.307618 0.705689,0.307618 0.278651,0 0.535763,-0.111924 0.706031,-0.307618 0.245829,-0.282554 0.672866,-0.311393 0.954253,-0.06454 0.281045,0.246849 0.309765,0.676002 0.06394,0.958213 -0.427038,0.490609 -1.055457,0.772133 -1.72422,0.772133 z" id="path4206"/>
        <path style="fill:#905fa8" inkscape:connector-curvature="0" d="m 16.538567,34.93824 c -0.373359,0 -0.676286,0.304184 -0.676286,0.679093 V 45 h 1.352571 v -9.382667 c 0,-0.374909 -0.302585,-0.679093 -0.676285,-0.679093 z" id="path4208"/>
        <path style="fill:#905fa8" inkscape:connector-curvature="0" d="m 11.715331,34.942703 c -0.370966,-0.04326 -0.706373,0.22419 -0.749453,0.596695 -0.02633,0.229683 -0.604144,5.517884 1.583356,9.460602 h 1.458564 c 3.39e-4,-0.121536 -0.03146,-0.244446 -0.09915,-0.355682 -2.179294,-3.561287 -1.606947,-8.8797 -1.599083,-8.949051 0.04274,-0.372506 -0.223263,-0.709305 -0.594229,-0.752564 z" id="path4210"/>
        <path style="fill:#905fa8" inkscape:connector-curvature="0" d="m 19.069335,45 h 1.458564 c 2.1875,-3.942375 1.610025,-9.230919 1.583356,-9.460602 -0.04308,-0.372505 -0.378829,-0.63961 -0.749453,-0.596351 -0.370965,0.04292 -0.636966,0.380058 -0.594228,0.752563 0.0062,0.05321 0.5891,5.373001 -1.598742,8.949051 -0.06804,0.110893 -0.09984,0.233803 -0.0995,0.355339 z" id="path4212"/>
      </g>
    </g>
  </g>
</svg>