<?xml version="1.0" encoding="UTF-8"?><svg xmlns="http://www.w3.org/2000/svg" xmlns:xlink="http://www.w3.org/1999/xlink" width="60px" height="60px" viewBox="0 0 60 60" version="1.1">
    <!-- Generator: Sketch 61 (89581) - https://sketch.com -->
    <title>иконки/животные/Товары для собак </title>
    <desc>Created with Sketch.</desc>
    <g id="иконки/животные/Товары-для-собак-" stroke="none" stroke-width="1" fill="none" fill-rule="evenodd">
        <g id="dog" transform="translate(8.000000, 10.000000)" fill-rule="nonzero">
            <path d="M38.4677051,1.52798246 L31.2096094,1.52798246 C28.5786035,2.56929825 27.9953613,0.803596491 22.5,0.803596491 C17.0046387,0.803596491 16.4213965,2.56929825 13.7903027,1.52798246 L6.53229492,1.52798246 L5.56453125,19.7284211 C6.16939453,26.8817544 10.6149023,30.7753509 14.1230566,32.1939474 L30.8770312,32.1939474 C34.3850977,30.7753509 38.8306934,26.8817544 39.4355566,19.7284211 L38.4677051,1.52798246 Z" id="Path" fill="#F5DCB4"/>
            <path d="M31.2096973,1.52798246 C39.3818555,3.96929825 34.9330078,16.5591228 40.1950195,22.0011404 C40.9504395,22.7823684 42.2851465,22.4353509 42.6004102,21.3963158 C43.0170117,20.0234211 43.4330859,17.8514912 43.3669043,14.7481579 C43.2762012,10.4923684 45,10.2207895 45,10.2207895 C45,10.2207895 42.8225977,0.0792105263 36.2903027,0.0792105263 C34.1129004,0.0792105263 31.2096973,1.52798246 31.2096973,1.52798246 Z" id="Path" fill="#965A50"/>
            <path d="M14.8790039,20.362193 L14.8790039,20.362193 C13.4818066,20.362193 12.3387012,19.2213158 12.3387012,17.8268421 L12.3387012,16.3780702 C12.3387012,14.9835965 13.4818066,13.8427193 14.8790039,13.8427193 L14.8790039,13.8427193 C16.2762012,13.8427193 17.4193066,14.9835965 17.4193066,16.3780702 L17.4193066,17.8268421 C17.4193945,19.2214035 16.2762012,20.362193 14.8790039,20.362193 Z" id="Path" fill="#4B3F4E"/>
            <path d="M14.8790039,13.8426316 C14.7548145,13.8426316 14.6356348,13.8620175 14.5161035,13.879386 L14.5161035,17.4645614 C14.5161035,18.2646491 15.1660547,18.9133333 15.9677051,18.9133333 C16.7694434,18.9133333 17.4193066,18.2646491 17.4193066,17.4645614 L17.4193066,16.3780702 C17.4193945,14.9836842 16.2762012,13.8426316 14.8790039,13.8426316 Z" id="Path" fill="#5D5360"/>
            <ellipse id="Oval" fill="#FFFFFF" cx="14.8790039" cy="15.6535965" rx="1.08870117" ry="1.08657895"/>
            <path d="M30.1209961,20.362193 L30.1209961,20.362193 C28.7237988,20.362193 27.5806934,19.2213158 27.5806934,17.8268421 L27.5806934,16.3780702 C27.5806934,14.9835965 28.7237988,13.8427193 30.1209961,13.8427193 L30.1209961,13.8427193 C31.5181934,13.8427193 32.6612988,14.9835965 32.6612988,16.3780702 L32.6612988,17.8268421 C32.6612988,19.2214035 31.5181055,20.362193 30.1209961,20.362193 Z" id="Path" fill="#4B3F4E"/>
            <path d="M30.1209961,13.8426316 C29.9968066,13.8426316 29.877627,13.8620175 29.7580957,13.879386 L29.7580957,17.4645614 C29.7580957,18.2646491 30.4080469,18.9133333 31.2096973,18.9133333 C32.0114355,18.9133333 32.6612988,18.2646491 32.6612988,17.4645614 L32.6612988,16.3780702 C32.6612988,14.9836842 31.5181055,13.8426316 30.1209961,13.8426316 Z" id="Path" fill="#5D5360"/>
            <ellipse id="Oval" fill="#FFFFFF" cx="30.1209961" cy="15.6535965" rx="1.08870117" ry="1.08657895"/>
            <path d="M40.1950195,22.0012281 C40.9504395,22.7824561 42.2851465,22.4354386 42.6004102,21.3963158 C42.8392969,20.6089474 43.0749316,19.5489474 43.2226758,18.2109649 C41.7958594,17.5011404 40.5778711,15.2364035 39.8286035,11.3978947 C38.4677051,4.42561404 36.5625,0.532017544 31.2096973,1.52798246 C39.3818555,3.96929825 34.9330078,16.5592105 40.1950195,22.0012281 Z" id="Path" fill="#824641"/>
            <path d="M14.1230566,32.1939474 L17.5631836,32.1939474 C17.5631836,32.1939474 11.5222852,28.1494737 10.5242871,20.9960526 C8.58287109,7.08 12.2783203,2.91640351 15.4746387,1.85394737 C14.9683008,1.87105263 14.4423633,1.78605263 13.7903906,1.52807018 L6.53229492,1.52807018 L5.56453125,19.7284211 C6.16939453,26.8817544 10.6149023,30.7753509 14.1230566,32.1939474 Z" id="Path" fill="#E7C9A5"/>
            <path d="M13.7903027,1.52798246 C5.61814453,3.96929825 10.0670801,16.5592105 4.80498047,22.0011404 C4.04956055,22.7823684 2.71485352,22.4353509 2.39958984,21.3963158 C1.98298828,20.0234211 1.56691406,17.8514912 1.6330957,14.7481579 C1.72379883,10.4923684 0,10.2207895 0,10.2207895 C0,10.2207895 2.17740234,0.0792105263 8.70969727,0.0792105263 C10.8870996,0.0792105263 13.7903027,1.52798246 13.7903027,1.52798246 Z" id="Path" fill="#965A50"/>
            <path d="M13.547373,1.41263158 C12.8108496,1.07157895 10.5137402,0.0792105263 8.70969727,0.0792105263 C2.17740234,0.0792105263 0,10.2207895 0,10.2207895 C0,10.2207895 1.72379883,10.4924561 1.6330957,14.7482456 C1.63186523,14.8050877 1.63353516,14.8562281 1.63265625,14.9124561 C5.80930664,-0.902192982 12.2272559,0.857280702 13.547373,1.41263158 Z" id="Path" fill="#824641"/>
            <ellipse id="Oval" fill="#BC8E78" cx="22.5" cy="32.677193" rx="7.98398438" ry="5.79473684"/>
            <path d="M18.8709961,32.6768421 L18.8709961,36.2987719 C18.8709961,38.2991228 20.4957422,39.9207018 22.5,39.9207018 C24.5042578,39.9207018 26.1290039,38.2991228 26.1290039,36.2987719 L26.1290039,32.6768421 L18.8709961,32.6768421 Z" id="Path" fill="#FF8087"/>
            <path d="M18.8709961,35.5059649 C19.920498,35.3747368 20.9107617,35.0560526 21.7741992,34.5742105 L21.7741992,35.574386 C21.7741992,35.974386 22.0992187,36.2987719 22.5,36.2987719 C22.9007812,36.2987719 23.2258008,35.974386 23.2258008,35.574386 L23.2258008,34.565 C24.0808887,35.0520175 25.0737891,35.3742105 26.1290039,35.5062281 L26.1290039,32.6767544 L18.8709961,32.6767544 L18.8709961,35.5059649 L18.8709961,35.5059649 Z" id="Path" fill="#E6646E"/>
            <path d="M27.2177051,26.1573684 L17.7822949,26.1573684 C14.7759082,26.1573684 12.3387891,27.9411404 12.3387891,30.1414912 C12.3387891,32.3418421 14.7759961,34.125614 17.7822949,34.125614 C19.2962109,34.125614 20.6635254,33.672193 21.649043,32.9415789 C21.8985645,32.7566667 22.1994141,32.6642105 22.4997363,32.6642105 C22.8005859,32.6642105 23.1014355,32.7565789 23.350957,32.9415789 C24.3364746,33.672193 25.7037891,34.125614 27.2177051,34.125614 C30.2240918,34.125614 32.6612109,32.3418421 32.6612109,30.1414912 C32.6612109,27.9411404 30.2240918,26.1573684 27.2177051,26.1573684 Z" id="Path" fill="#D4AF91"/>
            <path d="M22.5,23.2597368 C24.905127,23.2597368 26.8548047,24.5570175 26.8548047,26.1572807 C26.8548047,27.700614 25.0245703,28.5132456 23.7036621,29.1141228 C22.937959,29.4624561 22.0618652,29.4624561 21.2961621,29.1141228 C19.9752539,28.5132456 18.1450195,27.700614 18.1450195,26.1572807 C18.1451953,24.5571053 20.094873,23.2597368 22.5,23.2597368 Z" id="Path" fill="#5D5360"/>
            <path d="M20.2999219,25.365 C20.1984082,24.4533333 20.8418555,23.4784211 20.8418555,23.4784211 C19.2595605,23.9125439 18.1451953,24.947807 18.1451953,26.1572807 C18.1451953,27.7005263 19.9754297,28.5131579 21.2963379,29.1141228 C22.0619531,29.4623684 22.9381348,29.4623684 23.7038379,29.1141228 C23.9879004,28.9849123 24.2955176,28.8449123 24.6033984,28.6909649 C22.8175488,28.3757895 20.5040039,27.1986842 20.2999219,25.365 Z" id="Path" fill="#4B3F4E"/>
        </g>
    </g>
</svg>