<?xml version="1.0" encoding="UTF-8"?><svg xmlns="http://www.w3.org/2000/svg" xmlns:xlink="http://www.w3.org/1999/xlink" width="44px" height="50px" viewBox="0 0 44 50" version="1.1">
    <!-- Generator: sketchtool 48.2 (47327) - http://www.bohemiancoding.com/sketch -->
    <title>25A6B9DD-E028-4835-A0F5-0B97A1FE7B38</title>
    <desc>Created with sketchtool.</desc>
    <defs/>
    <g id="assets" stroke="none" stroke-width="1" fill="none" fill-rule="evenodd" transform="translate(-495.000000, -963.000000)">
        <g id="-часы" transform="translate(327.000000, 926.000000)">
            <g id="иконки/часы/интерьер" transform="translate(160.000000, 32.000000)">
                <g id="wall-clock" transform="translate(8.000000, 5.000000)">
                    <path d="M20.4153021,8.97816764 C12.3779727,4.33781676 5.8417154,8.06335283 5.81559454,17.2988304 C5.78937622,26.534308 12.2832359,37.782846 20.3205653,42.4231969 C28.3578947,47.0635478 34.8947368,43.3383041 34.9209552,34.1028265 C34.9471735,24.8673489 28.452729,13.6184211 20.4153021,8.97816764" id="Shape" fill="#E0E0E2" fill-rule="nonzero"/>
                    <path d="M20.5648148,29.6325536 C18.6739766,28.5097466 17.1679337,25.8391813 17.2008772,23.6677388 C17.2338207,21.4962963 18.7934698,20.6460039 20.684308,21.7688109 C22.5751462,22.8916179 24.0811891,25.5621832 24.0482456,27.7337232 C24.0152047,29.9051657 22.455653,30.7553606 20.5648148,29.6325536 Z" id="Shape" fill="#C6C5CB" fill-rule="nonzero"/>
                    <path d="M29.0959064,20.2689084 C28.9935673,20.2098441 28.8912281,20.1957115 28.8130604,20.2406433 L21.012768,24.68577 C21.2523392,24.9711501 21.4489279,25.3116959 21.5759259,25.6611111 L29.3761209,21.2159844 C29.5323587,21.1262183 29.5332359,20.8356725 29.3779727,20.5668616 C29.3003899,20.4319688 29.1981481,20.3279727 29.0959064,20.2689084" id="Shape" fill="#AD2201" fill-rule="nonzero"/>
                    <path d="M21.5759259,25.6609162 C21.4489279,25.3115984 21.2522417,24.9709552 21.012768,24.685575 C20.8220273,24.4583821 20.6039961,24.2660819 20.3723197,24.1322612 C20.2432749,24.0577973 20.1184211,24.0062378 20,23.9764133 L16.187037,17.3996101 C16.0575049,17.1751462 15.8874269,17.0021442 15.717154,16.9038986 C15.5468811,16.805653 15.3763158,16.7819688 15.2459064,16.8563353 C14.9850877,17.0050682 14.9836257,17.4888889 15.242885,17.9378168 L19.055848,24.5145224 C19.0219298,24.6310916 19.0037037,24.76423 19.0033138,24.9124756 C19.0008772,25.7791423 19.6098441,26.8334308 20.3635478,27.2685185 C21.1177388,27.7039961 21.7308967,27.3552632 21.7333333,26.4885965 C21.7340156,26.2229045 21.6770955,25.9391813 21.5759259,25.6609162 Z" id="Shape" fill="#2E2E30" fill-rule="nonzero"/>
                    <path d="M19.4163743,25.5637427 C19.4152047,25.9432749 19.6822612,26.4054581 20.0125731,26.5961988 C20.1834308,26.6948343 20.3377193,26.7012671 20.4471735,26.6321637 C20.4442495,26.6341131 20.4412281,26.6361598 20.4382066,26.6379142 L20.7815789,26.4384016 C20.8888889,26.3759259 20.9554581,26.2433723 20.9560429,26.0547758 C20.957115,25.6752437 20.6903509,25.212963 20.3599415,25.0222222 C20.1937622,24.9263158 20.0430799,24.9173489 19.934308,24.9806043 L19.5909357,25.180117 C19.5913255,25.179922 19.5916179,25.1797271 19.5921053,25.1795322 C19.4839181,25.2417154 19.4168616,25.3745614 19.4163743,25.5637427 Z" id="Shape" fill="#C6C5CB" fill-rule="nonzero"/>
                    <path d="M20.0164717,25.2217349 C19.6860624,25.0309942 19.4174464,25.1841131 19.4164717,25.5637427 C19.4153021,25.9432749 19.6823587,26.4054581 20.0126706,26.5961988 C20.3429825,26.7869396 20.611501,26.6339181 20.6125731,26.2542885 C20.6135478,25.8747563 20.3467836,25.4124756 20.0164717,25.2217349 Z" id="Shape" fill="#ACABB1" fill-rule="nonzero"/>
                    <path d="M26.6182261,2.37163743 C21.8131579,-0.402631579 17.4597466,-0.660136452 14.3161793,1.16676413 L5.05282651,6.59512671 C5.06276803,6.58927875 5.07309942,6.58411306 5.0831384,6.57836257 C1.96218324,8.37436647 0.0252436647,12.2157895 0.00974658869,17.6835283 C-0.0213450292,28.6555556 7.69356725,42.0184211 17.2422027,47.5311891 C22.1069201,50.3398635 26.5080897,50.5672515 29.6601365,48.6647173 C29.6211501,48.6882066 29.5827485,48.7128655 29.5433723,48.73577 L38.8068226,43.3075049 C41.9103314,41.5039961 43.8346004,37.6689084 43.8500975,32.2181287 C43.8809942,21.2469786 36.1660819,7.88401559 26.6182261,2.37163743 Z M28.7265107,43.3995127 C26.4480507,43.938499 23.6681287,43.4240741 20.6697856,41.6929825 C12.9730019,37.2493177 6.75497076,26.47846 6.78011696,17.6342105 C6.78966862,14.2442495 7.71598441,11.6305068 9.2874269,9.94512671 C11.565692,9.40653021 14.345614,9.92153996 17.3439571,11.6526316 C25.0401559,16.0960039 31.2588694,26.8672515 31.2338207,35.7107212 C31.2240741,39.1006823 30.2978558,41.7141326 28.7265107,43.3995127 Z" id="Shape" fill="#CD2A01" fill-rule="nonzero"/>
                    <g id="Group" fill-rule="nonzero">
                        <g transform="translate(3.313840, 0.000000)" fill="#AD2201" id="Shape">
                            <path d="M4.11452242,10.681384 L7.53128655,8.69580897 C5.02982456,10.1495127 3.4788499,13.2407407 3.4662768,17.6342105 C3.44122807,26.47846 9.65916179,37.2493177 17.3559454,41.6930799 L13.9391813,43.678655 C6.24249513,39.2348928 0.0244639376,28.4640351 0.0495126706,19.6197856 C0.06208577,15.2263158 1.61296296,12.1349903 4.11452242,10.681384 Z"/>
                            <path d="M27.2714425,42.6640351 L23.8546784,44.6496101 C21.3208577,46.1221248 17.8119883,45.914425 13.9392788,43.6785575 L17.3560429,41.6929825 C21.228655,43.9288499 24.7376218,44.1365497 27.2714425,42.6640351 Z"/>
                            <path d="M1.73898635,6.59512671 L11.0024366,1.1668616 C14.1459064,-0.660136452 18.4994152,-0.402534113 23.304386,2.37153996 L14.0409357,7.79990253 C9.23596491,5.02573099 4.88245614,4.76822612 1.73898635,6.59512671 Z"/>
                            <path d="M35.492885,43.3076023 L26.2294347,48.7358674 C29.3329435,46.9323587 31.2572125,43.097271 31.2727096,37.6464912 C31.3038012,26.6753411 23.5888889,13.3124756 14.0410331,7.8 L23.3044834,2.37173489 C32.8523392,7.88411306 40.5672515,21.247076 40.5361598,32.2182261 C40.5206628,37.6690058 38.5963938,41.5039961 35.492885,43.3076023 Z"/>
                        </g>
                        <path d="M17.3548733,7.8 C26.902729,13.3123782 34.6176413,26.6753411 34.5865497,37.6464912 C34.5554581,48.6185185 26.7900585,53.0437622 17.2422027,47.5312865 C7.69376218,42.0183236 -0.0212475634,28.6554581 0.00974658869,17.6836257 C0.0409356725,6.71237817 7.80633528,2.2871345 17.3548733,7.8 Z M17.2531189,43.6785575 C24.9493177,48.1219298 31.208577,44.5548733 31.2336257,35.7106238 C31.2586745,26.8672515 25.039961,16.095809 17.3437622,11.6525341 C9.64697856,7.20877193 3.38840156,10.7763158 3.36325536,19.6196881 C3.33830409,28.4640351 9.55633528,39.2348928 17.2531189,43.6785575 Z" id="Shape" fill="#CD2A01"/>
                    </g>
                </g>
            </g>
        </g>
    </g>
</svg>