<?xml version="1.0" encoding="UTF-8"?><svg xmlns="http://www.w3.org/2000/svg" xmlns:xlink="http://www.w3.org/1999/xlink" width="50px" height="46px" viewBox="0 0 50 46" version="1.1">
    <!-- Generator: sketchtool 48.2 (47327) - http://www.bohemiancoding.com/sketch -->
    <title>62602D57-F7EC-4FD3-98D4-7798ED38D6E9</title>
    <desc>Created with sketchtool.</desc>
    <defs/>
    <g id="assets" stroke="none" stroke-width="1" fill="none" fill-rule="evenodd" transform="translate(-492.000000, -1257.000000)">
        <g id="ювелирка" transform="translate(327.000000, 1138.000000)">
            <g id="иконки/ювелирка/подвеска" transform="translate(160.000000, 112.000000)">
                <g id="necklace" transform="translate(5.000000, 7.000000)">
                    <path d="M25,45.8461765 C20.1364706,45.8461765 16.1816176,41.8913235 16.1816176,37.0277941 C16.1816176,32.8963235 22.0160294,24.2394118 23.185,22.5473529 C24.0117647,21.3547059 25.9880882,21.3547059 26.8148529,22.5473529 C27.9838235,24.2395588 33.8182353,32.8964706 33.8182353,37.0277941 C33.8183824,41.8913235 29.8633824,45.8461765 25,45.8461765 Z" id="Shape" fill="#E6EEFF" fill-rule="nonzero"/>
                    <path d="M40.4322059,29.3117647 C36.7851471,29.3117647 33.8183824,26.345 33.8183824,22.6979412 C33.8183824,20.0132353 37.3341176,12.6085294 38.4105882,10.1326471 C39.1123529,8.52647059 41.7519118,8.52647059 42.4538235,10.1326471 C43.5302941,12.6085294 47.0460294,20.0133824 47.0460294,22.6979412 C47.0458824,26.345 44.0791176,29.3117647 40.4322059,29.3117647 Z" id="Shape" fill="#D6D9E7" fill-rule="nonzero"/>
                    <path d="M40.4322059,24.9025 C39.2158824,24.9025 38.2276471,23.9142647 38.2276471,22.6979412 C38.2879412,21.8776471 39.0285294,19.7872059 40.4322059,16.4889706 C41.8358824,19.7894118 42.5764706,21.8907353 42.6389706,22.7497059 C42.6367647,23.9142647 41.6485294,24.9025 40.4322059,24.9025 Z" id="Shape" fill="#51DAE6" fill-rule="nonzero"/>
                    <path d="M9.56779412,29.3117647 C5.92073529,29.3117647 2.95397059,26.345 2.95397059,22.6979412 C2.95397059,20.0132353 6.46970588,12.6085294 7.54617647,10.1326471 C8.24794118,8.52647059 10.8875,8.52647059 11.5894118,10.1326471 C12.6658824,12.6085294 16.1816176,20.0133824 16.1816176,22.6979412 C16.1816176,26.345 13.2148529,29.3117647 9.56779412,29.3117647 Z" id="Shape" fill="#E6EEFF" fill-rule="nonzero"/>
                    <path d="M9.56779412,24.9025 C8.35147059,24.9025 7.36323529,23.9142647 7.36323529,22.6979412 C7.42352941,21.8776471 8.16411765,19.7872059 9.56779412,16.4889706 C10.9714706,19.7894118 11.7120588,21.8907353 11.7745588,22.7497059 C11.7725,23.9142647 10.7841176,24.9025 9.56779412,24.9025 Z" id="Shape" fill="#5AF1FF" fill-rule="nonzero"/>
                    <path d="M33.8183824,37.0277941 C33.8183824,32.8963235 27.9839706,24.2394118 26.815,22.5473529 C26.4016176,21.9508824 25.7007353,21.6529412 25,21.6529412 L25,45.8463235 C29.8633824,45.8461765 33.8183824,41.8913235 33.8183824,37.0277941 Z" id="Shape" fill="#DAE2F2" fill-rule="nonzero"/>
                    <path d="M25,41.4370588 C22.5694118,41.4370588 20.5908824,39.4585294 20.5908824,37.0279412 C20.5930882,35.8373529 22.2377941,32.1925 25,27.8005882 C27.76,32.1904412 29.4069118,35.8375 29.4091176,37.0279412 C29.4092647,39.4585294 27.4305882,41.4370588 25,41.4370588 Z" id="Shape" fill="#5AF1FF" fill-rule="nonzero"/>
                    <path d="M29.4092647,37.0277941 C29.4070588,35.8372059 27.7601471,32.1901471 25.0001471,27.8004412 L25.0001471,41.4370588 C27.4305882,41.4370588 29.4092647,39.4585294 29.4092647,37.0277941 Z" id="Shape" fill="#51DAE6" fill-rule="nonzero"/>
                    <path d="M49.9558824,1.66602941 C44.9738235,10.4402941 35.0088235,20.6697059 26.9841176,25.2113235 C25.0301471,26.2858824 24.9697059,26.2858824 23.0157353,25.2113235 C14.9910294,20.6697059 5.02602941,10.4404412 0.0439705882,1.66602941 C1.58705882,1.44558824 3.04220588,0.916617647 4.27661765,0.122941176 C8.90632353,7.97117647 17.9892647,17.1864706 24.9998529,21.2427941 C32.0105882,17.1864706 41.0935294,7.97117647 45.7230882,0.122941176 C46.9576471,0.916617647 48.4127941,1.44573529 49.9558824,1.66602941 Z" id="Shape" fill="#C4CAD9" fill-rule="nonzero"/>
                    <path d="M26.9841176,25.2111765 C35.0088235,20.6695588 44.9738235,10.4402941 49.9558824,1.66588235 C48.4127941,1.44544118 46.9576471,0.916470588 45.7232353,0.122794118 C41.0935294,7.97117647 32.0105882,17.1864706 25,21.2427941 L25,26.0169118 C25.5035294,26.0169118 26.0072059,25.7483824 26.9841176,25.2111765 Z" id="Shape" fill="#B8BFCC" fill-rule="nonzero"/>
                </g>
            </g>
        </g>
    </g>
</svg>