<?xml version="1.0" encoding="UTF-8"?><svg xmlns="http://www.w3.org/2000/svg" xmlns:xlink="http://www.w3.org/1999/xlink" width="50px" height="46px" viewBox="0 0 50 46" version="1.1">
    <!-- Generator: sketchtool 48.2 (47327) - http://www.bohemiancoding.com/sketch -->
    <title>BF167C49-A12B-4BAC-8021-2CCC4C032AA9</title>
    <desc>Created with sketchtool.</desc>
    <defs/>
    <g id="assets" stroke="none" stroke-width="1" fill="none" fill-rule="evenodd" transform="translate(-602.000000, -249.000000)">
        <g id="Одежда-и-обувь-Copy-2" transform="translate(597.000000, 50.000000)">
            <g id="иконки/электроника/орг" transform="translate(0.000000, 192.000000)">
                <g id="fax" transform="translate(5.000000, 7.000000)">
                    <polygon id="Shape" fill="#FFFFFF" fill-rule="nonzero" points="46.5947266 19.7990234 44.8936523 18.8168945 44.8936523 11.6926758 24.794043 0.0719726562 24.2337891 0.3609375 24.2337891 6.87265625 22.7686523 6.02675781 15.9581055 2.09472656 0 11.368457 0 24.571875 0 24.571875 0 24.571875 5.71464844 27.8713867 0.808789063 30.7371094 0.808789063 30.7371094 0.808789063 30.7371094 0.805566406 31.8589844 0.805566406 31.8589844 0.805566406 31.8589844 5.35722656 34.4869141 24.6316406 45.6311523 24.6316406 45.6311523 24.6316406 45.6311523 26.0367187 44.8104492 30.6366211 42.1235352 30.6366211 42.2762695 30.6366211 42.2762695 34.9543945 44.7691406 34.0418945 44.3513672 34.0418945 44.3513672 34.0418945 44.3513672 50 35.0775391 50 21.8741211"/>
                    <polygon id="Shape" fill="#474747" fill-rule="nonzero" points="15.9581055 2.09472656 0 11.368457 0 24.571875 6.81064453 28.5040039 22.7686523 19.2302734 22.7686523 6.02675781"/>
                    <g id="Group" transform="translate(0.000000, 2.050781)" fill-rule="nonzero">
                        <polygon id="Shape" fill="#666666" points="0 9.31767578 15.9581055 0.0439453125 22.7686523 3.97597656 6.81064453 13.2499023"/>
                        <polygon id="Shape" fill="#4D4D4D" points="6.81064453 13.2499023 6.81064453 26.4532227 0 22.5210937 0 9.31767578"/>
                    </g>
                    <polygon id="Shape" fill="#E0E0E2" fill-rule="nonzero" points="20.3188477 19.3405273 0.808789062 30.7371094 0.805566406 31.8589844 24.6316406 45.6311523 44.1416992 34.234668 44.1449219 33.112793"/>
                    <g id="Group" transform="translate(0.781250, 30.664062)" fill-rule="nonzero">
                        <polygon id="Shape" fill="#C6C5CB" points="23.8535156 13.8451172 43.3636719 2.44873047 43.3604492 3.57060547 23.8503906 14.9670898"/>
                        <polygon id="Shape" fill="#D8D8DA" points="23.8535156 13.8451172 23.8503906 14.9670898 0.0243164063 1.19492187 0.0275390625 0.073046875"/>
                    </g>
                    <polygon id="Shape" fill="#808080" fill-rule="nonzero" points="22.7686523 6.02675781 6.81064453 15.3006836 6.81064453 16.1859375 30.6366211 29.9582031 46.5813477 20.6842773 46.5947266 19.7990234"/>
                    <g id="Group" transform="translate(6.738281, 7.421875)" fill-rule="nonzero">
                        <g transform="translate(23.828125, 12.304688)" fill="#57565C" id="Shape">
                            <polygon points="0.0702148437 9.34619141 16.0283203 0.0724609375 16.0149414 0.957714844 0.0702148437 10.231543"/>
                            <polygon points="0.0702148437 9.34619141 16.0283203 0.0724609375 16.0149414 0.957714844 0.0702148437 10.231543"/>
                        </g>
                        <polygon id="Shape" fill="#3E3D43" points="13.3746094 2.44736328 17.4955078 0.0708007812 37.5950195 11.6915039 33.4740234 14.0516602"/>
                        <polygon id="Shape" fill="#57565C" points="23.8983398 21.6508789 23.8983398 22.5362305 0.0723632812 8.7640625 0.0723632812 7.87880859"/>
                        <polygon id="Shape" fill="#666666" points="23.8983398 21.6508789 23.8983398 27.9682617 0.0723632812 14.1959961 0.0723632812 7.87880859"/>
                    </g>
                    <polygon id="Shape" fill="#D8D8DA" fill-rule="nonzero" points="44.3333008 11.9816406 44.3333008 19.1133789 40.2123047 21.4735352 24.2337891 12.2455078 24.2337891 0.3609375"/>
                    <polygon id="Shape" fill="#E0E0E2" fill-rule="nonzero" points="44.8936523 11.6926758 44.3333008 11.9816406 24.2337891 0.3609375 24.794043 0.0719726562"/>
                    <polygon id="Shape" fill="#474747" fill-rule="nonzero" points="46.5947266 19.7990234 30.6366211 29.0727539 30.6366211 42.2762695 34.0418945 44.3513672 50 35.0775391 50 21.8741211"/>
                    <g id="Group" transform="translate(30.566406, 19.726562)" fill-rule="nonzero">
                        <polygon id="Shape" fill="#666666" points="0.0702148437 9.34619141 16.0283203 0.0724609375 19.4335937 2.14755859 3.47548828 11.4213867"/>
                        <polygon id="Shape" fill="#4D4D4D" points="3.47548828 11.4213867 3.47548828 24.6248047 0.0702148437 22.549707 0.0702148437 9.34619141"/>
                    </g>
                    <polygon id="Shape" fill="#898890" fill-rule="nonzero" points="35.3854492 24.1125 38.599707 22.2445312 31.2626953 17.9963867 28.0483398 19.8642578"/>
                    <polygon id="Shape" fill="#474747" fill-rule="nonzero" points="24.2337891 7.49267578 24.2337891 12.2455078 20.1128906 9.86923828"/>
                    <polygon id="Shape" fill="#C6C5CB" fill-rule="nonzero" points="44.8936523 11.6926758 44.8936523 18.8243164 44.3333008 19.1133789 44.3333008 11.9816406"/>
                    <g id="Group" transform="translate(14.160156, 13.183594)" fill="#474747" fill-rule="nonzero">
                        <path d="M8.19541016,0.944433594 L6.75371094,0.112109375 C6.53066406,-0.0166992188 6.16972656,-0.01640625 5.94814453,0.112402344 L5.46201172,0.394824219 C5.24033203,0.523632812 5.24160156,0.732421875 5.46464844,0.861132812 L6.90634766,1.69345703 C7.12939453,1.82226562 7.48984375,1.82226562 7.71142578,1.69345703 L8.19755859,1.41103516 C8.41923828,1.28222656 8.41855469,1.07314453 8.19541016,0.944433594" id="Shape"/>
                        <path d="M11.0604492,2.5984375 L9.61923828,1.76630859 C9.39570313,1.63720703 9.03486328,1.6375 8.81318359,1.76630859 L8.32705078,2.04873047 C8.10537109,2.17753906 8.10664063,2.38632812 8.33007813,2.51533203 L9.77128906,3.34746094 C9.99433594,3.47626953 10.3547852,3.47626953 10.5763672,3.34746094 L11.0625,3.06503906 C11.284082,2.93632813 11.2833984,2.72724609 11.0604492,2.5984375" id="Shape"/>
                        <path d="M13.9253906,4.25253906 L12.4841797,3.42041016 C12.2606445,3.29130859 11.8998047,3.29160156 11.678125,3.42041016 L11.1919922,3.70283203 C10.9703125,3.83164062 10.971582,4.04042969 11.1950195,4.16943359 L12.6362305,5.0015625 C12.8592773,5.13037109 13.2197266,5.13037109 13.4413086,5.0015625 L13.9274414,4.71914062 C14.1491211,4.59042969 14.1484375,4.38134766 13.9253906,4.25253906" id="Shape"/>
                        <path d="M6.44912109,1.95927734 L5.00742187,1.12695313 C4.784375,0.998144531 4.42392578,0.998144531 4.20195312,1.12724609 L3.71630859,1.40947266 C3.49423828,1.53857422 3.49541016,1.74736328 3.71845703,1.87607422 L5.16015625,2.70839844 C5.38320312,2.83720703 5.74365234,2.83720703 5.965625,2.70810547 L6.45126953,2.42587891 C6.67333984,2.296875 6.67207031,2.08808594 6.44912109,1.95927734" id="Shape"/>
                        <path d="M9.3140625,3.61337891 L7.87285156,2.78125 C7.64931641,2.65214844 7.28886719,2.65214844 7.06679688,2.78125 L6.58115234,3.06347656 C6.35908203,3.19257813 6.36025391,3.40136719 6.58378906,3.53027344 L8.025,4.36240234 C8.24804687,4.49121094 8.60849609,4.49121094 8.83046875,4.36210938 L9.31611328,4.07988281 C9.53818359,3.95097656 9.53710938,3.7421875 9.3140625,3.61337891" id="Shape"/>
                        <path d="M12.1790039,5.26748047 L10.737793,4.43535156 C10.5142578,4.30625 10.1538086,4.30625 9.93173828,4.43535156 L9.44609375,4.71757813 C9.22402344,4.84667969 9.22519531,5.05546875 9.44873047,5.184375 L10.8899414,6.01650391 C11.1129883,6.1453125 11.4734375,6.1453125 11.6954102,6.01621094 L12.1810547,5.73398438 C12.4032227,5.60498047 12.4019531,5.39619141 12.1790039,5.26748047" id="Shape"/>
                        <path d="M4.70273438,2.97412109 L3.26103516,2.14179688 C3.03798828,2.01298828 2.67753906,2.01298828 2.45556641,2.14208984 L1.96992187,2.42431641 C1.74785156,2.55341797 1.74902344,2.76220703 1.97207031,2.89091797 L3.41376953,3.72324219 C3.63681641,3.85205078 3.99726562,3.85205078 4.21923828,3.72294922 L4.70488281,3.44072266 C4.92695313,3.31162109 4.92578125,3.10283203 4.70273438,2.97412109" id="Shape"/>
                        <path d="M7.56767578,4.628125 L6.12646484,3.79599609 C5.90292969,3.66689453 5.54248047,3.66689453 5.32041016,3.79599609 L4.83476562,4.07822266 C4.61269531,4.20732422 4.61386719,4.41611328 4.83740234,4.54501953 L6.27861328,5.37714844 C6.50166016,5.50595703 6.86210937,5.50595703 7.08408203,5.37685547 L7.56972656,5.09462891 C7.79189453,4.96582031 7.79072266,4.75693359 7.56767578,4.628125" id="Shape"/>
                        <path d="M10.4326172,6.28222656 L8.99140625,5.45009766 C8.76787109,5.32099609 8.40742188,5.32099609 8.18535156,5.45009766 L7.69970703,5.73232422 C7.47763672,5.86142578 7.47880859,6.07021484 7.70234375,6.19912109 L9.14355469,7.03125 C9.36660156,7.16005859 9.72705078,7.16005859 9.94902344,7.03095703 L10.434668,6.74873047 C10.6568359,6.61982422 10.6556641,6.41103516 10.4326172,6.28222656" id="Shape"/>
                        <path d="M2.95673828,3.98876953 L1.51503906,3.15644531 C1.29199219,3.02763672 0.931054687,3.02792969 0.709570312,3.15673828 L0.2234375,3.43916016 C0.0017578125,3.56796875 0.0025390625,3.77705078 0.225585937,3.90576172 L1.66728516,4.73808594 C1.89033203,4.86689453 2.25126953,4.86660156 2.47275391,4.73779297 L2.95888672,4.45537109 C3.18056641,4.3265625 3.17988281,4.11757812 2.95673828,3.98876953" id="Shape"/>
                        <path d="M5.82177734,5.64287109 L4.38056641,4.81074219 C4.15703125,4.68164062 3.79619141,4.68193359 3.57451172,4.81074219 L3.08837891,5.09316406 C2.86669922,5.22197266 2.86748047,5.43105469 3.09101562,5.55996094 L4.53222656,6.39208984 C4.75527344,6.52089844 5.11621094,6.52060547 5.33769531,6.39179688 L5.82382813,6.109375 C6.04560547,5.98066406 6.04482422,5.77167969 5.82177734,5.64287109" id="Shape"/>
                        <path d="M8.68681641,7.29697266 L7.24560547,6.46484375 C7.02207031,6.33574219 6.66123047,6.33603516 6.43955078,6.46484375 L5.95341797,6.74726562 C5.73173828,6.87607422 5.73251953,7.08515625 5.95605469,7.2140625 L7.39726562,8.04619141 C7.6203125,8.175 7.98125,8.17470703 8.20273437,8.04589844 L8.68886719,7.76347656 C8.91044922,7.63466797 8.90976562,7.42568359 8.68681641,7.29697266" id="Shape"/>
                    </g>
                    <g id="Group" transform="translate(26.269531, 21.093750)" fill-rule="nonzero">
                        <path d="M2.63818359,0.27734375 C2.05019531,-0.062109375 1.10019531,-0.062109375 0.516796875,0.276953125 C-0.0673828125,0.61640625 -0.0642578125,1.16660156 0.523730469,1.50615234 C1.11171875,1.84560547 2.06162109,1.84560547 2.64580078,1.50615234 C3.22929687,1.16708984 3.22617188,0.616796875 2.63818359,0.27734375" id="Shape" fill="#BE3E50"/>
                        <path d="M6.44492187,2.72988281 C5.85693359,2.39042969 4.90693359,2.39042969 4.32353516,2.72949219 C3.73935547,3.06894531 3.74248047,3.61914063 4.33046875,3.95869141 C4.91767578,4.29775391 5.86767578,4.29775391 6.45185547,3.95830078 C7.03535156,3.61914063 7.03232422,3.06894531 6.44492187,2.72988281" id="Shape" fill="#ACDD58"/>
                    </g>
                    <polygon id="Shape" fill="#1D1D1F" fill-rule="nonzero" points="15.2291992 1.04101562 2.89414062 9.36826172 2.88457031 11.6264648 6.89921875 13.9443359 19.2341797 6.77607422 19.2438477 3.35888672"/>
                    <polygon id="Shape" fill="#474747" fill-rule="nonzero" points="19.2438477 3.35888672 19.2341797 6.77607422 6.89921875 13.9443359 6.90888672 11.6861328"/>
                    <polygon id="Shape" fill="#4D4D4D" fill-rule="nonzero" points="6.90888672 11.6861328 6.89921875 13.9443359 2.88457031 11.6264648 2.89414062 9.36826172"/>
                    <polygon id="Shape" fill="#666666" fill-rule="nonzero" points="19.2438477 3.35888672 6.90888672 11.6861328 2.89414062 9.36826172 15.2291992 1.04101562"/>
                </g>
            </g>
        </g>
    </g>
</svg>