<?xml version="1.0" encoding="UTF-8"?><svg xmlns="http://www.w3.org/2000/svg" xmlns:xlink="http://www.w3.org/1999/xlink" width="50px" height="49px" viewBox="0 0 50 49" version="1.1">
    <!-- Generator: sketchtool 48.2 (47327) - http://www.bohemiancoding.com/sketch -->
    <title>7B472EFC-9DDE-4771-BB8B-3B25CF3E1609</title>
    <desc>Created with sketchtool.</desc>
    <defs/>
    <g id="assets" stroke="none" stroke-width="1" fill="none" fill-rule="evenodd" transform="translate(-872.000000, -1127.000000)">
        <g id="авто-copy" transform="translate(867.000000, 926.000000)">
            <g id="иконки/дом/сад" transform="translate(0.000000, 195.000000)">
                <g id="gardening" transform="translate(5.000000, 6.000000)">
                    <polygon id="Shape" fill="#7BC690" fill-rule="nonzero" points="5.56064453 28.5957031 10.0966797 28.5957031 10.0966797 19.5222656 2.61201172 19.5222656"/>
                    <path d="M9.79121094,19.7070313 L9.79121094,19.7055664 L5.78535156,5.28183594 L3.16308594,6.01083984 C1.83535156,6.3796875 0.460839844,5.60244141 0.091796875,4.27324219 C-0.277246094,2.94550781 0.5,1.57080078 1.82773438,1.20175781 L5.47529297,0.188574219 C7.56513672,-0.3921875 9.72919922,0.83125 10.3083984,2.91962891 L15.3698242,21.1419922" id="Shape" fill="#CFDCE5" fill-rule="nonzero"/>
                    <path d="M32.6641602,19.4416016 L32.6734375,19.4425781 L32.6734375,17.3558594 C32.6734375,16.7676758 32.1966797,16.290918 31.6084961,16.290918 L28.9755859,16.290918 C28.3874023,16.290918 27.9106445,16.7676758 27.9106445,17.3558594 L27.9106445,18.9478516 L27.912207,18.9479492 C25.3169922,19.3131836 23.0453125,20.6875977 21.5082031,22.6612305 L39.0456055,27.1783203 C38.4833008,23.5926758 35.9901367,20.6490234 32.6641602,19.4416016 Z" id="Shape" fill="#FF6F52" fill-rule="nonzero"/>
                    <path d="M21.9416992,28.7076172 C21.9416992,23.6916992 25.6891602,19.5539063 30.5364258,18.9338867 C30.1227539,18.880957 29.7020508,18.8506836 29.2741211,18.8506836 C23.8302734,18.8506836 19.4170898,23.2637695 19.4170898,28.7077148 C19.4170898,34.1515625 23.8301758,38.5647461 29.2741211,38.5647461 C29.7021484,38.5647461 30.1228516,38.5344727 30.5364258,38.481543 C25.6891602,37.8612305 21.9416992,33.7234375 21.9416992,28.7076172 Z" id="Shape" fill="#E25749" fill-rule="nonzero"/>
                    <path d="M9.79121094,29.271582 L9.79121094,19.5222656 L42.2361328,27.8774414 C45.4360352,28.7000977 47.6710937,31.5854492 47.6710937,34.8880859 L47.6710937,36.6408203 L36.5259766,44.2473633 L22.4819336,44.2473633" id="Shape" fill="#8DE0A8" fill-rule="nonzero"/>
                    <g id="Group" transform="translate(3.710938, 28.320312)" fill="#415E72" fill-rule="nonzero">
                        <circle id="Oval" cx="10.2834961" cy="10.2560547" r="10.2075195"/>
                        <circle id="Oval" cx="39.3364258" cy="13.5103516" r="6.95263672"/>
                    </g>
                    <g id="Group" transform="translate(9.570312, 34.179688)" fill="#CFDCE5" fill-rule="nonzero">
                        <circle id="Oval" cx="4.42412109" cy="4.39667969" r="4.3828125"/>
                        <circle id="Oval" cx="33.4770508" cy="7.65097656" r="2.40898438"/>
                    </g>
                    <g id="Group" transform="translate(8.691406, 30.175781)" fill="#344F5E" fill-rule="nonzero">
                        <path d="M5.30351562,13.6991211 C2.38164062,13.6991211 0.0044921875,11.3220703 0.0044921875,8.40009766 C0.0044921875,5.47822266 2.38154297,3.10107422 5.30351562,3.10107422 C8.22548828,3.10107422 10.6025391,5.478125 10.6025391,8.40009766 C10.6025391,11.3219727 8.22548828,13.6991211 5.30351562,13.6991211 Z M5.30351563,4.93359375 C3.39208984,4.93359375 1.83691406,6.48867187 1.83691406,8.40019531 C1.83691406,10.3117188 3.39199219,11.8667969 5.30351563,11.8667969 C7.21503906,11.8667969 8.77011719,10.3117188 8.77011719,8.40019531 C8.77011719,6.48867187 7.21513672,4.93359375 5.30351563,4.93359375 Z" id="Shape"/>
                        <path d="M34.355957,15.4398437 C32.2686523,15.4398437 30.5706055,13.7416992 30.5706055,11.6544922 C30.5706055,9.56728516 32.2686523,7.86914062 34.355957,7.86914062 C36.4432617,7.86914062 38.1413086,9.56728516 38.1413086,11.6544922 C38.1413086,13.7416992 36.4432617,15.4398437 34.355957,15.4398437 Z M34.355957,9.7015625 C33.2791016,9.7015625 32.4030273,10.5776367 32.4030273,11.6544922 C32.4030273,12.7313477 33.2791016,13.6074219 34.355957,13.6074219 C35.4328125,13.6074219 36.3088867,12.7313477 36.3088867,11.6544922 C36.3088867,10.5776367 35.4328125,9.7015625 34.355957,9.7015625 Z" id="Shape"/>
                        <rect id="Rectangle-path" x="18.4082031" y="2.35859375" width="9.84111328" height="1.22158203"/>
                        <rect id="Rectangle-path" x="18.4082031" y="0.033984375" width="9.84111328" height="1.22158203"/>
                        <rect id="Rectangle-path" x="18.4082031" y="4.68330078" width="6.8921875" height="1.22158203"/>
                    </g>
                    <path d="M30.5364258,18.9336914 L30.5364258,16.290918 L28.9753906,16.290918 C28.387207,16.290918 27.9104492,16.7676758 27.9104492,17.3558594 L27.9104492,18.9479492" id="Shape" fill="#E25749" fill-rule="nonzero"/>
                </g>
            </g>
        </g>
    </g>
</svg>