<?xml version="1.0" encoding="UTF-8"?><svg xmlns="http://www.w3.org/2000/svg" xmlns:xlink="http://www.w3.org/1999/xlink" width="35px" height="49px" viewBox="0 0 35 49" version="1.1">
    <!-- Generator: sketchtool 48.2 (47327) - http://www.bohemiancoding.com/sketch -->
    <title>FED388B8-B074-425F-BCA6-F9514ED34C88</title>
    <desc>Created with sketchtool.</desc>
    <defs/>
    <g id="assets" stroke="none" stroke-width="1" fill="none" fill-rule="evenodd" transform="translate(-689.000000, -247.000000)">
        <g id="Красота-и-здоровье" transform="translate(597.000000, 50.000000)">
            <g id="иконки/красота/стрижка" transform="translate(80.000000, 192.000000)">
                <g id="barbershop" transform="translate(12.000000, 5.000000)">
                    <path d="M13.3353765,21.5325798 L11.0424285,34.6485414 C10.3970662,34.3244058 9.69362949,34.0866024 8.94541639,33.9557015 C4.82037483,33.2344997 0.890334109,35.9948471 0.169236203,40.1198886 C-0.552069481,44.2462808 2.20838182,48.1749709 6.33342337,48.8960688 C10.4598155,49.6173745 14.3882979,46.8581699 15.1096036,42.7318816 L16.4086395,35.3009683 L13.3353765,21.5325798 Z M6.88622008,45.7348113 C4.50662816,45.3187334 2.91493517,43.0525889 3.33080535,40.672997 C3.74688331,38.2934051 6.01302776,36.7017121 8.39261968,37.1175823 C10.7722116,37.5336602 12.3639046,39.7998047 11.9480344,42.1793966 C11.5319564,44.5591963 9.265812,46.1508893 6.88622008,45.7348113 Z" id="Shape" fill="#FC583D" fill-rule="nonzero"/>
                    <path d="M12.0205494,29.0535655 L17.0153549,0.482878989 C19.8721119,4.08140791 21.0539603,8.72984541 20.2627369,13.2559009 L17.7235705,27.7800864" id="Shape" fill="#CCCCCC" fill-rule="nonzero"/>
                    <path d="M33.3469082,33.0377327 C31.0331823,29.9881566 26.7424368,29.1466506 23.4499668,31.0992562 C22.6113697,31.5966797 21.9096991,32.2257314 21.3475524,32.9402842 L1.41217171,4.55763797 L1.41196393,4.55888464 C0.35717254,9.03039811 1.26433677,13.7395071 3.90500332,17.4989611 L21.0333901,41.885389 C23.4570312,45.3359791 28.2424992,46.2540517 31.6864403,43.8206449 C35.1761968,41.3547207 35.9546418,36.4746094 33.3469082,33.0377327 Z M29.8239071,41.2065741 C27.8471991,42.595059 25.1190575,42.1181017 23.7306765,40.1412899 C22.3421917,38.1645819 22.8191489,35.4364403 24.7959608,34.0480593 C26.7726687,32.6595745 29.5008103,33.1365317 30.8891913,35.1133436 C32.2775723,37.0900515 31.8007189,39.8180893 29.8239071,41.2065741 Z" id="Shape" fill="#E6E6E6" fill-rule="nonzero"/>
                    <path d="M33.3491938,33.0343044 C31.0366107,29.9837932 26.7447224,29.1420795 23.4529796,31.0954122 C22.6145903,31.5921085 21.9119847,32.2221991 21.3499418,32.9368559 L18.7787774,29.2760971 L15.4550366,33.9353391 L21.036299,41.881545 C23.4602518,45.3325507 28.2452003,46.2498961 31.688622,43.8169049 C35.1796252,41.3503574 35.9571351,36.4704538 33.3491938,33.0343044 Z M29.826816,41.2026263 C27.8499003,42.5912151 25.121447,42.1141539 23.7328582,40.1372382 C22.3442694,38.1603225 22.8211228,35.433012 24.7979347,34.0445271 C26.7748504,32.6559383 29.5033037,33.1329995 30.8918925,35.1099152 C32.2804812,37.086831 31.8038356,39.8141415 29.826816,41.2026263 Z" id="Shape" fill="#FC583D" fill-rule="nonzero"/>
                    <path d="M14.7764295,29.0141913 C13.9794922,29.0141913 13.5784782,28.0076047 14.154754,27.4583403 C14.4338015,27.1922789 14.8619307,27.1363863 15.2015459,27.316427 C15.5417844,27.4968833 15.7305519,27.8874044 15.6643742,28.2659782 C15.5898853,28.6924451 15.2108959,29.0141913 14.7764295,29.0141913 Z" id="Shape" fill="#666666" fill-rule="nonzero"/>
                </g>
            </g>
        </g>
    </g>
</svg>