<?xml version="1.0" encoding="UTF-8"?><svg xmlns="http://www.w3.org/2000/svg" xmlns:xlink="http://www.w3.org/1999/xlink" width="50px" height="28px" viewBox="0 0 50 28" version="1.1">
    <!-- Generator: sketchtool 48.2 (47327) - http://www.bohemiancoding.com/sketch -->
    <title>282A56E6-4F93-44B6-BE94-29DD22E79A11</title>
    <desc>Created with sketchtool.</desc>
    <defs/>
    <g id="assets" stroke="none" stroke-width="1" fill="none" fill-rule="evenodd" transform="translate(-872.000000, -845.000000)">
        <g id="-Техника-для-дома-Copy-2" transform="translate(867.000000, 637.000000)">
            <g id="иконки/дети/одежда" transform="translate(0.000000, 192.000000)">
                <g id="socks" transform="translate(5.000000, 16.000000)">
                    <path d="M37.9421875,7.78779297 L26.0333008,14.7083984 C25.2107422,15.1863281 23.8727539,15.1863281 23.0449219,14.7083984 L19.2932617,12.5423828 C16.0624023,10.6770508 10.8416016,10.6768555 7.63183594,12.5421875 C4.42207031,14.4075195 4.4390625,17.4317383 7.66992188,19.2970703 L19.5726563,26.1691406 C22.5583008,27.8928711 27.3833984,27.8925781 30.3496094,26.1688477 L34.7388672,23.6181641 L36.6019531,22.5355469 L42.5624023,19.0717773 L47.7083008,16.08125 L50,14.7494141 L50,14.0036133 L37.9421875,7.78779297 Z" id="Shape" fill="#D8D8DA" fill-rule="nonzero"/>
                    <g id="Group" transform="translate(42.480469, 15.332031)" fill="#CD2A01" fill-rule="nonzero">
                        <polygon id="Shape" points="3.51953125 0.99609375 3.51953125 1.74189453 5.22773437 0.74921875 5.22773437 0.00341796875"/>
                        <polygon id="Shape" points="0.0822265625 2.99658203 0.0822265625 3.74238281 1.79033203 2.74970703 1.79033203 2.00390625"/>
                    </g>
                    <path d="M50,14.0035156 L37.9421875,7.04189453 L26.0333008,13.9625977 C25.2107422,14.4405273 23.8727539,14.4405273 23.0449219,13.9625977 L19.2932617,11.796582 C16.0624023,9.93125 10.8416016,9.93105469 7.63183594,11.7963867 C4.42207031,13.6617187 4.4390625,16.6860352 7.66992188,18.5512695 L19.5726563,25.4233398 C22.5583008,27.1470703 27.3833984,27.1467773 30.3496094,25.4230469 L34.7388672,22.8723633 L36.6019531,21.7897461 L42.5624023,18.3259766 L30.5044922,11.3642578 L32.2129883,10.3713867 L44.2708008,17.3330078 L46.0000977,16.328125 L33.9422852,9.36650391 L35.6503906,8.37382813 L47.7082031,15.3354492 L50,14.0035156" id="Shape" fill="#E0E0E2" fill-rule="nonzero"/>
                    <g id="Group" transform="translate(30.468750, 8.300781)" fill="#FF3502" fill-rule="nonzero">
                        <polygon id="Shape" points="17.2394531 7.03466797 5.18144531 0.073046875 3.4734375 1.06572266 15.53125 8.02734375"/>
                        <polygon id="Shape" points="13.8020508 9.03222656 1.74414063 2.07060547 0.0356445313 3.06357422 12.0935547 10.0250977"/>
                    </g>
                    <path d="M32.706543,0.823144531 L20.7976562,7.74384766 C19.9750977,8.22177734 18.6371094,8.22177734 17.8092773,7.74384766 L14.0576172,5.57783203 C10.8267578,3.7125 5.60595703,3.71230469 2.39619141,5.57763672 C-0.813574219,7.44296875 -0.796582031,10.4671875 2.43427734,12.3325195 L14.3370117,19.2045898 C17.3226562,20.9283203 22.1477539,20.9280273 25.1139648,19.2042969 L29.5032227,16.6536133 L31.3663086,15.5709961 L37.3267578,12.1072266 L42.4726562,9.11669922 L44.7644531,7.78486328 L44.7644531,7.0390625 L32.706543,0.823144531 Z" id="Shape" fill="#D8D8DA" fill-rule="nonzero"/>
                    <g id="Group" transform="translate(37.304688, 8.300781)" fill="#CD2A01" fill-rule="nonzero">
                        <polygon id="Shape" points="3.45976563 1.06269531 3.45976563 1.80849609 5.16787109 0.815917969 5.16787109 0.0701171875"/>
                        <polygon id="Shape" points="0.0223632812 3.06328125 0.0223632812 3.80908203 1.73056641 2.81640625 1.73056641 2.07060547"/>
                    </g>
                    <path d="M44.7644531,7.03886719 L32.7066406,0.0772460937 L20.7977539,6.99794922 C19.9751953,7.47587891 18.637207,7.47587891 17.809375,6.99794922 L14.0577148,4.83193359 C10.8268555,2.96660156 5.60605469,2.96640625 2.39628906,4.83173828 C-0.813476562,6.69707031 -0.796484375,9.72128906 2.434375,11.5866211 L14.3371094,18.4586914 C17.3227539,20.1824219 22.1478516,20.1821289 25.1140625,18.4583984 L29.5033203,15.9077148 L31.3664063,14.8250977 L37.3268555,11.3613281 L25.269043,4.39970703 L26.9775391,3.40683594 L39.0353516,10.368457 L40.7646484,9.36357422 L28.7068359,2.40195312 L30.4149414,1.40927734 L42.4727539,8.37089844 L44.7644531,7.03886719" id="Shape" fill="#E0E0E2" fill-rule="nonzero"/>
                    <g id="Group" transform="translate(25.195312, 1.367188)" fill="#FF3502" fill-rule="nonzero">
                        <polygon id="Shape" points="17.2772461 7.00371094 5.21933594 0.0419921875 3.51123047 1.03466797 15.5691406 7.99628906"/>
                        <polygon id="Shape" points="13.8399414 9.00117188 1.78193359 2.03955078 0.0734375 3.03242187 12.1313477 9.99404297"/>
                    </g>
                </g>
            </g>
        </g>
    </g>
</svg>