<?xml version="1.0" encoding="UTF-8"?><svg xmlns="http://www.w3.org/2000/svg" xmlns:xlink="http://www.w3.org/1999/xlink" width="32px" height="50px" viewBox="0 0 32 50" version="1.1">
    <!-- Generator: sketchtool 48.2 (47327) - http://www.bohemiancoding.com/sketch -->
    <title>3FF4104F-CEB1-454D-8D7D-78A1508295AA</title>
    <desc>Created with sketchtool.</desc>
    <defs/>
    <g id="assets" stroke="none" stroke-width="1" fill="none" fill-rule="evenodd" transform="translate(-501.000000, -167.000000)">
        <g id="Одежда-и-обувь" transform="translate(327.000000, 50.000000)">
            <g id="иконки/одежда/биг" transform="translate(160.000000, 112.000000)">
                <g id="add-user" transform="translate(14.000000, 5.000000)">
                    <path d="M31.0399414,37.3758789 C31.0568359,31.3879883 27.5670898,24.3178711 22.7912109,20.009668 L25.0149414,18.7172852 C26.3561523,17.937793 27.187793,16.2803711 27.1945313,13.924707 C27.2080078,9.1828125 23.8737305,3.40761719 19.7470703,1.02509766 C17.6703125,-0.173828125 15.7885742,-0.28515625 14.4297852,0.504394531 L6.18222656,5.29746094 C6.18662109,5.29492188 6.19111328,5.29267578 6.19550781,5.29013672 C4.84667969,6.06630859 4.009375,7.7265625 4.00263672,10.0898437 C3.99394531,13.1424805 5.37363281,16.6224609 7.45791016,19.3505859 L3.35556641,21.734668 C3.37363281,21.7241211 3.39208984,21.7143555 3.41025391,21.7041016 C1.33632812,22.8774414 0.047265625,25.4130859 0.0370117187,29.0313477 L0.0147460937,36.862207 L22.7700195,49.9999023 L31.0175781,45.2068359 L31.0399414,37.3758789 Z" id="Shape" fill="#ACDD58" fill-rule="nonzero"/>
                    <g id="Group" transform="translate(3.320312, 16.113281)" fill="#8DC43D" fill-rule="nonzero">
                        <path d="M0.03515625,5.62109375 L8.28271484,0.828125 C9.92773437,-0.127832031 12.0760742,-0.216601562 14.4769531,0.704882813 L6.22919922,5.49785156 C3.82851563,4.57646484 1.68017578,4.66513672 0.03515625,5.62109375 Z" id="Shape"/>
                        <path d="M18.2798828,2.90048828 L10.0323242,7.69345703 C15.4078125,11.8386719 19.490332,19.5799805 19.4719727,26.0554688 L19.4498047,33.8864258 L27.6973633,29.0933594 L27.7196289,21.2625 C27.7378906,14.7870117 23.6553711,7.04570312 18.2798828,2.90048828 Z" id="Shape"/>
                    </g>
                    <path d="M19.7469727,1.025 C17.6702148,-0.174023438 15.7884766,-0.285351563 14.4296875,0.504296875 L6.18212891,5.29736328 C7.54091797,4.5078125 9.42265625,4.61914063 11.4993164,5.81806641 C15.6259766,8.20058594 18.9602539,13.9758789 18.9467773,18.7176758 C18.9401367,21.0733398 18.1083984,22.7308594 16.7671875,23.5102539 L25.0147461,18.7171875 C26.355957,17.9376953 27.1875977,16.2802734 27.1943359,13.9246094 C27.2079102,9.1828125 23.8736328,3.40751953 19.7469727,1.025 Z" id="Shape" fill="#CCFF69" fill-rule="nonzero"/>
                    <path d="M11.4993164,5.81806641 C15.6260742,8.20058594 18.9602539,13.9758789 18.9467773,18.7177734 C18.9354492,22.7047852 16.5610352,24.6916016 13.3525391,23.8068359 C18.7280273,27.9520508 22.8105469,35.6933594 22.7921875,42.1688477 L22.7700195,49.999707 L0.0147460937,36.8618164 L0.0370117187,29.030957 C0.0553710937,22.5553711 4.16845703,19.5458008 9.54980469,21.6111328 C6.34677734,18.7942383 3.99140625,14.0765625 4.00273438,10.0895508 C4.01601563,5.34775391 7.37265625,3.43544922 11.4993164,5.81806641 Z" id="Shape" fill="#ACDD58" fill-rule="nonzero"/>
                    <g id="Group" transform="translate(8.886719, 27.343750)" fill="#58948E" fill-rule="nonzero">
                        <polygon id="Shape" points="14.2000977 8.88134766 14.2181641 2.51005859 10.0042969 0.0772460937 5.59736328 2.63828125 5.59736328 3.91455078 4.44160156 3.24726563 0.0345703125 5.80830078 0.0345703125 10.6508789 5.56552734 13.8521484 5.55537109 20.2234375 9.76914063 22.65625 14.1864258 20.0952148 14.1864258 18.8231445 15.3383789 19.4865234 19.7452148 16.9254883 19.7452148 12.0828125"/>
                        <polygon id="Shape" points="9.77939453 16.2849609 14.1864258 13.7239258 14.1864258 20.0952148 9.76914063 22.65625"/>
                    </g>
                    <polygon id="Shape" fill="#82CF95" fill-rule="nonzero" points="8.92128906 33.1520508 13.3283203 30.5910156 18.8729492 33.7922852 14.484082 36.3533203"/>
                    <polygon id="Shape" fill="#58948E" fill-rule="nonzero" points="24.2250977 41.9876953 28.6320313 39.4265625 28.6320313 44.2692383 24.2250977 46.8302734"/>
                    <polygon id="Shape" fill="#82CF95" fill-rule="nonzero" points="18.6797852 38.7862305 23.0868164 36.2250977 28.6320313 39.4265625 24.2250977 41.9876953"/>
                    <polygon id="Shape" fill="#58948E" fill-rule="nonzero" points="18.6978516 32.4149414 23.1048828 29.8538086 23.0868164 36.2250977 18.6797852 38.7862305"/>
                    <polygon id="Shape" fill="#82CF95" fill-rule="nonzero" points="14.484082 29.9820313 18.8910156 27.4209961 23.1048828 29.8538086 18.6978516 32.4149414"/>
                    <polygon id="Shape" fill="#6FB59D" fill-rule="nonzero" points="18.6978516 32.4149414 18.6797852 38.7862305 24.2250977 41.9876953 24.2250977 46.8302734 18.6661133 43.6287109 18.6558594 50 14.4420898 47.5671875 14.4522461 41.1958984 8.92128906 37.9946289 8.92128906 33.1520508 14.484082 36.3533203 14.484082 29.9820313"/>
                </g>
            </g>
        </g>
    </g>
</svg>